<?xml version="1.0" encoding="utf-8"?>
<!-- Generator: Adobe Illustrator 24.2.3, SVG Export Plug-In . SVG Version: 6.00 Build 0)  -->
<svg version="1.1" id="Layer_1" xmlns="http://www.w3.org/2000/svg" xmlns:xlink="http://www.w3.org/1999/xlink" x="0px" y="0px"
	 viewBox="0 0 229 35.4" style="enable-background:new 0 0 229 35.4;" xml:space="preserve">
<style type="text/css">
	.st0{fill:#E34612;}
	.st1{fill:#FFFAE9;}
</style>
<path class="st0" d="M0,17.9C0,7.7,7.6,0,17.6,0c10.1,0,17.7,7.6,17.7,17.8c0,10-7.6,17.6-17.7,17.6C7.6,35.4,0,27.9,0,17.9z
	 M33.7,17.8c0-9.3-6.9-16.2-16.1-16.2c-9.1,0-16,6.9-16,16.2c0,9.1,6.9,16,16,16C26.8,33.8,33.7,27,33.7,17.8z M17.6,26.3V14h-4.6
	v-1.6h1.6c2.3,0,3-0.8,3.1-2.8V9.1h2.1v17.2L17.6,26.3L17.6,26.3z"/>
<path class="st0" d="M38.7,17.8C38.7,7.6,46.3,0,56.4,0c10.1,0,17.8,7.6,17.8,17.8c0,10-7.6,17.5-17.8,17.5
	C46.3,35.3,38.7,27.8,38.7,17.8z M72.5,17.7c0-9.2-6.9-16.2-16.2-16.2c-9.2,0-16.1,6.9-16.1,16.2c0,9.1,6.9,16,16.1,16
	C65.6,33.7,72.5,26.9,72.5,17.7z M48.5,26.2v-1c0-7.4,13.8-6.8,13.8-11.5c0-1.7-1.3-3.1-5.3-3.1c-4.2,0-6.4,1.4-6.4,4.9h-2.1
	c0-4.7,3.3-6.6,8.4-6.6c5.4,0,7.5,2,7.5,4.8c0,6-12.9,5.5-13.4,10.8v0.1h13.3v1.7H48.5z"/>
<path class="st0" d="M77.5,17.8C77.5,7.7,85,0.1,95,0.1c10.1,0,17.6,7.6,17.6,17.8c0,10-7.6,17.5-17.6,17.5
	C85,35.3,77.5,27.8,77.5,17.8z M111.1,17.8c0-9.2-6.9-16.1-16.1-16.1c-9.1,0-16,6.9-16,16.1c0,9.1,6.9,15.9,16,15.9
	C104.2,33.8,111.1,26.9,111.1,17.8z M86.4,17.9c0-6.4,4.4-8.9,8.9-8.9c4.9,0,7.6,1.8,8.1,5.3h-2.1c-0.5-2.2-2.3-3.5-6-3.5
	c-4,0-7.3,2.5-6.7,8.4c1.1-2.1,3.8-3.6,7.5-3.6c5.2,0,7.6,2.1,7.6,5.2c0,3.3-3.1,5.7-8.3,5.7C89.4,26.5,86.4,23.7,86.4,17.9z
	 M101.5,20.8c0-2.4-2-3.7-5.9-3.7c-3.9,0-6.5,1.7-6.5,3.8c0,2.3,2.3,3.8,6.2,3.8C99.3,24.8,101.5,23.2,101.5,20.8z"/>
<path class="st1" d="M132.4,9.1c0,2.6-1.7,4-5.2,4h-4.7v3.7h-2.9V5.1h7.6C130.7,5.1,132.4,6.4,132.4,9.1z M126.9,11
	c1.8,0,2.6-0.6,2.6-1.9c0-1.3-0.8-1.9-2.6-1.9h-4.4V11H126.9z"/>
<path class="st1" d="M133.8,10.9c0-3.7,2.6-6,7.7-6c5.1,0,7.7,2.3,7.7,6c0,3.7-2.6,6-7.7,6C136.4,16.9,133.8,14.6,133.8,10.9z
	 M146.1,10.9c0-2.5-1.7-3.8-4.7-3.8c-3,0-4.7,1.2-4.7,3.8c0,2.4,1.7,3.8,4.7,3.8C144.4,14.7,146.1,13.4,146.1,10.9z"/>
<path class="st1" d="M154.1,14.4h7.5v2.3h-10.4V5.1h2.9V14.4z"/>
<path class="st1" d="M162.9,13h2.9c0.2,1.4,1.5,1.9,4,1.9c2.6,0,3.5-0.8,3.5-1.7c0-0.9-0.7-1.2-4.4-1.4c-4.4-0.2-5.8-1-5.8-3.1
	c0-2.2,1.8-3.9,6.5-3.9c4.1,0,6.1,1.1,6.4,3.5h-2.8c-0.1-1-1.2-1.6-3.9-1.6c-2.4,0-3.3,0.7-3.3,1.6c0,0.9,0.7,1.2,4.5,1.3
	c4.5,0.2,5.7,1,5.7,3.1c0,2.2-1.8,4-6.4,4C165.3,16.9,163.2,15.9,162.9,13z"/>
<path class="st1" d="M192,5.1L192,5.1l-7,5.3l7,6.3v0h-3.5l-5.4-4.8l-1.8,1.3v3.5h-2.9V5.1h2.9v5.4l7-5.4H192z"/>
<path class="st1" d="M193.5,16.7V5.1h2.9v11.7L193.5,16.7L193.5,16.7z"/>
<path class="st1" d="M198.5,10.9c0-4.1,3.2-6,7.4-6c4.5,0,6.8,1.7,7.4,4.6h-3c-0.5-1.7-2-2.4-4.4-2.4c-2.5,0-4.4,1.2-4.4,3.8
	c0,2.6,1.9,3.8,4.4,3.8c2.3,0,3.8-0.7,4.4-2.4h3c-0.5,2.9-2.9,4.6-7.4,4.6C201.7,16.9,198.5,15,198.5,10.9z"/>
<path class="st1" d="M226.1,5.1h2.9v11.7h-2.9V12h-7.9v4.7h-2.9V5.1h2.9v4.6h7.9V5.1z"/>
<path class="st1" d="M119.5,33.6V21.9h3.7l4.3,7l0.8,1.4h0.1l0.9-1.4l4.3-6.9h3.7v11.7h-2.8v-6.2l0.1-2.2h-0.1l-1.1,1.9l-4,6.5h-2.1
	l-3.9-6.5l-1.1-1.9h-0.1l0,2.2v6.2H119.5z"/>
<path class="st1" d="M151.3,33.6l-1.2-2.3h-7.3l-1.2,2.3h-2.9l6.2-11.7h3.4l6.1,11.7H151.3z M143.9,29.3h5.3l-2.2-4.3l-0.4-0.7h-0.1
	l-0.4,0.7L143.9,29.3z"/>
<path class="st1" d="M166.1,28.5c3.3,0.4,1.4,3.1,2.7,5v0.1h-3c-0.8-1.4,0.6-4.1-3.1-4.1h-4v4.1h-2.9V21.9h8.1
	c3.1,0,4.7,1.3,4.7,3.4C168.7,27.1,167.6,28.1,166.1,28.5L166.1,28.5z M163.3,27.4c1.7,0,2.5-0.6,2.5-1.8c0-1.2-0.7-1.7-2.5-1.7
	h-4.5v3.4H163.3z"/>
<path class="st1" d="M182.6,23.9h-8.7v2.8h8v2h-8v3h8.7v2H171V21.9h11.6V23.9z"/>
<path class="st1" d="M198.6,21.9L198.6,21.9l-7,5.3l7,6.3v0h-3.5l-5.4-4.8l-1.8,1.3v3.5H185V21.9h2.9v5.4l7-5.4H198.6z"/>
</svg>
