<svg width="262" height="41" viewBox="0 0 262 41" fill="none" xmlns="http://www.w3.org/2000/svg">
<path d="M0 20.5159C0 8.84193 8.69686 0.111084 20.1601 0.111084C31.7118 0.111084 40.4086 8.84533 40.4086 20.5159C40.4086 32.0098 31.7118 40.6115 20.1601 40.6115C8.69686 40.6115 0 31.9656 0 20.5159ZM38.6074 20.4717C38.6074 9.86829 30.7024 1.9361 20.1601 1.9361C9.70623 1.9361 1.80123 9.86829 1.80123 20.4717C1.80123 30.8984 9.70623 38.7831 20.1601 38.7831C30.7024 38.7831 38.6074 30.9426 38.6074 20.4717ZM20.1159 30.1848V16.1046H14.8006V14.3238H16.646C19.3241 14.2796 20.1159 13.3892 20.1601 11.1156V10.5378H22.5765V30.1881H20.1159V30.1848Z" fill="#E34612"/>
<path d="M44.2727 20.4276C44.2727 8.78762 52.9968 0.0805664 64.4974 0.0805664C76.0864 0.0805664 84.8071 8.78762 84.8071 20.4276C84.8071 31.8909 76.083 40.4654 64.4974 40.4654C52.9968 40.4654 44.2727 31.8433 44.2727 20.4276ZM82.9991 20.3834C82.9991 9.81058 75.0669 1.90218 64.494 1.90218C54.0061 1.90218 46.0773 9.81058 46.0773 20.3834C46.0773 30.7796 54.0061 38.6438 64.494 38.6438C75.0703 38.6438 82.9991 30.8237 82.9991 20.3834ZM55.4641 30.0659V28.9545C55.4641 20.5126 71.2367 21.2229 71.2367 15.8056C71.2367 13.8073 69.7821 12.2507 65.1567 12.2507C60.3546 12.2507 57.8872 13.8073 57.8872 17.8039H55.4641C55.4641 12.4716 59.2535 10.2524 65.0684 10.2524C71.1925 10.2524 73.6599 12.5192 73.6599 15.7172C73.6599 22.6027 58.9442 21.9807 58.2815 28.0233V28.1117H73.5273V30.0659H55.4641Z" fill="#E34612"/>
<path d="M88.6133 20.4988C88.6133 8.87238 97.2762 0.172119 108.695 0.172119C120.203 0.172119 128.866 8.86898 128.866 20.4988C128.866 31.9485 120.203 40.5162 108.695 40.5162C97.2762 40.5162 88.6133 31.9043 88.6133 20.4988ZM127.071 20.4546C127.071 9.89194 119.197 1.99374 108.695 1.99374C98.2821 1.99374 90.4077 9.89194 90.4077 20.4546C90.4077 30.8405 98.2821 38.6945 108.695 38.6945C119.197 38.6945 127.071 30.8847 127.071 20.4546ZM98.8531 20.543C98.8531 13.1749 103.842 10.3337 109.005 10.3337C114.561 10.3337 117.712 12.4205 118.279 16.3696H115.873C115.346 13.8852 113.29 12.3321 108.96 12.3321C104.366 12.3321 100.648 15.1733 101.303 21.9635C102.615 19.6118 105.633 17.8377 109.922 17.8377C115.917 17.8377 118.629 20.2779 118.629 23.8293C118.629 27.6017 115.084 30.3987 109.134 30.3987C102.309 30.3953 98.8531 27.1565 98.8531 20.543ZM116.179 23.9177C116.179 21.2091 113.861 19.6559 109.484 19.6559C105.066 19.6559 102.004 21.5659 102.004 24.0061C102.004 26.6229 104.671 28.4004 109.093 28.4004C113.596 28.4004 116.179 26.6229 116.179 23.9177Z" fill="#E34612"/>
<path d="M151.456 10.5073C151.456 13.5184 149.532 15.0546 145.525 15.0546H140.125V19.2382H136.825V5.89893H145.525C149.532 5.89893 151.456 7.43506 151.456 10.5073ZM145.134 12.6892C147.235 12.6892 148.139 12.0435 148.139 10.5073C148.139 9.01199 147.214 8.34587 145.134 8.34587H140.128V12.6892H145.134Z" fill="#253788"/>
<path d="M153.026 12.5668C153.026 8.36279 156.01 5.71533 161.842 5.71533C167.694 5.71533 170.62 8.36279 170.62 12.5668C170.62 16.7708 167.694 19.4182 161.842 19.4182C156.01 19.4182 153.026 16.7708 153.026 12.5668ZM167.184 12.5668C167.184 9.65764 165.199 8.24385 161.842 8.24385C158.426 8.24385 156.462 9.65764 156.462 12.5668C156.462 15.357 158.385 16.8897 161.842 16.8897C165.199 16.8931 167.184 15.357 167.184 12.5668Z" fill="#253788"/>
<path d="M176.363 16.6111H184.955V19.2382H173.063V5.89893H176.363V16.6111Z" fill="#253788"/>
<path d="M186.338 14.9933H189.638C189.856 16.611 191.307 17.1956 194.254 17.1956C197.278 17.1956 198.22 16.2644 198.22 15.2754C198.22 14.2661 197.455 13.8616 193.132 13.6985C188.126 13.515 186.515 12.5872 186.515 10.1402C186.515 7.67629 188.537 5.71533 193.938 5.71533C198.573 5.71533 200.949 7.01017 201.261 9.77658H198.08C197.944 8.60409 196.687 7.91759 193.621 7.91759C190.872 7.91759 189.832 8.68566 189.832 9.7358C189.832 10.7248 190.638 11.0884 194.998 11.2516C200.143 11.4317 201.537 12.3833 201.537 14.7894C201.537 17.3553 199.474 19.4182 194.25 19.4182C189.166 19.4182 186.692 18.2254 186.338 14.9933Z" fill="#253788"/>
<path d="M219.671 5.89893V5.93971L211.678 12.0027L219.651 19.1974V19.2382H215.607L209.401 13.7224L207.399 15.2177V19.2382H204.099V5.89893H207.399V12.0435L215.352 5.89893H219.671Z" fill="#253788"/>
<path d="M221.364 19.2382V5.89893H224.681V19.2348H221.364V19.2382Z" fill="#253788"/>
<path d="M227.083 12.5668C227.083 7.8802 230.717 5.71533 235.546 5.71533C240.671 5.71533 243.342 7.63551 243.991 11.0103H240.555C239.984 9.0493 238.278 8.24045 235.549 8.24045C232.701 8.24045 230.523 9.61346 230.523 12.5634C230.523 15.5337 232.701 16.8863 235.549 16.8863C238.163 16.8863 239.91 16.0571 240.555 14.1369H244.012C243.403 17.4709 240.654 19.4114 235.549 19.4114C230.717 19.4182 227.083 17.2772 227.083 12.5668Z" fill="#253788"/>
<path d="M258.7 5.89893H262V19.2348H258.7V13.8379H249.667V19.2348H246.367V5.89893H249.667V11.2142H258.7V5.89893Z" fill="#253788"/>
<path d="M136.761 38.5045V25.1584H141.023L145.896 33.145L146.858 34.7627H146.936L147.939 33.1042L152.812 25.1584H156.996V38.5045H153.832V31.4491L153.91 28.8798H153.832L152.537 31.0617L148 38.5011H145.624L141.107 31.0821L139.85 28.8798H139.772L139.813 31.4287V38.5045H136.761Z" fill="#253788"/>
<path d="M173.152 38.5045L171.796 35.8367H163.409L162.032 38.5045H158.712L165.784 25.1584H169.635L176.649 38.5045H173.152ZM164.585 33.5698H170.654L168.16 28.6148L167.728 27.7855H167.609L167.157 28.6148L164.585 33.5698Z" fill="#253788"/>
<path d="M190.023 32.642C193.795 33.1484 191.674 36.2411 193.125 38.3652V38.5079H189.707C188.803 36.8698 190.434 33.8587 186.189 33.8587H181.652V38.5079H178.352V25.1619H187.586C191.161 25.1619 192.969 26.596 192.969 29.0022C192.969 31.0651 191.732 32.2376 190.023 32.5401V32.642ZM186.821 31.4696C188.806 31.4696 189.71 30.8238 189.71 29.4474C189.71 28.1118 188.962 27.5273 186.821 27.5273H181.655V31.4696H186.821Z" fill="#253788"/>
<path d="M208.929 27.4049H198.988V30.5995H208.103V32.8425H198.988V36.2581H208.929V38.5011H195.688V25.155H208.929V27.4049Z" fill="#253788"/>
<path d="M227.257 25.1584V25.1992L219.26 31.2656L227.237 38.4637V38.5045H223.189L216.98 32.9853L214.975 34.4806V38.5045H211.675V25.1584H214.975V31.3064L222.931 25.1584H227.257Z" fill="#253788"/>
</svg>
