<svg width="124" height="17" viewBox="0 0 124 17" fill="none" xmlns="http://www.w3.org/2000/svg">
<path d="M7.07318 8.67398C7.68794 8.82195 8.25541 9.16721 8.68101 9.70976C9.10661 10.2523 9.34306 10.9922 9.34306 11.88C9.34306 13.0637 9.01204 13.9516 8.34999 14.6421C7.68794 15.2833 6.69487 15.6286 5.37078 15.6286H0.5V2.31128H5.13433C6.17469 2.31128 7.02589 2.60722 7.64065 3.24842C8.25541 3.88962 8.58643 4.67879 8.58643 5.71458C8.58643 6.40511 8.44457 6.99699 8.20812 7.53954C7.97167 8.0821 7.59336 8.42736 7.12047 8.62465L7.07318 8.67398ZM4.99246 3.79098H2.20241V8.0821H5.2762C5.7018 8.0821 6.03282 7.93413 6.26927 7.63819C6.50571 7.34225 6.64758 6.99699 6.64758 6.55308V5.17203C6.64758 4.72812 6.50571 4.43218 6.17469 4.18556C5.84367 3.93895 5.51264 3.79098 4.99246 3.79098ZM7.4515 12.5705V10.9922C7.4515 10.5483 7.26234 10.1537 6.88403 9.90706C6.50571 9.61112 5.98553 9.51247 5.41806 9.51247H2.20241V14.0995H5.32349C6.74216 14.0995 7.4515 13.6063 7.4515 12.5705Z" fill="#FFFAE9"/>
<path d="M12.3228 6.60265C12.9376 6.01078 13.7415 5.76416 14.7819 5.76416C15.8222 5.76416 16.5788 6.01078 17.1936 6.55333C17.7611 7.09589 18.0448 7.83574 18.0448 8.72355V15.5795H16.7207L16.5788 13.7545H16.437C16.1059 14.3957 15.6803 14.889 15.1602 15.2342C14.64 15.5795 14.0725 15.7768 13.505 15.7768C12.6538 15.7768 12.0391 15.5302 11.5189 15.0369C11.046 14.5437 10.8096 13.9025 10.8096 13.1133C10.8096 12.3241 11.0933 11.6829 11.6135 11.1897C12.1337 10.6965 12.843 10.4499 13.7415 10.4499H16.437V8.72355C16.437 8.181 16.2951 7.78641 15.9641 7.49047C15.6803 7.19453 15.2547 7.04656 14.7346 7.04656C14.2144 7.04656 13.7888 7.19453 13.4578 7.5398C13.1267 7.88506 12.9849 8.27965 12.9849 8.8222H11.377C11.377 7.93438 11.7081 7.19453 12.3228 6.60265ZM13.7888 14.445C14.309 14.445 14.8764 14.1984 15.3493 13.6559C15.8695 13.1133 16.2005 12.4228 16.3424 11.5843H13.8361C13.4105 11.5843 13.0794 11.6829 12.843 11.8802C12.6066 12.0775 12.4647 12.3241 12.4647 12.6694V13.4093C12.4647 13.7545 12.6066 14.0011 12.843 14.1984C13.1267 14.3464 13.4105 14.445 13.7888 14.445Z" fill="#FFFAE9"/>
<path d="M25.185 5.81348C25.2796 5.81348 25.4215 5.81348 25.5633 5.8628V7.53979C24.9013 7.3425 24.3338 7.53979 23.8609 8.03302C23.3408 8.52625 23.0097 9.21678 22.7733 10.0553V15.6781H21.1182V6.06009L22.4423 5.96145L22.6787 7.93438H22.726C23.2462 6.504 24.0974 5.81348 25.185 5.81348Z" fill="#FFFAE9"/>
<path d="M31.1432 14.2478V15.4809C30.6703 15.6782 30.1974 15.7769 29.5826 15.7769C28.9679 15.7769 28.4477 15.6289 28.0694 15.2836C27.6911 14.9384 27.5019 14.4944 27.5019 13.9519V7.34258H26.2251V6.06018L27.5019 5.96153L27.6911 3.49537L29.157 3.44604V5.96153H30.9067V7.34258H29.157V13.5573C29.157 13.8532 29.2516 14.0505 29.3935 14.2478C29.5353 14.3958 29.7718 14.4944 30.0555 14.4944C30.5284 14.4944 30.9067 14.3958 31.1432 14.2478Z" fill="#FFFAE9"/>
<path d="M40.1756 11.2884H34.028V11.6829C34.028 12.5214 34.2645 13.1626 34.6901 13.7052C35.163 14.1984 35.7304 14.445 36.487 14.445C37.4328 14.445 38.1895 14.0011 38.7096 13.064L39.9864 13.6065C39.75 14.2477 39.3244 14.741 38.7096 15.1849C38.0476 15.6288 37.3383 15.8261 36.487 15.8261C35.2102 15.8261 34.1699 15.3822 33.4133 14.445C32.6566 13.5079 32.2783 12.2748 32.2783 10.7951C32.2783 9.31543 32.6566 8.08234 33.4133 7.19453C34.1699 6.30671 35.163 5.81348 36.3452 5.81348C37.5274 5.81348 38.4732 6.20806 39.1825 7.04656C39.8919 7.88505 40.2702 8.92084 40.2702 10.2526C40.3175 10.6472 40.2702 11.0417 40.1756 11.2884ZM36.3925 7.1452C35.6831 7.1452 35.1157 7.39182 34.6901 7.88505C34.2645 8.37828 34.028 9.01949 34.028 9.80866V10.2032H38.5678C38.5678 10.1046 38.5678 9.95663 38.5678 9.75933C38.5678 8.97016 38.3786 8.32896 37.953 7.83573C37.5747 7.39182 37.0545 7.1452 36.3925 7.1452Z" fill="#FFFAE9"/>
<path d="M48.6875 15.5792L45.6137 11.0908H44.4315V15.5792H42.7764V0.930189L44.3842 0.831543V9.70972H45.661L48.3092 6.01048L50.2008 5.91184L46.9378 10.4002L50.5318 15.5792H48.6875Z" fill="#FFFAE9"/>
<path d="M60.7465 8.62465V8.7233L64.5296 15.6286H63.4892L59.9899 9.21653H57.7673L56.9161 15.6286H56.0176L57.7673 2.31128H58.6658L57.8619 8.32871H59.8953L64.7661 2.31128H65.8064L60.7465 8.62465Z" fill="#FFFAE9"/>
<path d="M69.3053 15.7768C68.2177 15.7768 67.3192 15.4315 66.6571 14.6917C65.9951 13.9518 65.6641 12.9654 65.6641 11.7816C65.6641 10.0553 66.0897 8.62491 66.9409 7.49047C67.7921 6.35604 68.8797 5.76416 70.2984 5.76416C71.3388 5.76416 72.19 6.15875 72.852 6.89859C73.5141 7.63844 73.8451 8.62491 73.8451 9.85799C73.8451 11.5843 73.4195 13.0147 72.5683 14.1491C71.7171 15.2342 70.6294 15.7768 69.3053 15.7768ZM69.3053 14.9876C70.2038 14.9876 70.9604 14.6423 71.6225 13.9518C72.2845 13.2613 72.6628 12.3735 72.8047 11.2884L72.9939 9.71002C72.9939 8.77288 72.7574 7.98371 72.2372 7.39183C71.7644 6.79995 71.1023 6.50401 70.2984 6.50401C69.3999 6.50401 68.596 6.84927 67.9339 7.49047C67.2719 8.13168 66.8936 9.01949 66.7517 10.0553L66.5626 11.7323C66.5626 12.7187 66.799 13.5079 67.3192 14.0998C67.7921 14.6917 68.4541 14.9876 69.3053 14.9876Z" fill="#FFFAE9"/>
<path d="M84.4855 15.7768C83.3979 15.7768 82.4994 15.4315 81.8373 14.6917C81.1753 13.9518 80.8442 12.9654 80.8442 11.7816C80.8442 10.0553 81.2698 8.62491 82.121 7.49047C82.9723 6.35604 84.0599 5.76416 85.4786 5.76416C86.5189 5.76416 87.3701 6.15875 88.0322 6.89859C88.6942 7.63844 89.0252 8.62491 89.0252 9.85799C89.0252 11.5843 88.5996 13.0147 87.7484 14.1491C86.9445 15.2342 85.8569 15.7768 84.4855 15.7768ZM84.4855 14.9876C85.384 14.9876 86.1406 14.6423 86.8027 13.9518C87.4647 13.2613 87.843 12.3735 87.9849 11.2884L88.174 9.71002C88.174 8.77288 87.9376 7.98371 87.4174 7.39183C86.8972 6.79995 86.2825 6.50401 85.4786 6.50401C84.5801 6.50401 83.7762 6.84927 83.1141 7.49047C82.4521 8.13168 82.0738 9.01949 81.9319 10.0553L81.7427 11.7323C81.7427 12.7187 81.9792 13.5079 82.4994 14.0998C82.9722 14.6917 83.6343 14.9876 84.4855 14.9876Z" fill="#FFFAE9"/>
<path d="M102.124 5.96118C102.55 7.04629 102.786 8.3287 102.786 9.75907C102.786 11.584 102.408 13.0144 101.699 14.1488C100.989 15.234 100.044 15.8258 98.9088 15.8258C97.7265 15.8258 96.9226 15.3819 96.4025 14.4448C95.835 15.3819 95.0784 15.8258 94.038 15.8258C93.0922 15.8258 92.3356 15.5299 91.7681 14.8887C91.2006 14.2968 90.8696 13.4583 90.8696 12.4718C90.8696 10.9922 91.1534 8.87125 91.7681 6.01051H92.6666C92.0519 8.82193 91.7681 10.8935 91.7681 12.1759V12.4718C91.7681 13.2117 91.9573 13.8529 92.3829 14.2968C92.8085 14.7407 93.3759 14.9873 94.038 14.9873C94.9838 14.9873 95.6458 14.4941 96.0714 13.5076C96.0241 13.2117 95.9768 12.9158 95.9768 12.6198C95.9768 10.9922 96.2606 8.77261 96.8753 5.96118H97.7738C97.1591 8.92058 96.8753 11.0415 96.8753 12.3732V12.6691C96.8753 12.8171 96.8753 12.9158 96.8753 13.0144L96.9226 13.0637V13.1131V13.1624C97.0172 13.7049 97.2064 14.1488 97.5374 14.4941C97.8684 14.8394 98.3413 14.9873 98.9088 14.9873C99.76 14.9873 100.469 14.5434 101.037 13.6556C101.557 12.7678 101.888 11.5347 101.935 10.055V9.36449C101.935 8.18073 101.699 7.04629 101.273 6.01051L102.124 5.96118Z" fill="#FFFAE9"/>
<path d="M112.055 15.7768C110.968 15.7768 110.117 15.3822 109.502 14.6423C108.84 13.9025 108.509 12.8667 108.509 11.6336C108.509 9.90732 108.934 8.52627 109.738 7.39183C110.542 6.30672 111.63 5.71484 112.954 5.71484C113.758 5.71484 114.42 5.91214 114.893 6.35605C115.366 6.79995 115.602 7.34251 115.602 8.08236C115.602 8.18101 115.602 8.32898 115.555 8.52627H114.751C114.751 8.42762 114.751 8.32898 114.751 8.13168C114.751 7.58913 114.562 7.19454 114.231 6.8986C113.9 6.60266 113.427 6.45469 112.907 6.45469C112.055 6.45469 111.299 6.79995 110.684 7.44116C110.069 8.08236 109.691 8.97018 109.549 10.006L109.313 11.7323C109.313 12.7187 109.549 13.5079 110.069 14.0998C110.59 14.6917 111.204 14.9876 112.055 14.9876C113.096 14.9876 113.947 14.593 114.562 13.8039L115.082 14.3957C114.325 15.3329 113.332 15.7768 112.055 15.7768Z" fill="#FFFAE9"/>
<path d="M122.458 16.615C121.465 15.9245 119.952 15.5792 117.918 15.5792H115.932L116.027 14.79L122.458 6.65171H117.256L117.351 5.91187H123.498L123.404 6.65171L116.925 14.79H117.918C120.046 14.79 121.607 15.1353 122.742 15.8752L122.458 16.615Z" fill="#FFFAE9"/>
<path d="M105.482 15.5793C105.056 15.5793 104.82 15.3821 104.82 14.9875C104.82 14.8888 104.82 14.7409 104.867 14.4942L106.002 5.91199H106.806L105.576 14.7902H107.184L107.042 15.5793H105.482ZM106.995 2.7553C106.806 2.7553 106.664 2.70598 106.617 2.60733C106.522 2.50869 106.522 2.41004 106.522 2.3114C106.522 2.26207 106.522 2.21275 106.522 2.16343C106.522 2.1141 106.522 2.06478 106.57 1.96613C106.617 1.81816 106.664 1.71952 106.759 1.62087C106.853 1.52222 106.995 1.4729 107.232 1.4729C107.421 1.4729 107.563 1.52222 107.61 1.62087C107.657 1.71952 107.704 1.81816 107.704 1.91681C107.704 1.96613 107.704 2.06478 107.657 2.26207C107.61 2.41004 107.563 2.50869 107.468 2.60733C107.373 2.70598 107.232 2.7553 106.995 2.7553Z" fill="#FFFAE9"/>
<path d="M76.8248 15.7769C76.3992 15.7769 76.1628 15.5796 76.1155 15.185C76.1155 15.1357 76.1155 15.037 76.1155 14.9384C76.1155 14.8397 76.1155 14.7904 76.1628 14.6918L77.3923 6.89869H75.6426L75.7372 6.25749H76.9667C77.2031 6.25749 77.345 6.20817 77.4396 6.10952C77.5341 6.01087 77.5814 5.8629 77.6287 5.61629L78.007 3.2981H78.811L78.3381 6.25749H80.4661L80.3715 6.89869H78.2435L76.9667 14.9877H78.9528L78.7164 15.7769H76.8248Z" fill="#FFFAE9"/>
</svg>
