<svg width="180" height="24" viewBox="0 0 180 24" fill="none" xmlns="http://www.w3.org/2000/svg">
<path d="M9.61731 11.8284C10.5168 12.0449 11.347 12.55 11.9697 13.3439C12.5925 14.1377 12.9384 15.2202 12.9384 16.5191C12.9384 18.2511 12.4541 19.5501 11.4854 20.5604C10.5168 21.4986 9.0638 22.0037 7.1265 22.0037H0V2.51904H6.78055C8.30272 2.51904 9.54812 2.95204 10.4476 3.89019C11.347 4.82834 11.8314 5.98299 11.8314 7.49846C11.8314 8.50878 11.6238 9.37477 11.2779 10.1686C10.9319 10.9624 10.3784 11.4676 9.6865 11.7562L9.61731 11.8284ZM6.57298 4.68401H2.49081V10.9624H6.98812C7.61082 10.9624 8.09515 10.7459 8.4411 10.3129C8.78704 9.87992 8.99461 9.37477 8.99461 8.72528V6.70464C8.99461 6.05515 8.78704 5.62216 8.30272 5.26133C7.81839 4.9005 7.33407 4.68401 6.57298 4.68401ZM10.1708 17.5295V15.2202C10.1708 14.5707 9.89407 13.9934 9.34056 13.6325C8.78704 13.1995 8.02596 13.0552 7.19569 13.0552H2.49081V19.7666H7.05731C9.13299 19.7666 10.1708 19.0449 10.1708 17.5295Z" fill="#E34612"/>
<path d="M17.2973 8.79713C18.1968 7.93114 19.373 7.57031 20.8952 7.57031C22.4173 7.57031 23.5243 7.93114 24.4238 8.72496C25.2541 9.51878 25.6692 10.6013 25.6692 11.9002V21.9312H23.7319L23.5243 19.2611H23.3168C22.8325 20.1993 22.2098 20.9209 21.4487 21.4261C20.6876 21.9312 19.8573 22.2199 19.027 22.2199C17.7816 22.2199 16.8822 21.8591 16.1211 21.1374C15.4292 20.4158 15.0833 19.4776 15.0833 18.323C15.0833 17.1683 15.4984 16.2302 16.2595 15.5085C17.0206 14.7869 18.0584 14.426 19.373 14.426H23.3168V11.9002C23.3168 11.1064 23.1092 10.5291 22.6249 10.0961C22.2098 9.66311 21.587 9.44662 20.826 9.44662C20.0649 9.44662 19.4422 9.66311 18.9579 10.1683C18.4735 10.6734 18.266 11.2508 18.266 12.0446H15.9135C15.9135 10.7456 16.3978 9.66311 17.2973 8.79713ZM19.4422 20.2714C20.2033 20.2714 21.0335 19.9106 21.7254 19.1168C22.4865 18.323 22.9708 17.3127 23.1784 16.0858H19.5114C18.8887 16.0858 18.4043 16.2302 18.0584 16.5188C17.7124 16.8075 17.5049 17.1683 17.5049 17.6735V18.756C17.5049 19.2611 17.7124 19.6219 18.0584 19.9106C18.4735 20.1271 18.8887 20.2714 19.4422 20.2714Z" fill="#E34612"/>
<path d="M36.1168 7.64258C36.2552 7.64258 36.4627 7.64258 36.6703 7.71474V10.1684C35.7016 9.87971 34.8714 10.1684 34.1795 10.89C33.4184 11.6117 32.9341 12.622 32.5881 13.8488V22.0757H30.1665V8.00341L32.1038 7.85907L32.4498 10.7457H32.5189C33.28 8.65289 34.5254 7.64258 36.1168 7.64258Z" fill="#E34612"/>
<path d="M44.8346 19.9834V21.7876C44.1427 22.0762 43.4508 22.2206 42.5514 22.2206C41.6519 22.2206 40.8908 22.0041 40.3373 21.4989C39.7838 20.9938 39.507 20.3443 39.507 19.5504V9.88027H37.6389V8.00397L39.507 7.85964L39.7838 4.25136L41.9287 4.1792V7.85964H44.4887V9.88027H41.9287V18.9731C41.9287 19.4061 42.067 19.6948 42.2746 19.9834C42.4822 20.1999 42.8281 20.3443 43.2432 20.3443C43.9351 20.3443 44.4887 20.1999 44.8346 19.9834Z" fill="#E34612"/>
<path d="M58.0497 15.6529H49.0551V16.2303C49.0551 17.4571 49.4011 18.3952 50.0238 19.1891C50.7157 19.9107 51.5459 20.2715 52.653 20.2715C54.0368 20.2715 55.1438 19.622 55.9049 18.2509L57.773 19.0447C57.427 19.9829 56.8043 20.7045 55.9049 21.354C54.9362 22.0035 53.8984 22.2922 52.653 22.2922C50.7849 22.2922 49.2627 21.6427 48.1557 20.2715C47.0486 18.9004 46.4951 17.0963 46.4951 14.9313C46.4951 12.7663 47.0486 10.9622 48.1557 9.66321C49.2627 8.36423 50.7157 7.64258 52.4454 7.64258C54.1751 7.64258 55.5589 8.2199 56.5968 9.44672C57.6346 10.6735 58.1881 12.189 58.1881 14.1375C58.2573 14.7148 58.1881 15.2921 58.0497 15.6529ZM52.5146 9.59105C51.4767 9.59105 50.6465 9.95187 50.0238 10.6735C49.4011 11.3952 49.0551 12.3333 49.0551 13.488V14.0653H55.6973C55.6973 13.921 55.6973 13.7045 55.6973 13.4158C55.6973 12.2612 55.4205 11.323 54.7978 10.6014C54.2443 9.95187 53.4832 9.59105 52.5146 9.59105Z" fill="#E34612"/>
<path d="M70.5039 21.9315L66.0066 15.3644H64.2769V21.9315H61.8552V0.498335L64.2077 0.354004V13.3438H66.0758L69.9504 7.93138L72.7179 7.78705L67.9439 14.3541L73.2023 21.9315H70.5039Z" fill="#E34612"/>
<path d="M88.1474 11.7562V11.9006L93.6826 22.0037H92.1604L87.0404 12.6222H83.7885L82.5431 22.0037H81.2285L83.7885 2.51904H85.1031L83.9269 11.3232H86.902L94.0285 2.51904H95.5507L88.1474 11.7562Z" fill="#E34612"/>
<path d="M100.67 22.2199C99.079 22.2199 97.7644 21.7147 96.7957 20.6323C95.8271 19.5498 95.3428 18.1065 95.3428 16.3745C95.3428 13.8487 95.9655 11.7559 97.2109 10.0961C98.4563 8.4363 100.048 7.57031 102.123 7.57031C103.645 7.57031 104.891 8.14764 105.86 9.23012C106.828 10.3126 107.313 11.7559 107.313 13.56C107.313 16.0858 106.69 18.1786 105.444 19.8384C104.199 21.4261 102.608 22.2199 100.67 22.2199ZM100.67 21.0653C101.985 21.0653 103.092 20.5601 104.061 19.5498C105.029 18.5395 105.583 17.2405 105.79 15.6528L106.067 13.3436C106.067 11.9724 105.721 10.8178 104.96 9.95177C104.268 9.08579 103.3 8.65279 102.123 8.65279C100.809 8.65279 99.6325 9.15795 98.6639 10.0961C97.6952 11.0343 97.1417 12.3332 96.9341 13.8487L96.6574 16.3023C96.6574 17.7456 97.0033 18.9003 97.7644 19.7663C98.4563 20.6323 99.4249 21.0653 100.67 21.0653Z" fill="#E34612"/>
<path d="M122.88 22.2199C121.289 22.2199 119.974 21.7147 119.005 20.6323C118.037 19.5498 117.552 18.1065 117.552 16.3745C117.552 13.8487 118.175 11.7559 119.421 10.0961C120.666 8.4363 122.257 7.57031 124.333 7.57031C125.855 7.57031 127.101 8.14764 128.069 9.23012C129.038 10.3126 129.522 11.7559 129.522 13.56C129.522 16.0858 128.9 18.1786 127.654 19.8384C126.478 21.4261 124.887 22.2199 122.88 22.2199ZM122.88 21.0653C124.195 21.0653 125.302 20.5601 126.27 19.5498C127.239 18.5395 127.793 17.2405 128 15.6528L128.277 13.3436C128.277 11.9724 127.931 10.8178 127.17 9.95177C126.409 9.08579 125.509 8.65279 124.333 8.65279C123.018 8.65279 121.842 9.15795 120.874 10.0961C119.905 11.0343 119.351 12.3332 119.144 13.8487L118.867 16.3023C118.867 17.7456 119.213 18.9003 119.974 19.7663C120.666 20.6323 121.635 21.0653 122.88 21.0653Z" fill="#E34612"/>
<path d="M148.688 7.85889C149.31 9.44653 149.656 11.3228 149.656 13.4156C149.656 16.0858 149.103 18.1786 148.065 19.8384C147.027 21.426 145.643 22.292 143.983 22.292C142.253 22.292 141.077 21.6425 140.316 20.2714C139.486 21.6425 138.379 22.292 136.856 22.292C135.473 22.292 134.366 21.859 133.535 20.9208C132.705 20.0549 132.221 18.828 132.221 17.3847C132.221 15.2198 132.636 12.1167 133.535 7.93105H134.85C133.95 12.0445 133.535 15.0754 133.535 16.9517V17.3847C133.535 18.4672 133.812 19.4054 134.435 20.0549C135.057 20.7043 135.888 21.0652 136.856 21.0652C138.24 21.0652 139.209 20.3435 139.832 18.9002C139.762 18.4672 139.693 18.0342 139.693 17.6012C139.693 15.2198 140.108 11.9723 141.008 7.85889H142.322C141.423 12.1888 141.008 15.2919 141.008 17.2404V17.6734C141.008 17.8899 141.008 18.0342 141.008 18.1786L141.077 18.2507V18.3229V18.3951C141.215 19.1889 141.492 19.8384 141.976 20.3435C142.461 20.8487 143.153 21.0652 143.983 21.0652C145.228 21.0652 146.266 20.4157 147.096 19.1167C147.857 17.8177 148.342 16.0136 148.411 13.8486V12.8383C148.411 11.1063 148.065 9.44653 147.442 7.93105L148.688 7.85889Z" fill="#E34612"/>
<path d="M163.218 22.2203C161.626 22.2203 160.381 21.643 159.481 20.5605C158.513 19.478 158.028 17.9625 158.028 16.1584C158.028 13.6326 158.651 11.612 159.827 9.95216C161.003 8.36452 162.595 7.49854 164.532 7.49854C165.708 7.49854 166.677 7.7872 167.369 8.43669C168.061 9.08618 168.407 9.88 168.407 10.9625C168.407 11.1068 168.407 11.3233 168.338 11.612H167.161C167.161 11.4676 167.161 11.3233 167.161 11.0346C167.161 10.2408 166.885 9.6635 166.4 9.23051C165.916 8.79751 165.224 8.58102 164.463 8.58102C163.218 8.58102 162.11 9.08618 161.211 10.0243C160.312 10.9625 159.758 12.2615 159.55 13.7769L159.205 16.3027C159.205 17.746 159.55 18.9007 160.312 19.7667C161.073 20.6327 161.972 21.0656 163.218 21.0656C164.74 21.0656 165.985 20.4883 166.885 19.3337L167.646 20.1997C166.539 21.5708 165.086 22.2203 163.218 22.2203Z" fill="#E34612"/>
<path d="M178.439 23.447C176.986 22.4367 174.772 21.9315 171.797 21.9315H168.891L169.029 20.7769L178.439 8.86959H170.828L170.967 7.78711H179.961L179.823 8.86959L170.344 20.7769H171.797C174.91 20.7769 177.194 21.2821 178.854 22.3645L178.439 23.447Z" fill="#E34612"/>
<path d="M153.6 21.9313C152.978 21.9313 152.632 21.6427 152.632 21.0653C152.632 20.921 152.632 20.7045 152.701 20.3437L154.361 7.78689H155.538L153.739 20.7767H156.091L155.883 21.9313H153.6ZM155.814 3.1683C155.538 3.1683 155.33 3.09613 155.261 2.9518C155.122 2.80747 155.122 2.66314 155.122 2.51881C155.122 2.44664 155.122 2.37447 155.122 2.30231C155.122 2.23014 155.122 2.15798 155.192 2.01365C155.261 1.79715 155.33 1.65282 155.468 1.50849C155.607 1.36416 155.814 1.29199 156.16 1.29199C156.437 1.29199 156.645 1.36416 156.714 1.50849C156.783 1.65282 156.852 1.79715 156.852 1.94148C156.852 2.01365 156.852 2.15798 156.783 2.44664C156.714 2.66314 156.645 2.80747 156.506 2.9518C156.368 3.09613 156.16 3.1683 155.814 3.1683Z" fill="#E34612"/>
<path d="M111.672 22.2203C111.049 22.2203 110.703 21.9316 110.634 21.3543C110.634 21.2821 110.634 21.1378 110.634 20.9935C110.634 20.8491 110.634 20.777 110.703 20.6326L112.502 9.23048H109.942L110.08 8.29233H111.879C112.225 8.29233 112.433 8.22017 112.571 8.07584C112.709 7.9315 112.779 7.71501 112.848 7.35418L113.401 3.9624H114.578L113.886 8.29233H116.999L116.861 9.23048H113.747L111.879 21.0656H114.785L114.439 22.2203H111.672Z" fill="#E34612"/>
</svg>
