<svg width="150" height="36" viewBox="0 0 150 36" fill="none" xmlns="http://www.w3.org/2000/svg">
<path d="M19.6498 12.6633C19.3299 12.9777 19.3299 13.4906 19.6443 13.8106C19.9587 14.1305 20.4716 14.1305 20.786 13.8216C21.1059 13.5072 21.1059 12.9942 20.7971 12.6743C20.4827 12.3544 19.9697 12.3489 19.6498 12.6633Z" fill="#FFFAE9"/>
<path d="M33.2243 13.7174C31.3821 11.4339 28.685 9.99987 25.7617 9.74615C25.6734 9.49794 25.5024 8.97396 25.4362 8.75333C25.3701 8.54925 25.3535 8.4941 25.3425 8.46652C24.9784 7.4737 24.5096 6.51949 23.9415 5.63147C23.0204 4.23602 21.8235 3.04464 20.428 2.13455C19.0877 1.26308 17.5985 0.628784 16.0376 0.275782C15.1496 0.093766 14.245 0 13.3404 0C6.25283 0.00551565 0.511039 5.7473 0.500008 12.8404C0.494492 17.9369 3.51155 22.5535 8.1833 24.5998V24.6329V24.6825C8.19433 24.7597 8.19985 24.8425 8.19985 24.9197C8.20537 25.0796 8.19433 25.2396 8.17779 25.394C8.08954 25.9732 7.87994 26.5303 7.56555 27.0212C7.40008 27.3025 7.21806 27.5727 7.0195 27.8375L6.84852 28.0691L7.30631 28.4056C8.11712 29.0068 9.10441 29.3267 10.1138 29.3267C10.8584 29.3267 11.592 29.1502 12.2594 28.8193C14.5539 32.8622 18.8285 35.3718 23.4727 35.4049C30.5603 35.3994 36.3076 29.6576 36.3186 22.5645C36.3462 19.3434 35.2541 16.216 33.2243 13.7174ZM9.46845 23.9545L9.39123 23.6015L9.05478 23.4636C4.70845 21.7261 1.86237 17.5177 1.87892 12.8404C1.88443 6.51398 7.01398 1.38994 13.3349 1.37891C16.9311 1.39546 20.3122 3.08325 22.4854 5.94587C23.2631 7.11518 23.8919 8.38378 24.3441 9.71305H11.7464L11.7685 10.0219C11.785 10.215 11.8126 10.4025 11.8567 10.59C12.2483 12.4433 13.7045 13.8884 15.5577 14.2579C15.0006 15.4273 13.8203 16.1774 12.5186 16.1774H11.8291V24.0537H25.9271V17.5784H28.4809L26.2415 11.1912C31.2166 11.9193 34.9121 16.7179 34.9121 22.559C34.9066 28.8854 29.7771 34.0095 23.4506 34.015C19.0546 33.9984 15.0503 31.4833 13.1308 27.5341L12.7668 26.784L12.0994 27.2749C11.5203 27.7051 10.8198 27.9368 10.0972 27.9368C9.63392 27.9368 9.17612 27.843 8.7459 27.6555C9.49603 26.5799 9.75526 25.2341 9.46845 23.9545ZM24.5537 16.1995V22.6803H13.2136V17.5177C14.5373 17.3191 15.7177 16.569 16.4623 15.4604L16.4843 15.5652L16.8374 14.7985C16.8704 14.7213 16.9035 14.644 16.9366 14.5668L16.9477 14.5448C17.0856 14.1862 17.1904 13.8167 17.2565 13.4416L17.3062 13.1328L16.9918 13.1107C16.5009 13.0721 16.0155 12.9838 15.5412 12.8404C15.497 12.8294 15.4474 12.8128 15.3978 12.7963C15.3481 12.7798 15.3095 12.7687 15.2985 12.7577C14.5042 12.4543 13.8534 11.8642 13.4783 11.103H24.7468L26.5339 16.1995H24.5537Z" fill="#FFFAE9"/>
<path d="M51.3874 14.291C50.9793 14.0538 50.4773 13.938 49.8817 13.938C49.286 13.938 48.7675 14.0814 48.3207 14.3682C47.874 14.655 47.5154 15.0577 47.2397 15.5761H47.19V10.761H45.7339V22.3273H47.19V17.5783C47.19 17.0929 47.2783 16.6627 47.4548 16.2877C47.6313 15.9126 47.8795 15.6258 48.1994 15.4272C48.5193 15.2287 48.8944 15.1294 49.3246 15.1294C49.9534 15.1404 50.4112 15.3279 50.7035 15.692C50.9958 16.056 51.1392 16.6462 51.1392 17.4625V22.3273H52.5954V17.2143C52.5954 16.4642 52.4961 15.8464 52.2975 15.3666C52.0989 14.8867 51.7956 14.5282 51.3874 14.291Z" fill="#FFFAE9"/>
<path d="M61.1006 21.2023C61.0785 21.1472 61.0675 21.0589 61.0675 20.9376V16.685C61.0675 15.8025 60.8193 15.1241 60.3229 14.6498C59.8264 14.1754 59.0322 13.9382 57.9401 13.9382C57.2231 13.9382 56.6274 14.043 56.1641 14.2416C55.6952 14.4457 55.3422 14.7545 55.1106 15.1682C54.8789 15.5819 54.741 16.1114 54.6969 16.7622H56.0537C56.1199 16.1224 56.2964 15.6701 56.5832 15.3999C56.8701 15.1296 57.3279 14.9917 57.9566 14.9917C58.5523 14.9917 58.9881 15.1296 59.2638 15.3999C59.5396 15.6701 59.6775 16.0673 59.6775 16.5802C59.6775 16.845 59.6334 17.0435 59.5507 17.1704C59.4679 17.2973 59.2914 17.4021 59.0156 17.4738C58.7399 17.551 58.2876 17.6447 57.6588 17.7551C56.8756 17.8543 56.2578 18.0033 55.8055 18.2018C55.3533 18.4004 55.0223 18.6596 54.8238 18.9685C54.6197 19.2829 54.5094 19.6966 54.5038 20.204C54.4928 20.9541 54.6969 21.5167 55.1216 21.8808C55.5463 22.2503 56.2082 22.4323 57.1127 22.4323C57.6422 22.4323 58.1331 22.3165 58.5854 22.0848C59.0377 21.8532 59.3852 21.5443 59.6279 21.1582H59.7272V21.5388L59.7437 21.5553C59.7547 21.8201 59.8264 22.0131 59.9588 22.1345C60.0912 22.2558 60.3173 22.3165 60.6372 22.3165H61.6466V21.3733C61.4701 21.3733 61.3377 21.3568 61.255 21.3237C61.1778 21.3016 61.1226 21.2575 61.1006 21.2023ZM59.6775 19.3325C59.6775 19.7407 59.5893 20.0937 59.4128 20.3915C59.2363 20.6894 58.9881 20.921 58.6682 21.092C58.3482 21.263 57.9787 21.3513 57.5595 21.3513C56.9859 21.3513 56.5722 21.2465 56.3185 21.0369C56.0648 20.8273 55.9324 20.5074 55.9214 20.0771C55.9324 19.8234 55.9986 19.6028 56.1199 19.4153C56.2413 19.2277 56.4454 19.0678 56.7322 18.9299C57.019 18.792 57.4216 18.6872 57.9401 18.61C58.0835 18.5769 58.2214 18.5493 58.3538 18.5383C58.4861 18.5217 58.6185 18.4942 58.7509 18.4666C58.9605 18.4225 59.137 18.3783 59.2859 18.3342C59.4348 18.2901 59.5617 18.2404 59.6775 18.1853V19.3325Z" fill="#FFFAE9"/>
<path d="M65.8167 14.4073C65.3754 14.6997 65.0335 15.1134 64.7908 15.6429H64.7246L64.526 14.0543H63.3843V22.3444H64.8239V17.827C64.8239 17.2314 64.9397 16.7405 65.1714 16.3544C65.403 15.9683 65.6953 15.687 66.0428 15.5105C66.3903 15.334 66.7654 15.2457 67.1735 15.2457C67.3942 15.2457 67.6368 15.2678 67.9016 15.3119V13.9882C67.692 13.9551 67.4879 13.944 67.2894 13.9551C66.7488 13.9661 66.2579 14.115 65.8167 14.4073Z" fill="#FFFAE9"/>
<path d="M74.8012 14.1366L74.8177 15.4934H74.735C74.4813 15.0191 74.1173 14.644 73.654 14.3682C73.1851 14.0924 72.6556 13.9545 72.071 13.9545C71.4422 13.9545 70.8796 14.0869 70.3942 14.3462C69.9033 14.6054 69.5062 15.0466 69.2139 15.6699C68.916 16.2932 68.7671 17.1371 68.7671 18.1961C68.7671 19.2441 68.916 20.0824 69.2139 20.7112C69.5117 21.34 69.9033 21.7868 70.3942 22.0515C70.8851 22.3163 71.4477 22.4486 72.071 22.4486C72.4791 22.4486 72.8597 22.3769 73.2182 22.2335C73.5767 22.0901 73.8911 21.8916 74.1724 21.6378C74.4482 21.3841 74.6633 21.0697 74.8177 20.6947H74.9005L75.0494 22.3273H76.2408V10.761H74.8012V14.1366ZM74.4813 19.9666C74.2662 20.4134 73.9849 20.7388 73.6374 20.9429C73.2899 21.147 72.9038 21.2462 72.4902 21.2462C72.0599 21.2462 71.6794 21.1525 71.3429 20.9705C71.0064 20.7884 70.7417 20.474 70.5486 20.0218C70.3556 19.5695 70.2618 18.9572 70.2618 18.185C70.2618 17.4129 70.3611 16.8006 70.5597 16.3483C70.7582 15.8961 71.023 15.5817 71.365 15.3996C71.7014 15.2176 72.0765 15.1239 72.4957 15.1239C72.9038 15.1239 73.2844 15.2231 73.6374 15.4272C73.9904 15.6313 74.2717 15.9567 74.4868 16.4145C74.7019 16.8668 74.8067 17.4625 74.8067 18.2016C74.8012 18.9352 74.6964 19.5198 74.4813 19.9666Z" fill="#FFFAE9"/>
<path d="M84.1338 15.0801V14.0376H78.1107V15.1793H82.468L78.061 21.3017V22.3442H84.1503V21.2024H79.7433L84.1338 15.0801Z" fill="#FFFAE9"/>
<path d="M87.4929 11.2078H85.9209V12.6804H87.4929V11.2078Z" fill="#FFFAE9"/>
<path d="M87.4103 14.0542H85.9707V22.3277H87.4103V14.0542Z" fill="#FFFAE9"/>
<path d="M94.7186 14.3188C94.2056 14.0651 93.5934 13.9382 92.8929 13.9382C92.1979 13.9382 91.5857 14.0761 91.0562 14.3464C90.5267 14.6167 90.0964 15.0634 89.771 15.6922C89.4456 16.321 89.2856 17.1649 89.2856 18.2239C89.2856 19.2277 89.4401 20.0496 89.7545 20.6839C90.0689 21.3182 90.4881 21.7705 91.0176 22.0407C91.5471 22.311 92.1648 22.4489 92.8708 22.4489C93.8305 22.4489 94.5972 22.2227 95.1764 21.7705C95.7555 21.3182 96.1195 20.6563 96.2795 19.7848H94.9061C94.7627 20.3033 94.5365 20.7059 94.2221 20.9817C93.9078 21.263 93.4555 21.4064 92.8708 21.4064C92.4406 21.4064 92.0655 21.3071 91.7456 21.1086C91.4257 20.91 91.172 20.5791 90.9845 20.1158C90.819 19.7131 90.7363 19.1726 90.7142 18.5107H96.3788V17.8599C96.3788 16.9222 96.2298 16.161 95.932 15.5764C95.6342 14.9917 95.2315 14.5725 94.7186 14.3188ZM91.7291 15.2785C92.049 15.08 92.4351 14.9807 92.8874 14.9807C93.3066 14.9807 93.6706 15.0689 93.9795 15.2454C94.2883 15.4219 94.531 15.7032 94.7075 16.0949C94.873 16.4589 94.9557 16.9277 94.9668 17.4958H90.7363C90.7749 17.027 90.8521 16.6188 90.9789 16.2989C91.161 15.8136 91.4092 15.4771 91.7291 15.2785Z" fill="#FFFAE9"/>
<path d="M99.7536 11.2078H98.1816V12.6804H99.7536V11.2078Z" fill="#FFFAE9"/>
<path d="M98.248 23.337C98.248 23.7342 98.1818 24.0044 98.0495 24.1478C97.9171 24.2912 97.6965 24.3629 97.3876 24.3629H96.9077V25.4716H97.7516C98.2039 25.4716 98.5734 25.4054 98.8603 25.262C99.1471 25.1241 99.3567 24.9035 99.5001 24.6001C99.638 24.2968 99.7097 23.8996 99.7097 23.4198V14.0542H98.2535V23.337H98.248Z" fill="#FFFAE9"/>
<path d="M111.199 18.1632C110.808 17.9702 110.256 17.7937 109.539 17.6282C108.855 17.4958 108.342 17.3634 108.006 17.2366C107.669 17.1097 107.449 16.9663 107.344 16.8119C107.239 16.6574 107.184 16.4589 107.184 16.2162C107.184 15.808 107.355 15.4992 107.697 15.284C108.039 15.0689 108.486 14.9641 109.037 14.9641C109.567 14.9641 109.991 15.08 110.311 15.3116C110.631 15.5433 110.791 15.8908 110.791 16.3541H112.098C112.098 15.5819 111.845 14.9862 111.332 14.567C110.819 14.1478 110.069 13.9382 109.07 13.9382C108.088 13.9382 107.294 14.1478 106.688 14.567C106.081 14.9862 105.777 15.5874 105.777 16.3706C105.777 16.7788 105.855 17.1208 106.009 17.3965C106.164 17.6723 106.434 17.9095 106.814 18.1025C107.195 18.2956 107.735 18.4666 108.447 18.61C109.131 18.7534 109.644 18.8968 109.986 19.0292C110.328 19.1671 110.559 19.3215 110.692 19.487C110.819 19.6524 110.879 19.8676 110.879 20.1323C110.879 20.5184 110.714 20.8273 110.383 21.0589C110.052 21.2906 109.578 21.4064 108.96 21.4064C108.353 21.4064 107.89 21.2906 107.57 21.0479C107.25 20.8107 107.074 20.4357 107.041 19.9172H105.7C105.7 20.4688 105.816 20.9321 106.048 21.3071C106.279 21.6822 106.632 21.969 107.107 22.1565C107.581 22.3496 108.193 22.4489 108.943 22.4489C110.002 22.4489 110.813 22.2338 111.381 21.798C111.949 21.3623 112.231 20.7445 112.231 19.9503C112.231 19.509 112.159 19.1505 112.005 18.8747C111.861 18.5934 111.591 18.3563 111.199 18.1632Z" fill="#FFFAE9"/>
<path d="M116.383 11.8037H115.126C115.104 12.5428 115.06 13.0613 114.988 13.3481C114.916 13.6404 114.778 13.8335 114.585 13.9217C114.387 14.01 114.028 14.0651 113.51 14.0872V15.1462H114.933V20.1599C114.933 20.6784 115.005 21.0976 115.153 21.4175C115.302 21.7374 115.528 21.969 115.832 22.1125C116.135 22.2559 116.538 22.3276 117.029 22.3276H118.237V21.2189H117.492C117.216 21.2189 117.001 21.1748 116.841 21.0921C116.681 21.0093 116.565 20.8714 116.494 20.6729C116.422 20.4743 116.383 20.1985 116.383 19.8455V15.1462H118.286V14.0541H116.383V11.8037Z" fill="#FFFAE9"/>
<path d="M125.468 18.6542C125.468 19.1838 125.374 19.6471 125.192 20.0442C125.01 20.4413 124.756 20.7392 124.431 20.9377C124.105 21.1363 123.73 21.2356 123.311 21.2356C122.66 21.2356 122.197 21.0425 121.91 20.6564C121.629 20.2703 121.491 19.6581 121.491 18.8197V14.0542H120.035V19.1838C120.035 20.3089 120.255 21.1363 120.697 21.6603C121.138 22.1843 121.833 22.4435 122.781 22.4435C123.377 22.4435 123.907 22.2891 124.37 21.9802C124.833 21.6713 125.197 21.2521 125.462 20.7226H125.528L125.683 22.3277H126.924V14.0542H125.468V18.6542Z" fill="#FFFAE9"/>
<path d="M134.851 14.1366L134.867 15.4934H134.784C134.531 15.0191 134.167 14.644 133.703 14.3682C133.234 14.0924 132.705 13.9545 132.12 13.9545C131.491 13.9545 130.929 14.0869 130.444 14.3462C129.953 14.6054 129.556 15.0466 129.263 15.6699C128.965 16.2932 128.816 17.1371 128.816 18.1961C128.816 19.2441 128.965 20.0824 129.263 20.7112C129.561 21.34 129.953 21.7868 130.444 22.0515C130.934 22.3163 131.497 22.4486 132.12 22.4486C132.528 22.4486 132.909 22.3769 133.268 22.2335C133.626 22.0901 133.94 21.8916 134.222 21.6378C134.498 21.3841 134.713 21.0697 134.867 20.6947H134.95L135.099 22.3328H136.29V10.761H134.851V14.1366ZM134.531 19.9666C134.316 20.4134 134.034 20.7388 133.687 20.9429C133.339 21.147 132.953 21.2462 132.539 21.2462C132.109 21.2462 131.729 21.1525 131.392 20.9705C131.056 20.7884 130.791 20.474 130.598 20.0218C130.405 19.5695 130.311 18.9572 130.311 18.185C130.311 17.4129 130.41 16.8006 130.609 16.3483C130.808 15.8961 131.072 15.5817 131.414 15.3996C131.751 15.2176 132.126 15.1239 132.545 15.1239C132.953 15.1239 133.334 15.2231 133.687 15.4272C134.04 15.6313 134.321 15.9567 134.536 16.4145C134.751 16.8668 134.856 17.4625 134.856 18.2016C134.851 18.9352 134.746 19.5198 134.531 19.9666Z" fill="#FFFAE9"/>
<path d="M140.013 11.2078H138.441V12.6804H140.013V11.2078Z" fill="#FFFAE9"/>
<path d="M139.93 14.0542H138.491V22.3277H139.93V14.0542Z" fill="#FFFAE9"/>
<path d="M148.877 15.6979C148.563 15.0746 148.127 14.6279 147.576 14.3576C147.024 14.0873 146.362 13.955 145.59 13.955C144.829 13.955 144.167 14.0928 143.604 14.3686C143.042 14.6444 142.601 15.0912 142.281 15.7089C141.961 16.3267 141.801 17.1485 141.801 18.1744C141.801 19.1893 141.961 20.0167 142.281 20.6565C142.601 21.2963 143.042 21.7541 143.604 22.0243C144.167 22.2946 144.829 22.427 145.59 22.427C146.362 22.427 147.024 22.2891 147.576 22.0133C148.127 21.7375 148.563 21.2908 148.877 20.6675C149.192 20.0442 149.346 19.2169 149.346 18.1744C149.346 17.1485 149.192 16.3212 148.877 15.6979ZM147.587 20.0277C147.394 20.491 147.123 20.8219 146.781 21.015C146.439 21.208 146.042 21.3018 145.59 21.3018C145.138 21.3018 144.741 21.208 144.399 21.015C144.057 20.8219 143.786 20.491 143.588 20.0277C143.389 19.5644 143.29 18.9466 143.29 18.1744C143.29 17.4022 143.389 16.79 143.588 16.3377C143.786 15.8854 144.057 15.5655 144.399 15.3725C144.741 15.1794 145.138 15.0857 145.59 15.0857C146.042 15.0857 146.439 15.1794 146.781 15.3725C147.123 15.5655 147.388 15.8909 147.587 16.3377C147.78 16.79 147.874 17.4022 147.874 18.1744C147.874 18.9466 147.78 19.5644 147.587 20.0277Z" fill="#FFFAE9"/>
</svg>
