<svg width="219" height="52" viewBox="0 0 219 52" fill="none" xmlns="http://www.w3.org/2000/svg">
<path d="M28.9805 18.5285C28.5124 18.9885 28.5124 19.739 28.9724 20.2071C29.4324 20.6751 30.1829 20.6751 30.6429 20.2232C31.111 19.7632 31.111 19.0127 30.659 18.5446C30.1991 18.0766 29.4485 18.0685 28.9805 18.5285Z" fill="#E34612"/>
<path d="M48.8406 20.0701C46.1452 16.7291 42.199 14.6309 37.9219 14.2597C37.7928 13.8966 37.5426 13.1299 37.4457 12.8071C37.3489 12.5085 37.3247 12.4278 37.3086 12.3875C36.7759 10.9349 36.09 9.53876 35.2588 8.23949C33.9111 6.19777 32.1599 4.45465 30.1182 3.1231C28.1572 1.84803 25.9782 0.919982 23.6944 0.403501C22.3952 0.13719 21.0717 0 19.7482 0C9.37822 0.00807002 0.977333 8.40896 0.961193 18.787C0.953123 26.2437 5.36742 32.9983 12.2027 35.9923V36.0407V36.1133C12.2189 36.2263 12.2269 36.3474 12.2269 36.4603C12.235 36.6944 12.2189 36.9284 12.1947 37.1544C12.0655 38.0017 11.7589 38.8168 11.2989 39.535C11.0568 39.9466 10.7905 40.342 10.5 40.7294L10.2498 41.0683L10.9196 41.5606C12.1059 42.4402 13.5504 42.9083 15.0272 42.9083C16.1167 42.9083 17.19 42.65 18.1665 42.1658C21.5236 48.0812 27.7779 51.753 34.5728 51.8014C44.9428 51.7934 53.3517 43.3925 53.3679 33.0144C53.4082 28.3016 51.8104 23.7259 48.8406 20.0701ZM14.083 35.0481L13.9701 34.5316L13.4778 34.3299C7.11862 31.7878 2.95449 25.6304 2.9787 18.787C2.98677 9.53069 10.4919 2.03364 19.7401 2.0175C25.0018 2.04171 29.9487 4.51114 33.1283 8.69948C34.2662 10.4103 35.1861 12.2664 35.8479 14.2113H17.416L17.4482 14.6632C17.4724 14.9457 17.5128 15.2201 17.5774 15.4944C18.1503 18.206 20.2808 20.3203 22.9923 20.861C22.1773 22.5718 20.4503 23.6694 18.5458 23.6694H17.537V35.1934H38.164V25.7191H41.9004L38.624 16.3741C45.9031 17.4393 51.31 24.4602 51.31 33.0064C51.302 42.2627 43.7968 49.7597 34.5405 49.7678C28.1087 49.7436 22.2499 46.0637 19.4415 40.2855L18.9089 39.188L17.9324 39.9062C17.0851 40.5357 16.0602 40.8746 15.003 40.8746C14.3251 40.8746 13.6553 40.7375 13.0259 40.4631C14.1234 38.8894 14.5027 36.9203 14.083 35.0481ZM36.1545 23.7016V33.1839H19.5626V25.6304C21.4994 25.3399 23.2264 24.2423 24.3158 22.6203L24.3481 22.7736L24.8646 21.6519C24.913 21.5389 24.9614 21.4259 25.0098 21.3129L25.026 21.2806C25.2277 20.7561 25.3811 20.2154 25.4779 19.6666L25.5505 19.2147L25.0905 19.1824C24.3723 19.1259 23.6622 18.9968 22.9681 18.787C22.9036 18.7709 22.8309 18.7467 22.7583 18.7224C22.6857 18.6982 22.6292 18.6821 22.6131 18.666C21.451 18.2221 20.4987 17.3586 19.9499 16.2449H36.437L39.0517 23.7016H36.1545Z" fill="#E34612"/>
<path d="M75.4148 20.9094C74.8177 20.5624 74.0833 20.393 73.2117 20.393C72.3402 20.393 71.5816 20.6028 70.9279 21.0224C70.2742 21.4421 69.7497 22.0312 69.3462 22.7898H69.2736V15.7446H67.1431V32.6675H69.2736V25.7192C69.2736 25.009 69.4027 24.3795 69.6609 23.8308C69.9192 23.282 70.2823 22.8624 70.7504 22.5719C71.2184 22.2813 71.7672 22.1361 72.3966 22.1361C73.3166 22.1522 73.9864 22.4266 74.4142 22.9592C74.8419 23.4918 75.0517 24.3553 75.0517 25.5497V32.6675H77.1822V25.1866C77.1822 24.089 77.0369 23.1852 76.7464 22.4831C76.4559 21.781 76.012 21.2565 75.4148 20.9094Z" fill="#E34612"/>
<path d="M89.6265 31.0208C89.5942 30.9401 89.5781 30.811 89.5781 30.6334V24.4114C89.5781 23.1202 89.2149 22.1276 88.4886 21.4336C87.7623 20.7396 86.6002 20.3926 85.0024 20.3926C83.9533 20.3926 83.0817 20.5459 82.4038 20.8364C81.7179 21.135 81.2014 21.5869 80.8624 22.1922C80.5235 22.7974 80.3218 23.5722 80.2572 24.5244H82.2424C82.3393 23.5883 82.5975 22.9266 83.0171 22.5311C83.4368 22.1357 84.1066 21.934 85.0266 21.934C85.8981 21.934 86.5357 22.1357 86.9392 22.5311C87.3427 22.9266 87.5444 23.5076 87.5444 24.2581C87.5444 24.6455 87.4799 24.936 87.3588 25.1216C87.2378 25.3072 86.9795 25.4605 86.576 25.5655C86.1725 25.6784 85.5108 25.8156 84.5908 25.977C83.4449 26.1223 82.541 26.3402 81.8793 26.6307C81.2175 26.9212 80.7333 27.3005 80.4428 27.7524C80.1442 28.2124 79.9828 28.8177 79.9747 29.5601C79.9586 30.6576 80.2572 31.4808 80.8786 32.0134C81.5 32.5541 82.4684 32.8204 83.7919 32.8204C84.5666 32.8204 85.2848 32.6509 85.9466 32.312C86.6083 31.9731 87.1167 31.5211 87.4718 30.9562H87.617V31.5131L87.6413 31.5373C87.6574 31.9246 87.7623 32.2071 87.956 32.3846C88.1497 32.5622 88.4805 32.6509 88.9486 32.6509H90.4254V31.271C90.1672 31.271 89.9735 31.2468 89.8524 31.1983C89.7395 31.1661 89.6588 31.1015 89.6265 31.0208ZM87.5444 28.2851C87.5444 28.8822 87.4153 29.3987 87.1571 29.8345C86.8988 30.2703 86.5357 30.6092 86.0676 30.8594C85.5995 31.1096 85.0589 31.2387 84.4455 31.2387C83.6063 31.2387 83.001 31.0854 82.6298 30.7787C82.2586 30.472 82.0649 30.004 82.0487 29.3745C82.0649 29.0033 82.1617 28.6805 82.3393 28.4061C82.5168 28.1317 82.8154 27.8977 83.235 27.6959C83.6547 27.4942 84.2438 27.3409 85.0024 27.2279C85.2122 27.1795 85.4139 27.1391 85.6076 27.123C85.8013 27.0988 85.995 27.0584 86.1887 27.0181C86.4953 26.9535 86.7536 26.8889 86.9714 26.8244C87.1893 26.7598 87.375 26.6872 87.5444 26.6065V28.2851Z" fill="#E34612"/>
<path d="M96.5262 21.0789C95.8806 21.5066 95.3802 22.1119 95.0251 22.8866H94.9283L94.6378 20.5624H92.9673V32.6917H95.0736V26.0823C95.0736 25.2108 95.243 24.4925 95.582 23.9276C95.9209 23.3627 96.3486 22.9512 96.857 22.6929C97.3655 22.4347 97.9142 22.3056 98.5114 22.3056C98.8342 22.3056 99.1893 22.3378 99.5766 22.4024V20.4656C99.27 20.4172 98.9714 20.401 98.6809 20.4172C97.89 20.4333 97.1718 20.6512 96.5262 21.0789Z" fill="#E34612"/>
<path d="M109.672 20.6835L109.696 22.6687H109.575C109.204 21.9747 108.671 21.4259 107.993 21.0224C107.307 20.6189 106.533 20.4172 105.677 20.4172C104.757 20.4172 103.934 20.6108 103.224 20.9901C102.506 21.3694 101.925 22.015 101.497 22.9269C101.061 23.8389 100.843 25.0736 100.843 26.623C100.843 28.1563 101.061 29.383 101.497 30.3029C101.933 31.2229 102.506 31.8766 103.224 32.264C103.942 32.6513 104.765 32.845 105.677 32.845C106.274 32.845 106.831 32.7401 107.356 32.5303C107.88 32.3204 108.34 32.0299 108.752 31.6587C109.155 31.2875 109.47 30.8275 109.696 30.2787H109.817L110.035 32.6675H111.778V15.7446H109.672V20.6835ZM109.204 29.2135C108.889 29.8672 108.477 30.3433 107.969 30.6419C107.461 30.9405 106.896 31.0857 106.291 31.0857C105.661 31.0857 105.104 30.9485 104.612 30.6822C104.12 30.4159 103.732 29.9559 103.45 29.2942C103.167 28.6324 103.03 27.7367 103.03 26.6069C103.03 25.4771 103.175 24.5813 103.466 23.9196C103.757 23.2578 104.144 22.7978 104.644 22.5315C105.137 22.2652 105.685 22.128 106.299 22.128C106.896 22.128 107.453 22.2733 107.969 22.5719C108.486 22.8705 108.897 23.3466 109.212 24.0164C109.527 24.6781 109.68 25.5497 109.68 26.6311C109.672 27.7044 109.519 28.5598 109.204 29.2135Z" fill="#E34612"/>
<path d="M123.327 22.0633V20.5381H114.514V22.2086H120.889L114.441 31.1663V32.6915H123.351V31.021H116.903L123.327 22.0633Z" fill="#E34612"/>
<path d="M128.241 16.3984H125.941V18.5531H128.241V16.3984Z" fill="#E34612"/>
<path d="M128.12 20.5625H126.014V32.6675H128.12V20.5625Z" fill="#E34612"/>
<path d="M138.813 20.9494C138.062 20.5782 137.166 20.3926 136.142 20.3926C135.125 20.3926 134.229 20.5943 133.454 20.9898C132.68 21.3852 132.05 22.0389 131.574 22.9588C131.098 23.8788 130.864 25.1135 130.864 26.663C130.864 28.1317 131.09 29.3342 131.55 30.2622C132.01 31.1903 132.623 31.852 133.398 32.2474C134.172 32.6429 135.076 32.8446 136.109 32.8446C137.513 32.8446 138.635 32.5137 139.483 31.852C140.33 31.1903 140.863 30.2219 141.097 28.9468H139.087C138.877 29.7054 138.546 30.2945 138.086 30.698C137.626 31.1096 136.965 31.3194 136.109 31.3194C135.48 31.3194 134.931 31.1741 134.463 30.8836C133.995 30.5931 133.624 30.1089 133.349 29.431C133.107 28.8419 132.986 28.051 132.954 27.0826H141.242V26.1304C141.242 24.7585 141.024 23.6448 140.588 22.7894C140.152 21.9339 139.563 21.3206 138.813 20.9494ZM134.439 22.3536C134.907 22.0631 135.472 21.9178 136.133 21.9178C136.747 21.9178 137.279 22.0469 137.731 22.3052C138.183 22.5634 138.538 22.975 138.797 23.548C139.039 24.0806 139.16 24.7665 139.176 25.5977H132.986C133.043 24.9118 133.156 24.3146 133.341 23.8465C133.608 23.1364 133.971 22.6441 134.439 22.3536Z" fill="#E34612"/>
<path d="M146.181 16.3984H143.881V18.5531H146.181V16.3984Z" fill="#E34612"/>
<path d="M143.978 34.1443C143.978 34.7254 143.881 35.1208 143.687 35.3306C143.493 35.5405 143.171 35.6454 142.719 35.6454H142.017V37.2674H143.251C143.913 37.2674 144.454 37.1706 144.873 36.9608C145.293 36.759 145.6 36.4362 145.81 35.9924C146.011 35.5485 146.116 34.9675 146.116 34.2654V20.5625H143.986V34.1443H143.978Z" fill="#E34612"/>
<path d="M162.926 26.5742C162.353 26.2918 161.546 26.0335 160.497 25.7914C159.496 25.5977 158.746 25.4041 158.254 25.2184C157.761 25.0328 157.439 24.823 157.285 24.5971C157.132 24.3711 157.051 24.0806 157.051 23.7255C157.051 23.1283 157.301 22.6764 157.802 22.3617C158.302 22.0469 158.956 21.8936 159.763 21.8936C160.537 21.8936 161.159 22.0631 161.627 22.402C162.095 22.741 162.329 23.2494 162.329 23.9272H164.242C164.242 22.7974 163.87 21.9259 163.12 21.3126C162.369 20.6992 161.272 20.3926 159.811 20.3926C158.375 20.3926 157.213 20.6992 156.325 21.3126C155.437 21.9259 154.993 22.8055 154.993 23.9515C154.993 24.5486 155.106 25.049 155.332 25.4525C155.558 25.856 155.954 26.203 156.511 26.4854C157.067 26.7679 157.858 27.0181 158.899 27.2279C159.9 27.4377 160.65 27.6475 161.151 27.8412C161.651 28.043 161.99 28.2689 162.184 28.511C162.369 28.7531 162.458 29.0678 162.458 29.4552C162.458 30.0201 162.216 30.472 161.732 30.811C161.248 31.1499 160.554 31.3194 159.65 31.3194C158.762 31.3194 158.084 31.1499 157.616 30.7948C157.148 30.4478 156.89 29.8991 156.841 29.1405H154.88C154.88 29.9475 155.05 30.6254 155.389 31.1741C155.728 31.7229 156.244 32.1425 156.938 32.4169C157.632 32.6994 158.528 32.8446 159.626 32.8446C161.175 32.8446 162.361 32.5299 163.192 31.8924C164.024 31.2548 164.435 30.351 164.435 29.1889C164.435 28.5433 164.33 28.0187 164.104 27.6152C163.895 27.2037 163.499 26.8567 162.926 26.5742Z" fill="#E34612"/>
<path d="M170.512 17.27H168.672C168.64 18.3514 168.575 19.11 168.47 19.5296C168.365 19.9573 168.164 20.2398 167.881 20.3689C167.591 20.498 167.066 20.5787 166.308 20.611V22.1605H168.39V29.4961C168.39 30.2547 168.495 30.868 168.712 31.3361C168.93 31.8041 169.261 32.1431 169.705 32.3529C170.149 32.5627 170.738 32.6676 171.456 32.6676H173.224V31.0455H172.134C171.731 31.0455 171.416 30.981 171.182 30.8599C170.948 30.7389 170.778 30.5371 170.673 30.2466C170.569 29.9561 170.512 29.5526 170.512 29.0361V22.1605H173.296V20.5626H170.512V17.27Z" fill="#E34612"/>
<path d="M183.803 27.2929C183.803 28.0676 183.666 28.7455 183.4 29.3265C183.134 29.9076 182.762 30.3434 182.286 30.6339C181.81 30.9244 181.261 31.0697 180.648 31.0697C179.696 31.0697 179.018 30.7872 178.598 30.2223C178.187 29.6574 177.985 28.7616 177.985 27.535V20.5625H175.854V28.0676C175.854 29.7139 176.177 30.9244 176.823 31.6911C177.468 32.4577 178.485 32.837 179.873 32.837C180.745 32.837 181.52 32.611 182.198 32.1591C182.875 31.7072 183.408 31.0939 183.795 30.3192H183.892L184.118 32.6675H185.934V20.5625H183.803V27.2929Z" fill="#E34612"/>
<path d="M197.53 20.6835L197.554 22.6687H197.433C197.062 21.9747 196.53 21.4259 195.852 21.0224C195.166 20.6189 194.391 20.4172 193.536 20.4172C192.616 20.4172 191.792 20.6108 191.082 20.9901C190.364 21.3694 189.783 22.015 189.355 22.9269C188.92 23.8389 188.702 25.0736 188.702 26.623C188.702 28.1563 188.92 29.383 189.355 30.3029C189.791 31.2229 190.364 31.8766 191.082 32.264C191.801 32.6513 192.624 32.845 193.536 32.845C194.133 32.845 194.69 32.7401 195.214 32.5303C195.739 32.3204 196.199 32.0299 196.61 31.6587C197.014 31.2875 197.328 30.8275 197.554 30.2787H197.676L197.893 32.6755H199.637V15.7446H197.53V20.6835ZM197.062 29.2135C196.747 29.8672 196.336 30.3433 195.827 30.6419C195.319 30.9405 194.754 31.0857 194.149 31.0857C193.519 31.0857 192.963 30.9485 192.47 30.6822C191.978 30.4159 191.591 29.9559 191.308 29.2942C191.026 28.6324 190.889 27.7367 190.889 26.6069C190.889 25.4771 191.034 24.5813 191.324 23.9196C191.615 23.2578 192.002 22.7978 192.503 22.5315C192.995 22.2652 193.544 22.128 194.157 22.128C194.754 22.128 195.311 22.2733 195.827 22.5719C196.344 22.8705 196.756 23.3466 197.07 24.0164C197.385 24.6781 197.538 25.5497 197.538 26.6311C197.53 27.7044 197.377 28.5598 197.062 29.2135Z" fill="#E34612"/>
<path d="M205.084 16.3984H202.784V18.5531H205.084V16.3984Z" fill="#E34612"/>
<path d="M204.963 20.5625H202.856V32.6675H204.963V20.5625Z" fill="#E34612"/>
<path d="M218.053 22.9671C217.593 22.0552 216.955 21.4015 216.148 21.0061C215.341 20.6107 214.373 20.417 213.243 20.417C212.129 20.417 211.161 20.6187 210.338 21.0222C209.515 21.4257 208.869 22.0794 208.401 22.9833C207.933 23.8871 207.699 25.0895 207.699 26.5906C207.699 28.0754 207.933 29.2859 208.401 30.2221C208.869 31.1582 209.515 31.828 210.338 32.2234C211.161 32.6189 212.129 32.8125 213.243 32.8125C214.373 32.8125 215.341 32.6108 216.148 32.2073C216.955 31.8038 217.593 31.1501 218.053 30.2382C218.513 29.3263 218.739 28.1158 218.739 26.5906C218.739 25.0895 218.513 23.879 218.053 22.9671ZM216.164 29.3021C215.882 29.98 215.486 30.4642 214.986 30.7466C214.486 31.0291 213.905 31.1663 213.243 31.1663C212.581 31.1663 212 31.0291 211.5 30.7466C210.999 30.4642 210.604 29.98 210.313 29.3021C210.023 28.6242 209.878 27.7204 209.878 26.5906C209.878 25.4608 210.023 24.565 210.313 23.9032C210.604 23.2415 210.999 22.7734 211.5 22.491C212 22.2085 212.581 22.0713 213.243 22.0713C213.905 22.0713 214.486 22.2085 214.986 22.491C215.486 22.7734 215.874 23.2496 216.164 23.9032C216.447 24.565 216.584 25.4608 216.584 26.5906C216.584 27.7204 216.447 28.6242 216.164 29.3021Z" fill="#E34612"/>
</svg>
