<svg width="156" height="47" viewBox="0 0 156 47" fill="none" xmlns="http://www.w3.org/2000/svg">
<path d="M79.0529 1.70675H154.902V46.0732H79.0529V1.70675ZM78.2383 46.9009H155.738V0.900879H78.2383V46.9009Z" fill="#E34612"/>
<path d="M90.5239 16.2339H89.7974V21.9839H90.5239V16.2339Z" fill="#E34612"/>
<path d="M96.1824 21.9839H94.8833L93.8706 18.9129L93.1 16.4299L93.122 16.9962C93.122 17.3665 93.144 17.7585 93.144 18.1506C93.144 18.5644 93.144 18.804 93.144 18.8911V21.9839H92.4395V16.2339H93.7385L94.7072 19.1742C95.0815 20.4157 95.3457 21.2869 95.4998 21.7879V21.1998C95.4998 20.8077 95.4778 20.3939 95.4778 19.9801C95.4778 19.5663 95.4778 19.3049 95.4778 19.196V16.2339H96.1824V21.9839Z" fill="#E34612"/>
<path d="M98.2742 16.6043C98.5824 16.3211 98.9787 16.1904 99.4631 16.1904C100.454 16.1904 101.158 16.7567 101.158 17.8022V17.9982H100.41V17.8022C100.41 17.1923 100.036 16.8656 99.4631 16.8656C98.9127 16.8656 98.5604 17.1705 98.5604 17.6715C98.5604 18.3685 99.5071 18.6952 100.278 19.0872C100.784 19.3704 101.202 19.8495 101.202 20.5029C101.202 21.4395 100.498 22.0493 99.4631 22.0493C98.9567 22.0493 98.5163 21.8969 98.1861 21.6137C97.8558 21.3306 97.6797 20.9168 97.6797 20.394V20.2198H98.4283V20.394C98.4283 21.0039 98.8466 21.3959 99.4851 21.3959C100.08 21.3959 100.476 21.091 100.476 20.5465C100.476 19.2615 97.8778 19.5446 97.8338 17.7151C97.8118 17.2359 97.9659 16.8874 98.2742 16.6043Z" fill="#E34612"/>
<path d="M105.254 16.9091H104.021V21.9839H103.272V16.9091H102.039V16.2339H105.254V16.9091Z" fill="#E34612"/>
<path d="M109.481 16.2339L107.984 20.1979V21.9621H107.235V20.1979L105.738 16.2339H106.53L107.103 17.8674C107.433 18.7604 107.609 19.2831 107.609 19.4138C107.631 19.2396 107.807 18.7386 108.116 17.8674L108.688 16.2339H109.481Z" fill="#E34612"/>
<path d="M113.245 16.9091H111.99V21.9839H111.242V16.9091H110.009V16.2339H113.245V16.9091Z" fill="#E34612"/>
<path d="M117.055 16.2339H117.803V20.3721C117.803 20.8731 117.649 21.2651 117.341 21.5701C117.011 21.875 116.614 22.0274 116.108 22.0274C115.602 22.0274 115.183 21.875 114.875 21.5701C114.545 21.2651 114.391 20.8731 114.391 20.3721V16.2339H115.139V20.3721C115.139 20.9384 115.491 21.3305 116.108 21.3305C116.702 21.3305 117.077 20.9602 117.077 20.3721V16.2339H117.055Z" fill="#E34612"/>
<path d="M122.162 16.9091H120.907V21.9839H120.181V16.9091H118.926V16.2339H122.162V16.9091Z" fill="#E34612"/>
<path d="M91.4487 30.914C92.1533 30.914 92.5275 30.5873 92.5275 30.0428V29.8685C92.5275 29.2805 92.1753 28.9973 91.4487 28.9973H90.502V30.914H91.4487ZM91.3386 28.3439C92.0432 28.3439 92.3734 28.0608 92.3734 27.4945V27.2984C92.3734 26.7757 92.0211 26.4926 91.4267 26.4926H90.4799V28.3439H91.3386ZM93.2541 29.8685V30.0645C93.2541 30.9575 92.6156 31.5674 91.5148 31.5674H89.7754V25.8174H91.4487C92.5275 25.8174 93.122 26.3837 93.122 27.2549V27.4509C93.122 28.1043 92.7918 28.5181 92.3294 28.627C92.8798 28.7142 93.2541 29.1498 93.2541 29.8685Z" fill="#E34612"/>
<path d="M95.5879 26.4926V28.627H96.4686C97.1291 28.627 97.4373 28.3003 97.4373 27.6905V27.4291C97.4373 26.7975 97.1071 26.4926 96.4466 26.4926H95.5879ZM97.5914 31.5674L96.5787 29.324C96.5566 29.324 96.2044 29.324 95.5879 29.324V31.5674H94.8613V25.8174H96.4686C97.5474 25.8174 98.1859 26.449 98.1859 27.4509V27.6905C98.1859 28.4092 97.8777 28.9102 97.3272 29.128L98.4721 31.5674H97.5914Z" fill="#E34612"/>
<path d="M100.454 29.5636H101.929L101.709 28.5617C101.4 27.2331 101.224 26.4055 101.18 26.057C101.18 26.1005 101.07 26.6233 100.916 27.4291C100.828 27.843 100.74 28.2132 100.674 28.5835L100.454 29.5636ZM100.013 31.5674H99.2646L100.586 25.8174H101.863L103.162 31.5674H102.413L102.127 30.2388H100.343L100.013 31.5674Z" fill="#E34612"/>
<path d="M108.226 31.5672H106.927L105.936 28.4962L105.165 26.0132L105.187 26.5795C105.187 26.9498 105.209 27.3418 105.209 27.7339C105.209 28.1259 105.209 28.3873 105.209 28.4744V31.5672H104.505V25.8172H105.804L106.773 28.7575C107.147 29.999 107.411 30.8702 107.565 31.3712V30.7831C107.565 30.3911 107.543 29.9772 107.543 29.5634C107.543 29.1496 107.543 28.8882 107.543 28.7793V25.7954H108.248V31.5672H108.226Z" fill="#E34612"/>
<path d="M110.824 30.8922H111.792C112.409 30.8922 112.761 30.5219 112.761 29.9556V27.4509C112.761 26.8846 112.409 26.5144 111.792 26.5144H110.824V30.8922ZM110.097 31.5674V25.8174H111.792C112.299 25.8174 112.717 25.9698 113.025 26.2748C113.334 26.5797 113.488 26.9717 113.488 27.4509V29.9556C113.488 30.4348 113.334 30.8051 113.025 31.11C112.717 31.4149 112.299 31.5674 111.792 31.5674H110.097Z" fill="#E34612"/>
<path d="M116.02 25.8174H115.271V31.5674H116.02V25.8174Z" fill="#E34612"/>
<path d="M121.656 31.5672H120.357L119.366 28.4962L118.596 26.0132L118.618 26.5795C118.618 26.9498 118.64 27.3418 118.64 27.7339C118.64 28.1259 118.64 28.3873 118.64 28.4744V31.5672H117.935V25.8172H119.234L120.203 28.7575C120.577 29.999 120.841 30.8702 120.995 31.3712V30.7831C120.995 30.3911 120.973 29.9772 120.973 29.5634C120.973 29.1496 120.973 28.8882 120.973 28.7793V25.7954H121.678V31.5672H121.656Z" fill="#E34612"/>
<path d="M125.201 29.1496V28.4962H126.808V29.9337C126.808 31.0009 126.104 31.6325 125.113 31.6325C124.078 31.6325 123.417 31.0227 123.417 29.9119V27.4943C123.417 26.9715 123.594 26.5577 123.902 26.2528C124.232 25.9479 124.628 25.7954 125.135 25.7954C126.17 25.7954 126.83 26.427 126.83 27.5161V27.6903H126.082V27.4725C126.082 26.8191 125.751 26.4706 125.135 26.4706C124.54 26.4706 124.166 26.8191 124.166 27.4725V29.9337C124.166 30.5871 124.518 30.9356 125.135 30.9356C125.751 30.9356 126.126 30.6089 126.126 29.9337V29.1496H125.201Z" fill="#E34612"/>
<path d="M129.186 29.9772C129.186 30.5435 129.538 30.9356 130.155 30.9356C130.749 30.9356 131.124 30.5653 131.124 29.9772V27.4289C131.124 26.8626 130.771 26.4706 130.155 26.4706C129.56 26.4706 129.186 26.8409 129.186 27.4289V29.9772ZM128.438 27.4289C128.438 26.928 128.592 26.5359 128.922 26.2528C129.23 25.9479 129.648 25.7954 130.155 25.7954C131.168 25.7954 131.85 26.4488 131.85 27.4289V29.9772C131.85 30.4782 131.696 30.8702 131.388 31.1534C131.08 31.4583 130.661 31.6108 130.155 31.6108C129.648 31.6108 129.23 31.4583 128.922 31.1534C128.592 30.8484 128.438 30.4564 128.438 29.9772V27.4289Z" fill="#E34612"/>
<path d="M135.549 31.5674H134.25L133.083 25.8174H133.832L134.492 29.1062C134.492 29.1715 134.536 29.3022 134.58 29.5418C134.624 29.7814 134.668 30.021 134.712 30.2823C134.756 30.5219 134.8 30.7833 134.844 31.0011C134.888 31.2407 134.91 31.3496 134.91 31.3496C134.932 31.0882 135.043 30.3477 135.263 29.128L135.835 25.8174H137.112L137.685 29.128L138.037 31.3278L138.433 29.128L139.094 25.8174H139.842L138.675 31.5674H137.398L136.848 28.4092C136.826 28.2568 136.76 27.843 136.65 27.146C136.54 26.4708 136.474 26.1005 136.474 26.057C136.474 26.057 136.43 26.4272 136.32 27.1242C136.209 27.8212 136.143 28.2568 136.121 28.3875L135.549 31.5674Z" fill="#E34612"/>
<path d="M144.223 25.8174L142.726 29.7814V31.5456H141.978V29.7814L140.48 25.8174H141.273L141.846 27.4509C142.176 28.3439 142.33 28.8666 142.352 28.9973C142.374 28.8231 142.55 28.3221 142.858 27.4509L143.431 25.8174H144.223Z" fill="#E34612"/>
<path d="M43.3416 17.0181H41.5142V24.0749H42.2627C44.3764 24.0749 46.512 23.6611 46.512 20.5465C46.534 18.0853 45.5873 17.0181 43.3416 17.0181Z" fill="#E34612"/>
<path d="M27.3568 24.0752H25.7056V30.8271H27.3789C29.6246 30.8271 30.7254 29.7163 30.7254 27.4294C30.7254 25.2296 29.5585 24.0752 27.3568 24.0752Z" fill="#E34612"/>
<path d="M30.219 20.1983C30.219 18.0638 29.2283 16.9966 27.2468 16.9966H25.7056V23.4436H27.0926C29.2283 23.4218 30.219 22.3981 30.219 20.1983Z" fill="#E34612"/>
<path d="M55.561 25.5559H60.5149L57.9829 18.7822L55.561 25.5559Z" fill="#E34612"/>
<path d="M60.7567 31.4804L62.2539 30.1518L60.8008 26.2967H55.3185L54.0195 29.9558L56.2653 31.4804H45.9173L46.864 30.3914L43.2312 24.7721H41.5138V30.0647L42.989 31.4804H36.516L37.9911 30.0647V17.7588L36.516 16.3431H43.6055C47.7227 16.3431 50.0785 17.846 50.0785 20.4814C50.0785 22.202 48.8675 23.5524 46.6438 24.2711L46.5117 24.3147L50.3427 30.0429C50.6289 30.4785 51.1353 30.7399 51.6637 30.7399C52.3242 30.7399 52.9187 30.3261 53.1609 29.7162L57.5643 17.7371L57.0359 16.3649H60.6467L66.0629 30.2172L67.516 31.524H60.7567V31.4804ZM27.1587 31.4804H20.7077L22.1829 30.0647V17.7588L20.7077 16.3431H27.2688C31.8484 16.3431 33.896 17.4975 33.896 20.1111C33.896 22.202 32.1126 23.1603 30.6154 23.6177L30.2631 23.7266L30.6374 23.8138C33.1474 24.3583 34.4244 25.5562 34.4244 27.3422C34.4023 30.1518 32.1126 31.4804 27.1587 31.4804ZM17.8896 31.4804H11.4165L12.8917 30.0429V17.7806L11.4165 16.3431H17.8896L16.4144 17.7806V30.0429L17.8896 31.4804ZM0.738281 46.9009H78.2383V0.900879H0.738281V46.9009Z" fill="#E34612"/>
</svg>
