<svg width="120" height="37" viewBox="0 0 120 37" fill="none" xmlns="http://www.w3.org/2000/svg">
<path d="M60.5239 1.22565H118.756V35.9472H60.5239V1.22565ZM59.8984 36.595H119.398V0.594971H59.8984V36.595Z" fill="#FFFAE9"/>
<path d="M69.3307 12.595H68.7729V17.095H69.3307V12.595Z" fill="#FFFAE9"/>
<path d="M73.6749 17.095H72.6776L71.9 14.6916L71.3084 12.7484L71.3253 13.1916C71.3253 13.4813 71.3422 13.7882 71.3422 14.095C71.3422 14.4188 71.3422 14.6063 71.3422 14.6745V17.095H70.8013V12.595H71.7986L72.5423 14.8961C72.8297 15.8677 73.0325 16.5495 73.1508 16.9416V16.4813C73.1508 16.1745 73.1339 15.8507 73.1339 15.5268C73.1339 15.2029 73.1339 14.9984 73.1339 14.9132V12.595H73.6749V17.095Z" fill="#FFFAE9"/>
<path d="M75.2806 12.8848C75.5173 12.6632 75.8215 12.5609 76.1934 12.5609C76.9541 12.5609 77.495 13.0041 77.495 13.8223V13.9757H76.9203V13.8223C76.9203 13.345 76.6329 13.0893 76.1934 13.0893C75.7708 13.0893 75.5004 13.328 75.5004 13.72C75.5004 14.2655 76.2272 14.5211 76.8189 14.828C77.2076 15.0496 77.5288 15.4246 77.5288 15.9359C77.5288 16.6689 76.9879 17.1461 76.1934 17.1461C75.8046 17.1461 75.4666 17.0268 75.213 16.8052C74.9595 16.5836 74.8242 16.2598 74.8242 15.8507V15.7143H75.3989V15.8507C75.3989 16.328 75.7201 16.6348 76.2103 16.6348C76.6667 16.6348 76.971 16.3961 76.971 15.97C76.971 14.9643 74.9764 15.1859 74.9425 13.7541C74.9256 13.3791 75.044 13.1064 75.2806 12.8848Z" fill="#FFFAE9"/>
<path d="M80.6388 13.1234H79.6922V17.095H79.1175V13.1234H78.1709V12.595H80.6388V13.1234Z" fill="#FFFAE9"/>
<path d="M83.8843 12.595L82.7349 15.6972V17.0779H82.1602V15.6972L81.0107 12.595H81.6193L82.0588 13.8734C82.3123 14.5722 82.4475 14.9813 82.4475 15.0836C82.4644 14.9472 82.5997 14.5552 82.8363 13.8734L83.2758 12.595H83.8843Z" fill="#FFFAE9"/>
<path d="M86.7748 13.1234H85.8113V17.095H85.2366V13.1234H84.29V12.595H86.7748V13.1234Z" fill="#FFFAE9"/>
<path d="M89.6991 12.595H90.2738V15.8336C90.2738 16.2257 90.1555 16.5325 89.9189 16.7711C89.6653 17.0097 89.3611 17.1291 88.9723 17.1291C88.5835 17.1291 88.2623 17.0097 88.0257 16.7711C87.7721 16.5325 87.6538 16.2257 87.6538 15.8336V12.595H88.2285V15.8336C88.2285 16.2768 88.499 16.5836 88.9723 16.5836C89.4287 16.5836 89.716 16.2938 89.716 15.8336V12.595H89.6991Z" fill="#FFFAE9"/>
<path d="M93.6206 13.1234H92.6571V17.095H92.0992V13.1234H91.1357V12.595H93.6206V13.1234Z" fill="#FFFAE9"/>
<path d="M70.0405 24.0837C70.5814 24.0837 70.8688 23.828 70.8688 23.4019V23.2655C70.8688 22.8053 70.5984 22.5837 70.0405 22.5837H69.3137V24.0837H70.0405ZM69.956 22.0724C70.4969 22.0724 70.7505 21.8508 70.7505 21.4076V21.2542C70.7505 20.8451 70.48 20.6235 70.0236 20.6235H69.2968V22.0724H69.956ZM71.4266 23.2655V23.419C71.4266 24.1178 70.9364 24.5951 70.0912 24.5951H68.7559V20.0951H70.0405C70.8688 20.0951 71.3252 20.5383 71.3252 21.2201V21.3735C71.3252 21.8849 71.0717 22.2087 70.7167 22.294C71.1393 22.3621 71.4266 22.703 71.4266 23.2655Z" fill="#FFFAE9"/>
<path d="M73.2185 20.6235V22.294H73.8946C74.4017 22.294 74.6383 22.0383 74.6383 21.561V21.3565C74.6383 20.8621 74.3848 20.6235 73.8777 20.6235H73.2185ZM74.7567 24.5951L73.9791 22.8394C73.9622 22.8394 73.6918 22.8394 73.2185 22.8394V24.5951H72.6606V20.0951H73.8946C74.7229 20.0951 75.2131 20.5894 75.2131 21.3735V21.561C75.2131 22.1235 74.9764 22.5155 74.5538 22.686L75.4328 24.5951H74.7567Z" fill="#FFFAE9"/>
<path d="M76.9538 23.0269H78.0863L77.9173 22.2428C77.6807 21.203 77.5454 20.5553 77.5116 20.2826C77.5116 20.3167 77.4271 20.7258 77.3088 21.3565C77.2412 21.6803 77.1736 21.9701 77.1228 22.2599L76.9538 23.0269ZM76.6157 24.5951H76.041L77.0552 20.0951H78.0356L79.0329 24.5951H78.4582L78.2385 23.5553H76.8693L76.6157 24.5951Z" fill="#FFFAE9"/>
<path d="M82.9211 24.595H81.9238L81.1632 22.1916L80.5716 20.2485L80.5885 20.6916C80.5885 20.9814 80.6054 21.2882 80.6054 21.595C80.6054 21.9019 80.6054 22.1064 80.6054 22.1746V24.595H80.0645V20.095H81.0618L81.8055 22.3962C82.0929 23.3678 82.2957 24.0496 82.414 24.4416V23.9814C82.414 23.6746 82.3971 23.3507 82.3971 23.0269C82.3971 22.703 82.3971 22.4985 82.3971 22.4132V20.078H82.938V24.595H82.9211Z" fill="#FFFAE9"/>
<path d="M84.9157 24.0667H85.6595C86.1328 24.0667 86.4032 23.7769 86.4032 23.3337V21.3735C86.4032 20.9303 86.1328 20.6405 85.6595 20.6405H84.9157V24.0667ZM84.3579 24.5951V20.0951H85.6595C86.0482 20.0951 86.3694 20.2144 86.6061 20.453C86.8427 20.6917 86.961 20.9985 86.961 21.3735V23.3337C86.961 23.7087 86.8427 23.9985 86.6061 24.2371C86.3694 24.4758 86.0482 24.5951 85.6595 24.5951H84.3579Z" fill="#FFFAE9"/>
<path d="M88.9048 20.095H88.3301V24.595H88.9048V20.095Z" fill="#FFFAE9"/>
<path d="M93.2322 24.595H92.2349L91.4742 22.1916L90.8826 20.2485L90.8995 20.6916C90.8995 20.9814 90.9164 21.2882 90.9164 21.595C90.9164 21.9019 90.9164 22.1064 90.9164 22.1746V24.595H90.3755V20.095H91.3728L92.1165 22.3962C92.4039 23.3678 92.6067 24.0496 92.7251 24.4416V23.9814C92.7251 23.6746 92.7082 23.3507 92.7082 23.0269C92.7082 22.703 92.7082 22.4985 92.7082 22.4132V20.078H93.2491V24.595H93.2322Z" fill="#FFFAE9"/>
<path d="M95.9532 22.703V22.1916H97.1871V23.3166C97.1871 24.1519 96.6462 24.6462 95.8856 24.6462C95.0911 24.6462 94.584 24.1689 94.584 23.2996V21.4075C94.584 20.9985 94.7192 20.6746 94.9559 20.436C95.2094 20.1973 95.5137 20.078 95.9025 20.078C96.6969 20.078 97.204 20.5723 97.204 21.4246V21.561H96.6293V21.3905C96.6293 20.8791 96.3757 20.6064 95.9025 20.6064C95.4461 20.6064 95.1587 20.8791 95.1587 21.3905V23.3166C95.1587 23.828 95.4292 24.1007 95.9025 24.1007C96.3757 24.1007 96.6631 23.845 96.6631 23.3166V22.703H95.9532Z" fill="#FFFAE9"/>
<path d="M99.0127 23.3507C99.0127 23.7939 99.2832 24.1007 99.7565 24.1007C100.213 24.1007 100.5 23.811 100.5 23.3507V21.3564C100.5 20.9132 100.23 20.6064 99.7565 20.6064C99.3001 20.6064 99.0127 20.8962 99.0127 21.3564V23.3507ZM98.438 21.3564C98.438 20.9644 98.5563 20.6575 98.8099 20.436C99.0465 20.1973 99.3677 20.078 99.7565 20.078C100.534 20.078 101.058 20.5894 101.058 21.3564V23.3507C101.058 23.7428 100.94 24.0496 100.703 24.2712C100.466 24.5098 100.145 24.6291 99.7565 24.6291C99.3677 24.6291 99.0465 24.5098 98.8099 24.2712C98.5563 24.0325 98.438 23.7257 98.438 23.3507V21.3564Z" fill="#FFFAE9"/>
<path d="M103.898 24.5951H102.901L102.005 20.0951H102.58L103.087 22.669C103.087 22.7201 103.121 22.8224 103.154 23.0099C103.188 23.1974 103.222 23.3849 103.256 23.5894C103.29 23.7769 103.323 23.9815 103.357 24.1519C103.391 24.3394 103.408 24.4246 103.408 24.4246C103.425 24.2201 103.509 23.6405 103.678 22.686L104.118 20.0951H105.098L105.538 22.686L105.808 24.4076L106.112 22.686L106.62 20.0951H107.194L106.298 24.5951H105.318L104.895 22.1235C104.878 22.0042 104.828 21.6803 104.743 21.1349C104.659 20.6065 104.608 20.3167 104.608 20.2826C104.608 20.2826 104.574 20.5724 104.49 21.1178C104.405 21.6633 104.354 22.0042 104.338 22.1065L103.898 24.5951Z" fill="#FFFAE9"/>
<path d="M110.558 20.0951L109.409 23.1974V24.578H108.834V23.1974L107.685 20.0951H108.293L108.733 21.3735C108.986 22.0724 109.104 22.4815 109.121 22.5837C109.138 22.4474 109.274 22.0553 109.51 21.3735L109.95 20.0951H110.558Z" fill="#FFFAE9"/>
<path d="M33.1066 13.2087H31.7036V18.7315H32.2783C33.9011 18.7315 35.5407 18.4076 35.5407 15.9701C35.5576 14.044 34.8307 13.2087 33.1066 13.2087Z" fill="#FFFAE9"/>
<path d="M20.8346 18.7314H19.5669V24.0155H20.8515C22.5757 24.0155 23.4209 23.1462 23.4209 21.3564C23.4209 19.6349 22.525 18.7314 20.8346 18.7314Z" fill="#FFFAE9"/>
<path d="M23.0321 15.6973C23.0321 14.0269 22.2714 13.1917 20.7501 13.1917H19.5669V18.2371H20.6318C22.2714 18.2201 23.0321 17.4189 23.0321 15.6973Z" fill="#FFFAE9"/>
<path d="M42.4878 19.8905H46.2911L44.3472 14.5894L42.4878 19.8905Z" fill="#FFFAE9"/>
<path d="M46.4771 24.5268L47.6266 23.487L46.5109 20.47H42.302L41.3047 23.3336L43.0288 24.5268H35.0842L35.8111 23.6745L33.022 19.2768H31.7036V23.4188L32.8361 24.5268H27.8665L28.999 23.4188V13.7882L27.8665 12.6802H33.3094C36.4703 12.6802 38.279 13.8563 38.279 15.9188C38.279 17.2654 37.3493 18.3222 35.642 18.8847L35.5406 18.9188L38.4818 23.4018C38.7016 23.7427 39.0903 23.9472 39.496 23.9472C40.0031 23.9472 40.4595 23.6234 40.6455 23.1461L44.0261 13.7711L43.6205 12.6972H46.3926L50.5509 23.5382L51.6665 24.5609H46.4771V24.5268ZM20.6825 24.5268H15.7298L16.8624 23.4188V13.7882L15.7298 12.6802H20.767C24.283 12.6802 25.855 13.5836 25.855 15.6291C25.855 17.2654 24.4858 18.0154 23.3364 18.3734L23.0659 18.4586L23.3533 18.5268C25.2803 18.9529 26.2607 19.8904 26.2607 21.2882C26.2437 23.487 24.4858 24.5268 20.6825 24.5268ZM13.5662 24.5268H8.59659L9.72912 23.4018V13.8052L8.59659 12.6802H13.5662L12.4337 13.8052V23.4018L13.5662 24.5268ZM0.398438 36.595H59.8984V0.594971H0.398438V36.595Z" fill="#FFFAE9"/>
</svg>
