<svg width="162" height="162" viewBox="0 0 162 162" fill="none" xmlns="http://www.w3.org/2000/svg">
<path d="M81.5237 22.0553C48.2162 22.0553 22.9517 47.4065 22.9517 81.2979C22.9517 114.542 48.2162 139.639 81.5237 139.639C115.085 139.639 140.35 114.671 140.35 81.2979C140.35 47.4065 115.08 22.0553 81.5237 22.0553ZM81.5237 134.332C51.1513 134.332 28.184 111.437 28.184 81.1684C28.184 50.3811 51.1513 27.3567 81.5237 27.3567C112.15 27.3567 135.117 50.3811 135.117 81.1684C135.117 111.567 112.145 134.332 81.5237 134.332Z" fill="#FF5100"/>
<path d="M110.947 69.861C110.947 82.5003 103.402 88.1696 86.699 88.1696H65.4378V110.256H59.5002V51.4642H86.699C103.402 51.4642 110.947 57.1335 110.947 69.861ZM86.3568 83.1999C99.2431 83.1999 104.844 79.8885 104.844 69.861C104.844 60.0096 98.9942 56.522 86.3568 56.522H65.4326V83.1999H86.3568Z" fill="#FF5100"/>
<path d="M99.9225 110.225C101.953 110.225 103.599 108.58 103.599 106.551C103.599 104.522 101.953 102.877 99.9225 102.877C97.8919 102.877 96.2458 104.522 96.2458 106.551C96.2458 108.58 97.8919 110.225 99.9225 110.225Z" fill="#FF5100"/>
<path d="M23.0657 113.479L11.7454 124.771L10.2831 121.133L17.5637 114.132L19.0261 112.754L19.0105 112.712L16.9674 112.764L6.99537 112.945L5.51746 109.266L12.9589 102.369L14.3434 101.094L14.3279 101.052L12.4144 101.073L2.20901 101.037L0.762207 97.4404L16.7548 97.7721L18.3727 101.804L11.4032 108.323L9.99787 109.608L10.0134 109.65L11.9114 109.587L21.4582 109.479L23.0657 113.479Z" fill="white"/>
<path d="M15.277 86.0707L9.71274 86.3506L0.974904 94.5539L0.762292 90.346L6.88137 84.6404L6.87618 84.5316L0.212612 79.4686L0 75.2866L9.54161 82.5935L15.0851 82.3136L15.277 86.0707Z" fill="white"/>
<path d="M14.9761 73.333L0.694824 69.7832L2.8365 61.1808C4.29367 55.3197 7.25468 53.0292 12.124 54.2367C16.9934 55.4493 18.575 58.8695 17.1074 64.7513L14.9761 73.333ZM13.0678 69.0007L14.0842 64.9171C15.1473 60.6574 14.385 58.8177 11.1854 58.0196C8.06883 57.2423 6.47165 58.5016 5.40859 62.7613L4.3922 66.8501L13.0678 69.0007Z" fill="white"/>
<path d="M19.9857 49.1892L25.3269 39.8664L27.7641 41.2605L19.9649 54.8792L17.9529 53.7288L14.9141 39.7421L9.62989 48.9663L7.19263 47.5723L14.9815 33.9795L16.9728 35.1196L19.9857 49.1892Z" fill="white"/>
<path d="M29.7656 39.3845L18.575 29.8338L21.0226 26.968L32.2132 36.5188L29.7656 39.3845Z" fill="white"/>
<path d="M45.8725 24.719L42.8596 23.3198L35.3093 29.1238L35.8641 32.4041L32.8772 34.6998L30.2688 18.1531L33.7328 15.4895L49.015 22.2989L45.8725 24.719ZM34.8477 26.3306L40.3082 22.1331L34.7337 19.5316L33.7899 19.1067L33.6861 19.1896L33.8365 20.226L34.8477 26.3306Z" fill="white"/>
<path d="M53.8479 17.5313L64.1777 13.5825L65.2149 16.2876L51.364 21.5786L49.4193 16.5001L47.7962 17.8112L46.8732 15.3963L48.4859 14.0644L46.1057 7.84065L49.6268 6.49329L51.5558 11.5304L57.1823 6.8975L58.1572 9.38494L52.4944 13.9919L53.8479 17.5313Z" fill="white"/>
<path d="M98.1543 5.13554C98.1439 8.45731 95.9504 10.1415 91.4025 10.126L85.2679 10.1052L85.2523 14.7174L81.5083 14.7018L81.5602 0L91.4388 0.0310931C95.9867 0.0466396 98.1698 1.75158 98.1543 5.13554ZM90.9669 7.51934C93.3524 7.5297 94.3791 6.81974 94.3895 5.12517C94.3947 3.47724 93.3472 2.73619 90.9877 2.73101L85.299 2.71028L85.2835 7.50379L90.9669 7.51934Z" fill="white"/>
<path d="M100.929 9.45226C102.754 5.19251 107.016 3.83996 113.11 6.44141C119.218 9.05323 121.127 13.0435 119.301 17.3033C117.476 21.563 113.27 22.9415 107.162 20.3296C101.069 17.7282 99.1032 13.712 100.929 9.45226ZM115.708 15.7693C116.973 12.8207 115.516 10.4991 112.01 9.00141C108.443 7.47785 105.777 8.03234 104.517 10.9862C103.309 13.8156 104.647 16.2305 108.256 17.7748C111.761 19.2725 114.499 18.5988 115.708 15.7693Z" fill="white"/>
<path d="M122.879 25.7866L131.394 32.8706L129.538 35.0989L118.145 25.6156L127.562 14.3132L130.44 16.7074L122.879 25.7866Z" fill="white"/>
<path d="M134.806 33.8137L136.927 36.9023C135.595 38.1149 135.994 39.8406 137.892 42.5923C139.837 45.4218 141.289 45.7223 142.191 45.1056C143.109 44.4734 142.984 43.5044 140.355 39.3638C137.301 34.5651 137.114 32.4767 139.339 30.9531C141.579 29.414 144.664 30.0825 148.134 35.1351C151.11 39.4726 151.463 42.499 149.145 44.5252L147.102 41.5507C148.082 40.6904 147.895 39.084 145.93 36.2182C144.161 33.6479 142.798 33.1504 141.838 33.8085C140.936 34.4252 141.123 35.4046 143.778 39.5866C146.92 44.5149 146.951 46.4116 144.763 47.9092C142.429 49.5105 139.23 48.8679 135.87 43.9811C132.597 39.2187 132.089 36.1612 134.806 33.8137Z" fill="white"/>
<path d="M161.103 65.0933L161.061 65.1089L151.903 58.5379L147.138 69.5915L147.096 69.607L145.681 65.2384L149.3 56.6671L147.029 55.014L142.808 56.3821L141.651 52.8219L155.653 48.2927L156.804 51.8529L150.353 53.9413L159.583 60.4397L161.103 65.0933Z" fill="white"/>
<path d="M146.759 71.6384L161.378 69.9697L161.803 73.7113L147.184 75.3799L146.759 71.6384Z" fill="white"/>
<path d="M155.352 78.7276C160.501 79.2458 162.456 83.5885 161.907 89.0453C161.321 94.8338 158.909 97.6374 155.129 97.9897L155.523 94.1083C157.743 93.6834 158.821 91.8437 159.137 88.7603C159.464 85.5473 158.204 82.9303 154.963 82.6039C151.701 82.2722 149.964 84.5835 149.637 87.8016C149.337 90.7502 150.047 92.8179 152.08 93.7611L151.686 97.6633C148.092 96.6061 146.277 93.2843 146.863 87.5217C147.418 82.0701 150.182 78.2042 155.352 78.7276Z" fill="white"/>
<path d="M153.272 117.972L151.769 121.403L138.286 115.506L139.79 112.075L145.245 114.459L149.357 105.069L143.902 102.685L145.406 99.2543L158.889 105.152L157.385 108.582L152.012 106.235L147.9 115.625L153.272 117.972Z" fill="white"/>
<path d="M29.0552 143.183L36.9737 130.788L41.0496 133.389L40.9718 143.779L40.9355 145.868L41.0133 145.914L42.9579 144.987L52.3336 140.577L56.3369 143.132L48.4184 155.527L45.3952 153.6L49.58 147.044L51.1772 144.707L51.0994 144.66L48.5636 145.899L39.8102 150.039L37.5389 148.588L37.6167 138.939L37.7204 136.125L37.6426 136.079L36.1699 138.468L31.9695 145.039L29.0552 143.183Z" fill="white"/>
<path d="M69.9596 161.15L69.0832 157.947L59.7802 155.916L57.6281 158.455L53.9463 157.652L64.9347 144.997L69.2025 145.93L73.8333 161.995L69.9596 161.15ZM61.6263 153.765L68.3572 155.237L66.7601 149.298L66.4748 148.303L66.3452 148.278L65.6503 149.06L61.6263 153.765Z" fill="white"/>
<path d="M91.9261 154.615C96.2354 154.874 94.073 158.44 95.8828 160.658L95.8932 160.813L92.0247 161.083C90.8734 159.352 92.4914 155.911 87.6843 156.248L82.5453 156.605L82.9031 161.72L79.1642 161.984L78.1375 147.314L88.5917 146.583C92.6417 146.298 94.799 147.733 94.9805 150.381C95.1412 152.651 93.8293 154.035 91.9158 154.506L91.9261 154.615ZM88.208 153.579C90.4534 153.423 91.4283 152.641 91.3194 151.128C91.2157 149.661 90.3238 149.076 87.9021 149.247L82.0526 149.656L82.3586 153.988L88.208 153.579Z" fill="white"/>
<path d="M112.238 142.821L101.582 146.526L102.738 149.853L112.508 146.453L113.322 148.791L103.552 152.19L104.792 155.745L115.448 152.04L116.262 154.377L102.069 159.31L97.231 145.422L111.424 140.489L112.238 142.821Z" fill="white"/>
<path d="M128.319 128.886L128.345 128.922L124.917 139.66L136.907 140.779L136.932 140.815L133.209 143.51L123.937 142.707L123.061 145.376L125.664 148.967L122.63 151.164L113.996 139.25L117.03 137.053L121.007 142.541L124.347 131.757L128.319 128.886Z" fill="white"/>
</svg>
