<svg width="184" height="183" fill="none" xmlns="http://www.w3.org/2000/svg"><path d="M90.357 151.721c30.72 0 49.92-13.28 49.92-36.32 0-22.88-17.44-34.72-43.68-34.72-20.32 0-35.04 8.16-42.88 15.68h-.8l4.32-42.72h80.32v-8.8h-89.28l-6.24 62.24h8.32c8.16-10.4 22.24-17.44 41.44-17.44 24.32 0 37.6 9.28 37.6 25.6 0 18.24-15.84 27.84-39.2 27.84-18.56 0-32.16-5.76-37.12-17.12h-10.88c3.52 15.84 21.44 25.76 48.16 25.76z" fill="#FEF5D9"/><circle cx="92" cy="91.5" r="89.5" stroke="#FEF5D9" stroke-width="4"/></svg>