<svg width="194" height="193" fill="none" xmlns="http://www.w3.org/2000/svg"><path d="M94.928 151.706c37.12 0 50.24-13.12 50.24-29.6 0-12-7.04-21.92-23.52-24.8v-.96c14.88-2.88 22.4-11.36 22.4-24 0-14.56-12.48-28.8-49.6-28.8-34.72 0-47.36 13.76-49.28 33.12h10.56c1.92-14.72 11.52-24.32 38.56-24.32 31.68 0 39.04 10.56 39.04 20.32 0 14.56-10.56 19.68-31.2 19.68h-20.16v8.8h20.16c25.12 0 32 8.8 32 20.48 0 11.2-10.08 21.28-39.36 21.28-28.32 0-39.2-8.64-40.32-24.64h-10.72c.96 21.6 14.88 33.44 51.2 33.44z" fill="#FEF5D9"/><circle cx="97" cy="96.5" r="94.5" stroke="#FEF5D9" stroke-width="4"/></svg>