<svg width="194" height="193" viewBox="0 0 194 193" fill="none" xmlns="http://www.w3.org/2000/svg">
<path d="M94.9283 151.706C132.048 151.706 145.168 138.586 145.168 122.106C145.168 110.106 138.128 100.186 121.648 97.3057V96.3457C136.528 93.4657 144.048 84.9857 144.048 72.3457C144.048 57.7857 131.568 43.5457 94.4483 43.5457C59.7283 43.5457 47.0883 57.3057 45.1683 76.6657H55.7283C57.6483 61.9457 67.2483 52.3457 94.2883 52.3457C125.968 52.3457 133.328 62.9057 133.328 72.6657C133.328 87.2257 122.768 92.3457 102.128 92.3457H81.9683V101.146H102.128C127.248 101.146 134.128 109.946 134.128 121.626C134.128 132.826 124.048 142.906 94.7683 142.906C66.4483 142.906 55.5683 134.266 54.4483 118.266H43.7283C44.6883 139.866 58.6083 151.706 94.9283 151.706Z" fill="#FEF5D9"/>
<circle cx="97" cy="96.5" r="94.5" stroke="#FEF5D9" stroke-width="4"/>
</svg>
