<svg width="184" height="183" viewBox="0 0 184 183" fill="none" xmlns="http://www.w3.org/2000/svg">
<path d="M90.3573 151.721C121.077 151.721 140.277 138.441 140.277 115.401C140.277 92.5215 122.837 80.6815 96.5973 80.6815C76.2773 80.6815 61.5573 88.8415 53.7173 96.3615H52.9173L57.2373 53.6415H137.557V44.8415H48.2773L42.0373 107.081H50.3573C58.5173 96.6815 72.5973 89.6415 91.7973 89.6415C116.117 89.6415 129.397 98.9215 129.397 115.241C129.397 133.481 113.557 143.081 90.1973 143.081C71.6373 143.081 58.0373 137.321 53.0773 125.961H42.1973C45.7173 141.801 63.6373 151.721 90.3573 151.721Z" fill="#FEF5D9"/>
<circle cx="92" cy="91.5" r="89.5" stroke="#FEF5D9" stroke-width="4"/>
</svg>
