<svg xmlns="http://www.w3.org/2000/svg" viewBox="0 0 229 35.4"><path d="M0 17.9C0 7.7 7.6 0 17.6 0c10.1 0 17.7 7.6 17.7 17.8 0 10-7.6 17.6-17.7 17.6C7.6 35.4 0 27.9 0 17.9zm33.7-.1c0-9.3-6.9-16.2-16.1-16.2-9.1 0-16 6.9-16 16.2 0 9.1 6.9 16 16 16 9.2 0 16.1-6.8 16.1-16zm-16.1 8.5V14H13v-1.6h1.6c2.3 0 3-.8 3.1-2.8v-.5h2.1v17.2h-2.2zm21.1-8.5C38.7 7.6 46.3 0 56.4 0s17.8 7.6 17.8 17.8c0 10-7.6 17.5-17.8 17.5-10.1 0-17.7-7.5-17.7-17.5zm33.8-.1c0-9.2-6.9-16.2-16.2-16.2-9.2 0-16.1 6.9-16.1 16.2 0 9.1 6.9 16 16.1 16 9.3 0 16.2-6.8 16.2-16zm-24 8.5v-1c0-7.4 13.8-6.8 13.8-11.5 0-1.7-1.3-3.1-5.3-3.1-4.2 0-6.4 1.4-6.4 4.9h-2.1c0-4.7 3.3-6.6 8.4-6.6 5.4 0 7.5 2 7.5 4.8 0 6-12.9 5.5-13.4 10.8v.1h13.3v1.7H48.5zm29-8.4C77.5 7.7 85 .1 95 .1c10.1 0 17.6 7.6 17.6 17.8 0 10-7.6 17.5-17.6 17.5-10-.1-17.5-7.6-17.5-17.6zm33.6 0c0-9.2-6.9-16.1-16.1-16.1-9.1 0-16 6.9-16 16.1 0 9.1 6.9 15.9 16 15.9 9.2.1 16.1-6.8 16.1-15.9zm-24.7.1c0-6.4 4.4-8.9 8.9-8.9 4.9 0 7.6 1.8 8.1 5.3h-2.1c-.5-2.2-2.3-3.5-6-3.5-4 0-7.3 2.5-6.7 8.4 1.1-2.1 3.8-3.6 7.5-3.6 5.2 0 7.6 2.1 7.6 5.2 0 3.3-3.1 5.7-8.3 5.7-6 0-9-2.8-9-8.6zm15.1 2.9c0-2.4-2-3.7-5.9-3.7-3.9 0-6.5 1.7-6.5 3.8 0 2.3 2.3 3.8 6.2 3.8 4 .1 6.2-1.5 6.2-3.9z" fill="#e34612"/><path d="M132.4 9.1c0 2.6-1.7 4-5.2 4h-4.7v3.7h-2.9V5.1h7.6c3.5 0 5.2 1.3 5.2 4zm-5.5 1.9c1.8 0 2.6-.6 2.6-1.9 0-1.3-.8-1.9-2.6-1.9h-4.4V11h4.4zm6.9-.1c0-3.7 2.6-6 7.7-6s7.7 2.3 7.7 6-2.6 6-7.7 6-7.7-2.3-7.7-6zm12.3 0c0-2.5-1.7-3.8-4.7-3.8s-4.7 1.2-4.7 3.8c0 2.4 1.7 3.8 4.7 3.8s4.7-1.3 4.7-3.8zm8 3.5h7.5v2.3h-10.4V5.1h2.9v9.3zm8.8-1.4h2.9c.2 1.4 1.5 1.9 4 1.9 2.6 0 3.5-.8 3.5-1.7 0-.9-.7-1.2-4.4-1.4-4.4-.2-5.8-1-5.8-3.1 0-2.2 1.8-3.9 6.5-3.9 4.1 0 6.1 1.1 6.4 3.5h-2.8c-.1-1-1.2-1.6-3.9-1.6-2.4 0-3.3.7-3.3 1.6 0 .9.7 1.2 4.5 1.3 4.5.2 5.7 1 5.7 3.1 0 2.2-1.8 4-6.4 4-4.5.2-6.6-.8-6.9-3.7zM192 5.1l-7 5.3 7 6.3h-3.5l-5.4-4.8-1.8 1.3v3.5h-2.9V5.1h2.9v5.4l7-5.4h3.7zm1.5 11.6V5.1h2.9v11.7l-2.9-.1zm5-5.8c0-4.1 3.2-6 7.4-6 4.5 0 6.8 1.7 7.4 4.6h-3c-.5-1.7-2-2.4-4.4-2.4-2.5 0-4.4 1.2-4.4 3.8 0 2.6 1.9 3.8 4.4 3.8 2.3 0 3.8-.7 4.4-2.4h3c-.5 2.9-2.9 4.6-7.4 4.6-4.2 0-7.4-1.9-7.4-6zm27.6-5.8h2.9v11.7h-2.9V12h-7.9v4.7h-2.9V5.1h2.9v4.6h7.9V5.1zM119.5 33.6V21.9h3.7l4.3 7 .8 1.4h.1l.9-1.4 4.3-6.9h3.7v11.7h-2.8v-6.2l.1-2.2h-.1l-1.1 1.9-4 6.5h-2.1l-3.9-6.5-1.1-1.9h-.1v8.4h-2.7zm31.8 0l-1.2-2.3h-7.3l-1.2 2.3h-2.9l6.2-11.7h3.4l6.1 11.7h-3.1zm-7.4-4.3h5.3L147 25l-.4-.7h-.1l-.4.7-2.2 4.3zm22.2-.8c3.3.4 1.4 3.1 2.7 5v.1h-3c-.8-1.4.6-4.1-3.1-4.1h-4v4.1h-2.9V21.9h8.1c3.1 0 4.7 1.3 4.7 3.4.1 1.8-1 2.8-2.5 3.2zm-2.8-1.1c1.7 0 2.5-.6 2.5-1.8 0-1.2-.7-1.7-2.5-1.7h-4.5v3.4h4.5zm19.3-3.5h-8.7v2.8h8v2h-8v3h8.7v2H171V21.9h11.6v2zm16-2l-7 5.3 7 6.3h-3.5l-5.4-4.8-1.8 1.3v3.5H185V21.9h2.9v5.4l7-5.4h3.7z" fill="#fffae9"/></svg>