<svg width="156" height="47" fill="none" xmlns="http://www.w3.org/2000/svg"><path d="M79.053 1.707h75.849v44.366h-75.85V1.707zM78.238 46.9h77.5V.9h-77.5v46z" fill="#E34612"/><path d="M90.524 16.234h-.727v5.75h.727v-5.75zm5.658 5.75h-1.299l-1.012-3.071-.771-2.483.022.566c0 .37.022.763.022 1.155v3.833h-.705v-5.75h1.3l.968 2.94c.375 1.242.639 2.113.793 2.614V21.2c0-.392-.022-.806-.022-1.22v-3.746h.704v5.75zm2.092-5.38c.308-.283.705-.414 1.19-.414.99 0 1.694.567 1.694 1.612v.196h-.748v-.196c0-.61-.374-.936-.947-.936-.55 0-.903.305-.903.806 0 .697.947 1.023 1.718 1.415.506.283.924.762.924 1.416 0 .936-.704 1.546-1.739 1.546-.506 0-.947-.152-1.277-.435-.33-.283-.506-.697-.506-1.22v-.174h.748v.174c0 .61.419 1.002 1.057 1.002.595 0 .991-.305.991-.85 0-1.284-2.598-1.001-2.642-2.83-.022-.48.132-.829.44-1.112zm6.98.306h-1.233v5.074h-.749v-5.075h-1.233v-.675h3.215v.675zm4.227-.676l-1.497 3.964v1.764h-.749v-1.764l-1.497-3.964h.792l.573 1.633c.33.893.506 1.416.506 1.547.022-.174.198-.675.507-1.547l.572-1.633h.793zm3.764.676h-1.255v5.074h-.748v-5.075h-1.233v-.675h3.236v.675zm3.81-.676h.748v4.138c0 .501-.154.893-.462 1.198-.33.305-.727.457-1.233.457-.506 0-.925-.152-1.233-.457-.33-.305-.484-.697-.484-1.198v-4.138h.748v4.138c0 .566.352.959.969.959.594 0 .969-.37.969-.959v-4.138h-.022zm5.107.676h-1.255v5.074h-.726v-5.075h-1.255v-.675h3.236v.675zM91.449 30.914c.704 0 1.079-.327 1.079-.871v-.174c0-.588-.353-.872-1.08-.872h-.946v1.917h.947zm-.11-2.57c.704 0 1.034-.283 1.034-.85v-.196c0-.522-.352-.805-.946-.805h-.947v1.85h.859zm1.915 1.524v.197c0 .892-.638 1.502-1.74 1.502h-1.739v-5.75h1.674c1.079 0 1.673.567 1.673 1.438v.196c0 .653-.33 1.067-.793 1.176.55.087.925.523.925 1.242zm2.334-3.375v2.134h.88c.661 0 .97-.327.97-.936v-.262c0-.631-.33-.936-.991-.936h-.86zm2.003 5.074l-1.012-2.243h-.991v2.243h-.727v-5.75h1.608c1.078 0 1.717.632 1.717 1.634v.24c0 .718-.308 1.22-.859 1.437l1.145 2.44h-.88zm2.863-2.003h1.475l-.22-1.002c-.309-1.329-.485-2.157-.529-2.505 0 .044-.11.566-.264 1.372-.088.414-.176.784-.242 1.155l-.22.98zm-.441 2.003h-.748l1.321-5.75h1.277l1.299 5.75h-.749l-.286-1.328h-1.784l-.33 1.328zm8.213 0h-1.299l-.991-3.07-.771-2.484.022.566c0 .37.022.763.022 1.155v3.833h-.704v-5.75h1.299l.969 2.94c.374 1.242.638 2.113.792 2.614v-.588c0-.392-.022-.806-.022-1.22v-3.768h.705v5.772h-.022zm2.598-.675h.968c.617 0 .969-.37.969-.936V27.45c0-.566-.352-.937-.969-.937h-.968v4.378zm-.727.675v-5.75h1.695c.507 0 .925.153 1.233.458.309.305.463.697.463 1.176v2.505c0 .479-.154.85-.463 1.154-.308.305-.726.457-1.233.457h-1.695zm5.923-5.75h-.749v5.75h.749v-5.75zm5.636 5.75h-1.299l-.991-3.07-.77-2.484.022.566c0 .37.022.763.022 1.155v3.833h-.705v-5.75h1.299l.969 2.94c.374 1.242.638 2.113.792 2.614v-.588c0-.392-.022-.806-.022-1.22v-3.768h.705v5.772h-.022zm3.545-2.417v-.654h1.607v1.438c0 1.067-.704 1.698-1.695 1.698-1.035 0-1.696-.61-1.696-1.72v-2.418c0-.523.177-.936.485-1.241.33-.305.726-.458 1.233-.458 1.035 0 1.695.632 1.695 1.721v.174h-.748v-.218c0-.653-.331-1.001-.947-1.001-.595 0-.969.348-.969 1.002v2.46c0 .654.352 1.003.969 1.003.616 0 .991-.327.991-1.002v-.784h-.925zm3.985.827c0 .567.352.959.969.959.594 0 .969-.37.969-.959V27.43c0-.566-.353-.958-.969-.958-.595 0-.969.37-.969.958v2.548zm-.748-2.548c0-.501.154-.893.484-1.176.308-.305.726-.458 1.233-.458 1.013 0 1.695.654 1.695 1.634v2.548c0 .501-.154.893-.462 1.176-.308.305-.727.458-1.233.458-.507 0-.925-.153-1.233-.458-.33-.305-.484-.697-.484-1.176V27.43zm7.111 4.138h-1.299l-1.167-5.75h.749l.66 3.29c0 .065.044.195.088.435s.088.479.132.74c.044.24.088.501.132.72.044.239.066.348.066.348.022-.262.133-1.002.353-2.222l.572-3.31h1.277l.573 3.31.352 2.2.396-2.2.661-3.31h.748l-1.167 5.75h-1.277l-.55-3.159c-.022-.152-.088-.566-.198-1.263-.11-.675-.176-1.046-.176-1.089 0 0-.044.37-.154 1.067-.111.697-.177 1.133-.199 1.264l-.572 3.18zm8.674-5.75l-1.497 3.964v1.765h-.748V29.78l-1.498-3.964h.793l.573 1.634c.33.893.484 1.416.506 1.546.022-.174.198-.675.506-1.546l.573-1.634h.792zM43.342 17.018h-1.828v7.057h.749c2.113 0 4.249-.414 4.249-3.528.022-2.462-.925-3.529-3.17-3.529zm-15.985 7.057h-1.651v6.752h1.673c2.246 0 3.346-1.11 3.346-3.398 0-2.2-1.167-3.354-3.368-3.354zm2.862-3.877c0-2.134-.99-3.201-2.972-3.201h-1.541v6.447h1.387c2.135-.022 3.126-1.046 3.126-3.246zm25.342 5.358h4.954l-2.532-6.774-2.422 6.774z" fill="#E34612"/><path d="M60.757 31.48l1.497-1.328-1.453-3.855h-5.483l-1.298 3.659 2.245 1.524H45.917l.947-1.089-3.633-5.619h-1.717v5.293l1.475 1.415h-6.473l1.475-1.415V17.759l-1.475-1.416h7.09c4.117 0 6.472 1.503 6.472 4.138 0 1.721-1.21 3.071-3.434 3.79l-.132.044 3.83 5.728c.287.436.793.697 1.322.697.66 0 1.255-.414 1.497-1.024l4.403-11.979-.528-1.372h3.61l5.417 13.852 1.453 1.307h-6.76v-.044zm-33.598 0h-6.451l1.475-1.415V17.759l-1.475-1.416h6.56c4.58 0 6.628 1.154 6.628 3.768 0 2.091-1.783 3.05-3.28 3.507l-.353.109.374.087c2.51.544 3.787 1.742 3.787 3.528-.022 2.81-2.311 4.138-7.265 4.138zm-9.27 0h-6.473l1.476-1.437V17.78l-1.476-1.438h6.474l-1.476 1.438v12.262l1.476 1.437zM.74 46.9h77.5V.9H.738v46z" fill="#E34612"/></svg>