<svg width="262" height="41" fill="none" xmlns="http://www.w3.org/2000/svg"><path d="M0 20.516C0 8.842 8.697.11 20.16.11c11.552 0 20.249 8.734 20.249 20.405 0 11.494-8.697 20.096-20.249 20.096C8.697 40.611 0 31.965 0 20.515zm38.607-.044c0-10.604-7.905-18.536-18.447-18.536-10.454 0-18.359 7.932-18.359 18.536 0 10.426 7.905 18.311 18.36 18.311 10.541 0 18.446-7.84 18.446-18.311zm-18.491 9.713v-14.08H14.8v-1.781h1.845c2.678-.044 3.47-.935 3.514-3.208v-.578h2.416v19.65h-2.46v-.003zm24.157-9.757C44.273 8.788 52.997.08 64.497.08c11.59 0 20.31 8.707 20.31 20.347 0 11.463-8.724 20.037-20.31 20.037-11.5 0-20.224-8.622-20.224-20.037zm38.726-.045c0-10.572-7.932-18.48-18.505-18.48-10.488 0-18.417 7.908-18.417 18.48 0 10.397 7.93 18.26 18.417 18.26 10.576 0 18.505-7.82 18.505-18.26zm-27.535 9.683v-1.111c0-8.442 15.773-7.732 15.773-13.15 0-1.998-1.455-3.554-6.08-3.554-4.802 0-7.27 1.556-7.27 5.553h-2.423c0-5.332 3.79-7.552 9.604-7.552 6.124 0 8.592 2.267 8.592 5.465 0 6.886-14.716 6.264-15.378 12.306v.089h15.245v1.954H55.464zm33.149-9.567c0-11.627 8.663-20.327 20.082-20.327 11.508 0 20.171 8.697 20.171 20.327 0 11.45-8.663 20.017-20.171 20.017-11.419 0-20.082-8.612-20.082-20.017zm38.458-.044c0-10.563-7.874-18.461-18.376-18.461-10.413 0-18.287 7.898-18.287 18.46 0 10.386 7.874 18.24 18.287 18.24 10.502 0 18.376-7.81 18.376-18.24zm-28.218.088c0-7.368 4.989-10.21 10.152-10.21 5.556 0 8.707 2.088 9.274 6.037h-2.406c-.527-2.485-2.583-4.038-6.913-4.038-4.594 0-8.312 2.841-7.657 9.631 1.312-2.351 4.33-4.125 8.619-4.125 5.995 0 8.707 2.44 8.707 5.991 0 3.773-3.545 6.57-9.495 6.57-6.825-.004-10.28-3.242-10.28-9.856zm17.326 3.375c0-2.709-2.318-4.262-6.695-4.262-4.418 0-7.48 1.91-7.48 4.35 0 2.617 2.667 4.394 7.089 4.394 4.503 0 7.086-1.777 7.086-4.482z" fill="#E34612"/><path d="M151.456 10.507c0 3.011-1.924 4.548-5.931 4.548h-5.4v4.183h-3.3V5.898h8.7c4.007 0 5.931 1.537 5.931 4.61zm-6.322 2.182c2.101 0 3.005-.646 3.005-2.182 0-1.495-.925-2.161-3.005-2.161h-5.006v4.343h5.006zm7.892-.122c0-4.204 2.984-6.852 8.816-6.852 5.852 0 8.778 2.648 8.778 6.852 0 4.204-2.926 6.851-8.778 6.851-5.832 0-8.816-2.647-8.816-6.851zm14.158 0c0-2.91-1.985-4.323-5.342-4.323-3.416 0-5.38 1.414-5.38 4.323 0 2.79 1.923 4.323 5.38 4.323 3.357.003 5.342-1.533 5.342-4.323zm9.179 4.044h8.592v2.627h-11.892V5.898h3.3v10.713zm9.975-1.618h3.3c.218 1.618 1.669 2.203 4.616 2.203 3.024 0 3.966-.932 3.966-1.92 0-1.01-.765-1.414-5.088-1.578-5.006-.183-6.617-1.11-6.617-3.558 0-2.464 2.022-4.425 7.423-4.425 4.635 0 7.011 1.295 7.323 4.062h-3.181c-.136-1.173-1.393-1.86-4.459-1.86-2.749 0-3.789.769-3.789 1.819 0 .989.806 1.352 5.166 1.516 5.145.18 6.539 1.131 6.539 3.537 0 2.566-2.063 4.63-7.287 4.63-5.084 0-7.558-1.194-7.912-4.426zm33.333-9.094v.04l-7.993 6.064 7.973 7.194v.041h-4.044l-6.206-5.516-2.002 1.496v4.02h-3.3V5.898h3.3v6.146l7.953-6.145h4.319zm1.693 13.339V5.898h3.317v13.337h-3.317v.003zm5.719-6.671c0-4.687 3.634-6.852 8.463-6.852 5.125 0 7.796 1.92 8.445 5.295h-3.436c-.571-1.96-2.277-2.77-5.006-2.77-2.848 0-5.026 1.373-5.026 4.323 0 2.97 2.178 4.323 5.026 4.323 2.614 0 4.361-.829 5.006-2.75h3.457c-.609 3.335-3.358 5.275-8.463 5.275-4.832.007-8.466-2.134-8.466-6.844zM258.7 5.899h3.3v13.336h-3.3v-5.397h-9.033v5.397h-3.3V5.899h3.3v5.315h9.033V5.9zM136.761 38.505V25.157h4.262l4.873 7.987.962 1.618h.078l1.003-1.659 4.873-7.946h4.184v13.346h-3.164V31.45l.078-2.57h-.078l-1.295 2.183-4.537 7.44h-2.376l-4.517-7.42-1.257-2.202h-.078l.041 2.549v7.076h-3.052zm36.391 0l-1.356-2.668h-8.387l-1.377 2.667h-3.32l7.072-13.346h3.851l7.014 13.346h-3.497zm-8.567-4.935h6.069l-2.494-4.955-.432-.83h-.119l-.452.83-2.572 4.955zm25.438-.928c3.772.506 1.651 3.6 3.102 5.723v.143h-3.418c-.904-1.638.727-4.65-3.518-4.65h-4.537v4.65h-3.3V25.162h9.234c3.575 0 5.383 1.434 5.383 3.84 0 2.063-1.237 3.236-2.946 3.538v.102zm-3.202-1.172c1.985 0 2.889-.646 2.889-2.023 0-1.335-.748-1.92-2.889-1.92h-5.166v3.943h5.166zm22.108-4.065h-9.941v3.194h9.115v2.244h-9.115v3.415h9.941v2.243h-13.241V25.155h13.241v2.25zm18.328-2.247v.041l-7.997 6.067 7.977 7.198v.04h-4.048l-6.209-5.519-2.005 1.496v4.023h-3.3V25.159h3.3v6.148l7.956-6.148h4.326z" fill="#253788"/></svg>