<svg width="219" height="52" fill="none" xmlns="http://www.w3.org/2000/svg"><path d="M28.98 18.529a1.186 1.186 0 00-.008 1.678c.46.468 1.21.468 1.67.016a1.186 1.186 0 10-1.662-1.695z" fill="#E34612"/><path d="M48.84 20.07a15.786 15.786 0 00-10.918-5.81c-.13-.363-.38-1.13-.476-1.453-.097-.299-.121-.38-.137-.42a21.33 21.33 0 00-2.05-4.148 17.846 17.846 0 00-5.14-5.116 19.83 19.83 0 00-6.425-2.72A19.665 19.665 0 0019.748 0C9.378.008.978 8.409.961 18.787a18.766 18.766 0 0011.242 17.205v.121a2.5 2.5 0 01.024.347c.008.234-.008.468-.032.694a6.14 6.14 0 01-.896 2.381 12.83 12.83 0 01-.799 1.194l-.25.34.67.492a6.899 6.899 0 004.107 1.347 7.07 7.07 0 003.14-.742A19.02 19.02 0 0034.572 51.8c10.37-.008 18.779-8.409 18.795-18.787A20.246 20.246 0 0048.84 20.07zM14.084 35.048l-.113-.516-.492-.202a16.679 16.679 0 01-10.5-15.543c.009-9.256 7.514-16.753 16.762-16.77A16.903 16.903 0 0133.128 8.7a23.834 23.834 0 012.72 5.512H17.416l.032.452c.024.283.065.557.13.831a6.929 6.929 0 005.414 5.367 4.926 4.926 0 01-4.446 2.808h-1.009v11.524h20.627V25.72H41.9l-3.276-9.345c7.28 1.065 12.686 8.086 12.686 16.632-.008 9.257-7.513 16.754-16.77 16.762a16.858 16.858 0 01-15.098-9.483l-.533-1.097-.977.718a4.933 4.933 0 01-4.907.557 6.852 6.852 0 001.058-5.415zm22.072-11.346v9.482H19.563V25.63a6.981 6.981 0 004.753-3.01l.032.154.517-1.122.145-.34.016-.031a8.725 8.725 0 00.452-1.614l.072-.452-.46-.033a10.045 10.045 0 01-2.332-.46c-.072-.024-.129-.04-.145-.056a4.925 4.925 0 01-2.663-2.421h16.487l2.615 7.457h-2.898zm39.259-2.792c-.597-.348-1.332-.517-2.203-.517-.872 0-1.63.21-2.284.63-.654.42-1.178 1.008-1.582 1.767h-.072v-7.045h-2.13v16.922h2.13V25.72c0-.71.129-1.34.387-1.888.258-.549.621-.969 1.09-1.26.467-.29 1.016-.435 1.646-.435.92.016 1.59.29 2.017.823.428.533.638 1.396.638 2.59v7.118h2.13v-7.48c0-1.098-.145-2.002-.436-2.704-.29-.702-.734-1.227-1.331-1.574zm14.211 10.11a1.126 1.126 0 01-.048-.387v-6.222c0-1.29-.363-2.283-1.09-2.977-.726-.694-1.888-1.041-3.486-1.041-1.049 0-1.92.153-2.598.443-.686.299-1.203.75-1.542 1.356-.338.605-.54 1.38-.605 2.332h1.985c.097-.936.355-1.597.775-1.993.42-.395 1.09-.597 2.01-.597.871 0 1.509.202 1.912.597.404.396.605.977.605 1.727 0 .387-.064.678-.185.864-.121.185-.38.338-.783.444-.403.112-1.065.25-1.985.411-1.146.145-2.05.363-2.712.654-.662.29-1.146.67-1.436 1.121-.299.46-.46 1.066-.468 1.808-.016 1.098.282 1.92.904 2.453.621.541 1.59.807 2.913.807a4.67 4.67 0 002.155-.508c.661-.339 1.17-.79 1.525-1.356h.145v.557l.024.024c.016.388.121.67.315.848.194.177.525.266.993.266h1.476v-1.38c-.258 0-.451-.024-.573-.073-.112-.032-.193-.096-.226-.177zm-2.082-2.735c0 .597-.129 1.114-.387 1.55a2.726 2.726 0 01-1.09 1.024c-.467.25-1.008.38-1.621.38-.84 0-1.445-.154-1.816-.46-.371-.307-.565-.775-.581-1.404a1.9 1.9 0 01.29-.969c.178-.274.476-.508.896-.71.42-.202 1.009-.355 1.767-.468.21-.049.412-.089.606-.105.193-.024.387-.065.58-.105.307-.065.566-.13.783-.194.218-.064.404-.137.573-.218v1.68zm8.982-7.206c-.645.428-1.146 1.033-1.5 1.808h-.098l-.29-2.325h-1.67v12.13h2.106v-6.61c0-.871.169-1.59.508-2.154.339-.565.767-.977 1.275-1.235a3.593 3.593 0 011.654-.387c.323 0 .678.032 1.066.096v-1.936a4.225 4.225 0 00-.896-.049 3.961 3.961 0 00-2.155.662zm13.146-.396l.024 1.986h-.121a4.19 4.19 0 00-1.582-1.647c-.686-.403-1.46-.605-2.316-.605-.92 0-1.743.194-2.453.573-.718.38-1.299 1.025-1.727 1.937-.436.912-.654 2.147-.654 3.696 0 1.533.218 2.76.654 3.68.436.92 1.009 1.574 1.727 1.961.718.387 1.541.581 2.453.581.597 0 1.154-.105 1.679-.315.524-.21.984-.5 1.396-.871.403-.371.718-.831.944-1.38h.121l.218 2.388h1.743V15.745h-2.106v4.938zm-.468 8.53c-.315.654-.727 1.13-1.235 1.429a3.262 3.262 0 01-1.678.444c-.63 0-1.187-.137-1.679-.404-.492-.266-.88-.726-1.162-1.388-.283-.662-.42-1.557-.42-2.687s.145-2.026.436-2.687c.291-.662.678-1.122 1.178-1.389a3.418 3.418 0 011.655-.403c.597 0 1.154.145 1.67.444.517.299.928.775 1.243 1.444.315.662.468 1.534.468 2.615-.008 1.073-.161 1.929-.476 2.582zm14.123-7.15v-1.525h-8.813v1.67h6.375l-6.448 8.958v1.525h8.91v-1.67h-6.448l6.424-8.958zm4.914-5.665h-2.3v2.155h2.3v-2.155zm-.121 4.165h-2.106v12.104h2.106V20.562zm10.693.387c-.751-.372-1.647-.557-2.671-.557-1.017 0-1.913.201-2.688.597-.774.395-1.404 1.049-1.88 1.969-.476.92-.71 2.154-.71 3.704 0 1.469.226 2.671.686 3.6.46.927 1.073 1.589 1.848 1.984.774.396 1.678.598 2.711.598 1.404 0 2.526-.331 3.374-.993.847-.662 1.38-1.63 1.614-2.905h-2.01c-.21.758-.541 1.348-1.001 1.751-.46.412-1.121.621-1.977.621-.629 0-1.178-.145-1.646-.435-.468-.29-.839-.775-1.114-1.453-.242-.59-.363-1.38-.395-2.348h8.288v-.953c0-1.371-.218-2.485-.654-3.34-.436-.856-1.025-1.47-1.775-1.84zm-4.374 1.404c.468-.29 1.033-.436 1.694-.436.614 0 1.146.129 1.598.387.452.258.807.67 1.066 1.243.242.533.363 1.219.379 2.05h-6.19c.057-.686.17-1.283.355-1.752.267-.71.63-1.202 1.098-1.492zm11.742-5.956h-2.3v2.155h2.3v-2.155zm-2.203 17.746c0 .581-.097.977-.291 1.187-.194.21-.516.314-.968.314h-.702v1.622h1.234c.662 0 1.203-.096 1.622-.306.42-.202.727-.525.937-.969.201-.444.306-1.024.306-1.727V20.562h-2.13v13.582h-.008zm18.948-7.57c-.573-.282-1.38-.54-2.429-.783-1.001-.193-1.751-.387-2.243-.573-.493-.185-.815-.395-.969-.62-.153-.227-.234-.517-.234-.872 0-.598.25-1.05.751-1.364.5-.315 1.154-.468 1.961-.468.774 0 1.396.17 1.864.508.468.339.702.847.702 1.525h1.913c0-1.13-.372-2.001-1.122-2.614-.751-.614-1.848-.92-3.309-.92-1.436 0-2.598.306-3.486.92-.888.613-1.332 1.492-1.332 2.639 0 .597.113 1.097.339 1.5.226.404.622.751 1.179 1.033.556.283 1.347.533 2.388.743 1.001.21 1.751.42 2.252.613.5.202.839.428 1.033.67.185.242.274.557.274.944 0 .565-.242 1.017-.726 1.356-.484.339-1.178.508-2.082.508-.888 0-1.566-.17-2.034-.524-.468-.347-.726-.896-.775-1.655h-1.961c0 .808.17 1.485.509 2.034.339.549.855.968 1.549 1.243.694.282 1.59.428 2.688.428 1.549 0 2.735-.315 3.566-.953.832-.637 1.243-1.541 1.243-2.703 0-.646-.105-1.17-.331-1.574-.209-.411-.605-.758-1.178-1.04zm7.586-9.304h-1.84c-.032 1.081-.097 1.84-.202 2.26-.105.427-.306.71-.589.839-.29.129-.815.21-1.573.242v1.55h2.082v7.335c0 .759.105 1.372.322 1.84.218.468.549.807.993 1.017.444.21 1.033.315 1.751.315h1.768v-1.622h-1.09c-.403 0-.718-.065-.952-.186-.234-.121-.404-.323-.509-.613-.104-.29-.161-.694-.161-1.21V22.16h2.784v-1.597h-2.784V17.27zm13.291 10.023c0 .775-.137 1.453-.403 2.034-.266.58-.638 1.016-1.114 1.307-.476.29-1.025.436-1.638.436-.952 0-1.63-.283-2.05-.848-.411-.565-.613-1.46-.613-2.687v-6.973h-2.131v7.506c0 1.646.323 2.856.969 3.623.645.767 1.662 1.146 3.05 1.146.872 0 1.647-.226 2.325-.678a4.674 4.674 0 001.597-1.84h.097l.226 2.348h1.816V20.562h-2.131v6.73zm13.727-6.61l.024 1.986h-.121a4.188 4.188 0 00-1.581-1.647c-.686-.403-1.461-.605-2.316-.605-.92 0-1.744.194-2.454.573-.718.38-1.299 1.025-1.727 1.937-.435.912-.653 2.147-.653 3.696 0 1.533.218 2.76.653 3.68.436.92 1.009 1.574 1.727 1.961.719.387 1.542.581 2.454.581a4.46 4.46 0 001.678-.315c.525-.21.985-.5 1.396-.871.404-.371.718-.831.944-1.38h.122l.217 2.396h1.744v-16.93h-2.107v4.938zm-.468 8.53c-.315.654-.726 1.13-1.235 1.429a3.262 3.262 0 01-1.678.444 3.46 3.46 0 01-1.679-.404c-.492-.266-.879-.726-1.162-1.388-.282-.662-.419-1.557-.419-2.687s.145-2.026.435-2.687c.291-.662.678-1.122 1.179-1.389a3.414 3.414 0 011.654-.403c.597 0 1.154.145 1.67.444.517.299.929.775 1.243 1.444.315.662.468 1.534.468 2.615-.008 1.073-.161 1.929-.476 2.582zm8.022-12.815h-2.3v2.155h2.3v-2.155zm-.121 4.165h-2.107v12.104h2.107V20.562zm13.09 2.404c-.46-.912-1.098-1.566-1.905-1.96-.807-.396-1.775-.59-2.905-.59-1.114 0-2.082.202-2.905.605-.823.404-1.469 1.057-1.937 1.961-.468.904-.702 2.107-.702 3.608 0 1.484.234 2.695.702 3.631.468.936 1.114 1.606 1.937 2.001.823.396 1.791.59 2.905.59 1.13 0 2.098-.202 2.905-.606.807-.403 1.445-1.057 1.905-1.969.46-.912.686-2.122.686-3.647 0-1.502-.226-2.712-.686-3.624zm-1.889 6.335c-.282.678-.678 1.162-1.178 1.445-.5.282-1.081.42-1.743.42-.662 0-1.243-.138-1.743-.42-.501-.283-.896-.767-1.187-1.445-.29-.678-.435-1.582-.435-2.711 0-1.13.145-2.026.435-2.688.291-.662.686-1.13 1.187-1.412.5-.282 1.081-.42 1.743-.42.662 0 1.243.137 1.743.42.5.282.888.759 1.178 1.412.283.662.42 1.558.42 2.688 0 1.13-.137 2.033-.42 2.711z" fill="#E34612"/></svg>