<svg width="120" height="37" fill="none" xmlns="http://www.w3.org/2000/svg"><path d="M60.524 1.226h58.232v34.721H60.524V1.226zm-.626 35.369h59.5v-36h-59.5v36z" fill="#FFFAE9"/><path d="M69.33 12.595h-.557v4.5h.558v-4.5zm4.345 4.5h-.997l-.778-2.403-.592-1.944.017.444c0 .29.017.596.017.903v3h-.54v-4.5h.997l.743 2.301c.288.972.49 1.653.609 2.046v-.46c0-.308-.017-.631-.017-.955v-2.932h.54v4.5zm1.605-4.21c.237-.222.541-.324.913-.324.761 0 1.302.443 1.302 1.261v.154h-.575v-.154c0-.477-.287-.733-.727-.733-.422 0-.693.239-.693.631 0 .545.727.801 1.319 1.108.389.222.71.597.71 1.108 0 .733-.541 1.21-1.336 1.21-.388 0-.726-.12-.98-.34-.253-.222-.389-.546-.389-.955v-.137h.575v.137c0 .477.321.784.811.784.457 0 .761-.239.761-.665 0-1.006-1.995-.784-2.029-2.216-.016-.375.102-.648.339-.87zm5.359.238h-.947v3.972h-.574v-3.972h-.947v-.528h2.468v.528zm3.245-.528l-1.15 3.102v1.38h-.574v-1.38l-1.15-3.102h.61l.439 1.278c.253.7.389 1.108.389 1.21.016-.136.152-.528.388-1.21l.44-1.278h.608zm2.891.528h-.964v3.972h-.574v-3.972h-.947v-.528h2.485v.528zm2.925-.528h.574v3.239c0 .392-.118.698-.355.937-.254.239-.558.358-.947.358-.388 0-.71-.12-.946-.358-.254-.239-.372-.545-.372-.937v-3.239h.575v3.239c0 .443.27.75.743.75.457 0 .744-.29.744-.75v-3.239h-.017zm3.92.528h-.963v3.972H92.1v-3.972h-.963v-.528h2.485v.528zM70.04 24.084c.541 0 .829-.256.829-.682v-.137c0-.46-.27-.681-.829-.681h-.726v1.5h.727zm-.084-2.012c.54 0 .794-.221.794-.664v-.154c0-.409-.27-.63-.726-.63h-.727v1.448h.659zm1.47 1.194v.153c0 .699-.49 1.176-1.335 1.176h-1.335v-4.5h1.284c.829 0 1.285.443 1.285 1.125v.154c0 .51-.253.835-.608.92.422.068.71.409.71.971zm1.793-2.643v1.671h.676c.507 0 .743-.256.743-.733v-.204c0-.495-.253-.733-.76-.733h-.66zm1.538 3.972l-.778-1.756h-.76v1.756h-.558v-4.5h1.234c.828 0 1.318.494 1.318 1.279v.187c0 .563-.237.954-.66 1.125l.88 1.91h-.676zm2.197-1.568h1.132l-.169-.784c-.236-1.04-.372-1.688-.405-1.96 0 .034-.085.443-.203 1.073-.068.324-.135.614-.186.904l-.17.767zm-.338 1.568h-.575l1.014-4.5h.98l.998 4.5h-.575l-.22-1.04H76.87l-.253 1.04zm6.305 0h-.997l-.76-2.403-.592-1.944.016.444c0 .29.017.596.017.903v3h-.54v-4.5h.997l.743 2.301c.288.972.49 1.654.609 2.046v-.46c0-.307-.017-.631-.017-.955v-2.949h.541v4.517h-.017zm1.995-.528h.743c.474 0 .744-.29.744-.733v-1.96c0-.444-.27-.733-.744-.733h-.743v3.426zm-.558.528v-4.5h1.301c.39 0 .71.12.947.358.237.239.355.546.355.92v1.96c0 .376-.118.666-.355.904-.237.239-.558.358-.947.358h-1.301zm4.547-4.5h-.575v4.5h.575v-4.5zm4.327 4.5h-.997l-.76-2.403-.592-1.944.017.444c0 .29.016.596.016.903v3h-.54v-4.5h.997l.743 2.301c.288.972.49 1.654.61 2.046v-.46c0-.307-.018-.631-.018-.955v-2.949h.541v4.517h-.017zm2.721-1.892v-.511h1.234v1.125c0 .835-.54 1.33-1.301 1.33-.795 0-1.302-.478-1.302-1.347v-1.893c0-.409.135-.732.372-.971.253-.239.558-.358.947-.358.794 0 1.301.494 1.301 1.347v.136h-.575v-.17c0-.512-.253-.785-.727-.785-.456 0-.743.273-.743.784v1.927c0 .511.27.784.743.784.474 0 .761-.256.761-.784v-.614h-.71zm3.06.647c0 .444.27.75.743.75.457 0 .744-.289.744-.75v-1.994c0-.443-.27-.75-.743-.75-.457 0-.744.29-.744.75v1.995zm-.575-1.994c0-.392.118-.699.372-.92.236-.239.558-.358.947-.358.777 0 1.301.511 1.301 1.278v1.995c0 .392-.118.699-.355.92-.237.239-.558.358-.947.358-.388 0-.71-.12-.946-.358-.254-.239-.372-.545-.372-.92v-1.995zm5.46 3.239h-.997l-.896-4.5h.575l.507 2.574c0 .051.034.153.067.34.034.188.068.376.102.58.034.188.067.393.101.563l.051.273c.017-.205.101-.785.27-1.739l.44-2.59h.98l.44 2.59.27 1.722.304-1.722.508-2.59h.574l-.896 4.5h-.98l-.423-2.473c-.017-.119-.067-.443-.152-.988-.084-.529-.135-.818-.135-.852 0 0-.034.29-.118.835-.085.545-.136.886-.152.989l-.44 2.488zm6.66-4.5l-1.149 3.102v1.381h-.575v-1.38l-1.149-3.103h.608l.44 1.279c.253.698.371 1.108.388 1.21.017-.137.153-.529.389-1.21l.44-1.279h.608zm-77.451-6.886h-1.403v5.523h.574c1.623 0 3.263-.324 3.263-2.762.017-1.926-.71-2.761-2.434-2.761zm-12.272 5.522h-1.268v5.284h1.285c1.724 0 2.569-.869 2.569-2.659 0-1.721-.896-2.625-2.586-2.625zm2.197-3.034c0-1.67-.76-2.505-2.282-2.505h-1.183v5.045h1.065c1.64-.017 2.4-.818 2.4-2.54zm19.456 4.193h3.803l-1.944-5.3-1.86 5.3z" fill="#FFFAE9"/><path d="M46.477 24.527l1.15-1.04-1.116-3.017h-4.209l-.997 2.864 1.724 1.193h-7.945l.727-.853-2.789-4.397h-1.318v4.142l1.132 1.108h-4.97L29 23.419v-9.63l-1.133-1.109h5.443c3.161 0 4.97 1.176 4.97 3.239 0 1.346-.93 2.403-2.637 2.966l-.101.034 2.94 4.483c.22.34.61.545 1.015.545.507 0 .963-.324 1.15-.8l3.38-9.376-.406-1.074h2.773l4.158 10.841 1.115 1.023h-5.189v-.034zm-25.794 0H15.73l1.132-1.108v-9.63L15.73 12.68h5.037c3.516 0 5.088.904 5.088 2.95 0 1.635-1.37 2.385-2.519 2.743l-.27.086.287.068c1.927.426 2.908 1.363 2.908 2.761-.017 2.199-1.775 3.239-5.578 3.239zm-7.117 0h-4.97l1.133-1.125v-9.597L8.597 12.68h4.97l-1.133 1.125v9.597l1.132 1.125zM.398 36.595h59.5v-36H.398v36z" fill="#FFFAE9"/></svg>