<svg width="162" height="162" fill="none" xmlns="http://www.w3.org/2000/svg"><path d="M81.524 22.055c-33.308 0-58.572 25.352-58.572 59.243 0 33.244 25.264 58.341 58.572 58.341 33.561 0 58.826-24.968 58.826-58.341 0-33.892-25.27-59.243-58.826-59.243zm0 112.277c-30.373 0-53.34-22.895-53.34-53.164 0-30.787 22.967-53.811 53.34-53.811 30.626 0 53.593 23.024 53.593 53.811 0 30.399-22.972 53.164-53.593 53.164z" fill="#FF5100"/><path d="M110.947 69.861c0 12.64-7.545 18.309-24.248 18.309H65.438v22.086H59.5V51.464h27.2c16.703 0 24.248 5.67 24.248 18.397zM86.357 83.2c12.886 0 18.487-3.312 18.487-13.339 0-9.851-5.85-13.339-18.487-13.339H65.433V83.2h20.924zm13.565 27.025a3.675 3.675 0 003.677-3.674 3.675 3.675 0 00-3.677-3.674 3.675 3.675 0 00-3.676 3.674 3.675 3.675 0 003.677 3.674z" fill="#FF5100"/><path d="M23.066 113.479l-11.32 11.292-1.463-3.638 7.28-7.001 1.463-1.378-.015-.042-2.044.052-9.972.181-1.478-3.679 7.442-6.897 1.384-1.275-.015-.042-1.914.021-10.205-.036L.762 97.44l15.993.332 1.618 4.032-6.97 6.519-1.405 1.285.015.042 1.898-.063 9.547-.108 1.608 4zM15.277 86.07l-5.564.28-8.738 8.204-.213-4.208 6.12-5.706-.006-.108-6.663-5.063L0 75.287l9.542 7.306 5.543-.28.192 3.758zm-.301-12.737L.695 69.783l2.142-8.602c1.457-5.861 4.418-8.152 9.287-6.944 4.87 1.212 6.451 4.633 4.983 10.514l-2.13 8.582zm-1.908-4.332l1.016-4.084c1.063-4.26.301-6.1-2.899-6.897-3.116-.778-4.713.482-5.776 4.741l-1.017 4.09L13.068 69zm6.918-19.811l5.34-9.324 2.438 1.395-7.8 13.618-2.011-1.15-3.039-13.987-5.284 9.224-2.437-1.394 7.789-13.593 1.99 1.14 3.014 14.07zm9.78-9.805l-11.191-9.551 2.448-2.866 11.19 9.55-2.447 2.867zm16.107-14.666l-3.013-1.4-7.55 5.805.554 3.28-2.987 2.296-2.608-16.547 3.464-2.663 15.282 6.809-3.142 2.42zm-11.025 1.612l5.46-4.198-5.574-2.601-.944-.425-.104.083.15 1.036 1.012 6.105zm19-8.8l10.33-3.948 1.037 2.705-13.851 5.29-1.945-5.078-1.623 1.311-.923-2.415 1.613-1.332-2.38-6.223 3.52-1.348 1.93 5.037 5.626-4.632.975 2.487-5.663 4.607 1.354 3.54zM98.154 5.136c-.01 3.321-2.204 5.006-6.751 4.99l-6.135-.02-.016 4.611-3.744-.015L81.56 0l9.879.031c4.548.016 6.73 1.72 6.715 5.105zm-7.187 2.383c2.385.01 3.412-.7 3.422-2.394.006-1.648-1.042-2.389-3.401-2.394l-5.689-.02-.016 4.793 5.684.015zm9.962 1.933c1.825-4.26 6.087-5.612 12.181-3.01 6.108 2.611 8.017 6.601 6.191 10.861-1.825 4.26-6.031 5.639-12.139 3.027-6.093-2.602-8.059-6.618-6.233-10.878zm14.779 6.317c1.265-2.948-.192-5.27-3.698-6.768-3.567-1.523-6.233-.969-7.493 1.985-1.208 2.83.13 5.244 3.739 6.789 3.505 1.498 6.243.824 7.452-2.006zm7.171 10.018l8.515 7.084-1.856 2.228-11.393-9.483 9.417-11.303 2.878 2.394-7.561 9.08zm11.927 8.027l2.121 3.088c-1.332 1.213-.933 2.939.965 5.69 1.945 2.83 3.397 3.13 4.299 2.514.918-.633.793-1.602-1.836-5.742-3.054-4.799-3.241-6.887-1.016-8.41 2.24-1.54 5.325-.872 8.795 4.181 2.976 4.338 3.329 7.364 1.011 9.39l-2.043-2.974c.98-.86.793-2.467-1.172-5.333-1.769-2.57-3.132-3.068-4.092-2.41-.902.617-.715 1.597 1.94 5.779 3.142 4.928 3.173 6.825.985 8.322-2.334 1.602-5.533.959-8.893-3.928-3.273-4.762-3.781-7.82-1.064-10.167zm26.297 31.279l-.042.016-9.158-6.571-4.765 11.053-.042.016-1.415-4.369 3.619-8.57-2.271-1.654-4.221 1.368-1.157-3.56 14.002-4.53 1.151 3.56-6.451 2.09 9.23 6.498 1.52 4.653zm-14.344 6.545l14.619-1.668.425 3.741-14.619 1.669-.425-3.742zm8.593 7.09c5.149.518 7.104 4.86 6.555 10.317-.586 5.789-2.998 8.592-6.778 8.945l.394-3.882c2.22-.425 3.298-2.264 3.614-5.348.327-3.213-.933-5.83-4.174-6.156-3.262-.332-4.999 1.98-5.326 5.198-.3 2.948.41 5.016 2.443 5.96l-.394 3.901c-3.594-1.057-5.409-4.379-4.823-10.141.555-5.452 3.319-9.318 8.489-8.794zm-2.08 39.244l-1.503 3.431-13.483-5.897 1.504-3.431 5.455 2.384 4.112-9.39-5.455-2.384 1.504-3.43 13.483 5.897-1.504 3.43-5.373-2.347-4.112 9.39 5.372 2.347zM29.055 143.183l7.919-12.395 4.076 2.601-.078 10.39-.037 2.089.078.046 1.945-.927 9.376-4.41 4.003 2.555-7.919 12.395-3.023-1.927 4.185-6.556 1.597-2.337-.078-.047-2.535 1.239-8.754 4.14-2.271-1.451.078-9.649.103-2.814-.077-.046-1.473 2.389-4.2 6.571-2.915-1.856zM69.96 161.15l-.877-3.203-9.303-2.031-2.152 2.539-3.682-.803 10.989-12.655 4.267.933 4.631 16.065-3.873-.845zm-8.334-7.385l6.731 1.472-1.597-5.939-.285-.995-.13-.025-.695.782-4.024 4.705zm30.3.85c4.31.259 2.147 3.825 3.957 6.043l.01.155-3.868.27c-1.152-1.731.466-5.172-4.34-4.835l-5.14.357.358 5.115-3.739.264-1.026-14.67 10.454-.731c4.05-.285 6.207 1.15 6.389 3.798.16 2.27-1.152 3.654-3.065 4.125l.01.109zm-3.718-1.036c2.245-.156 3.22-.938 3.111-2.451-.103-1.467-.995-2.052-3.417-1.881l-5.85.409.307 4.332 5.849-.409zm24.03-10.758l-10.656 3.705 1.156 3.327 9.77-3.4.814 2.338-9.77 3.399 1.24 3.555 10.656-3.705.814 2.337-14.193 4.933-4.838-13.888 14.193-4.933.814 2.332zm16.081-13.935l.026.036-3.428 10.738 11.99 1.119.025.036-3.723 2.695-9.272-.803-.876 2.669 2.603 3.591-3.034 2.197-8.634-11.914 3.034-2.197 3.977 5.488 3.34-10.784 3.972-2.871z" fill="#fff"/></svg>