<svg width="150" height="36" fill="none" xmlns="http://www.w3.org/2000/svg"><path d="M19.65 12.663a.81.81 0 001.136 1.159.81.81 0 10-1.136-1.158z" fill="#FFFAE9"/><path d="M33.224 13.717a10.79 10.79 0 00-7.462-3.97c-.089-.25-.26-.773-.326-.994-.066-.204-.082-.259-.093-.286a14.58 14.58 0 00-1.401-2.836 12.197 12.197 0 00-3.514-3.496 13.553 13.553 0 00-4.39-1.86A13.442 13.442 0 0013.34 0C6.253.006.511 5.747.5 12.84A12.826 12.826 0 008.183 24.6v.083c.011.077.017.16.017.237.005.16-.006.32-.022.474a4.196 4.196 0 01-.612 1.627 8.772 8.772 0 01-.546.816l-.171.232.457.337c.811.6 1.798.92 2.808.92.744 0 1.478-.176 2.145-.507a13 13 0 0011.214 6.586c7.087-.006 12.835-5.747 12.846-12.84a13.837 13.837 0 00-3.095-8.848zM9.468 23.954l-.077-.352-.336-.138A11.4 11.4 0 011.879 12.84C1.884 6.514 7.014 1.39 13.335 1.38a11.553 11.553 0 019.15 4.567 16.287 16.287 0 011.86 3.767h-12.6l.022.309c.017.193.045.38.089.568a4.736 4.736 0 003.7 3.668 3.367 3.367 0 01-3.038 1.92h-.69v7.876h14.098v-6.476h2.554l-2.24-6.387c4.976.728 8.671 5.527 8.671 11.368-.005 6.326-5.135 11.45-11.461 11.456a11.523 11.523 0 01-10.32-6.48l-.364-.751-.668.49a3.373 3.373 0 01-3.353.38 4.683 4.683 0 00.722-3.7zM24.554 16.2v6.481h-11.34v-5.162a4.772 4.772 0 003.248-2.058l.022.105.353-.766.1-.232.01-.022c.139-.359.243-.728.31-1.103l.05-.31-.315-.021a6.862 6.862 0 01-1.45-.27 2.119 2.119 0 01-.144-.045c-.05-.016-.088-.027-.1-.038a3.366 3.366 0 01-1.82-1.655h11.269l1.787 5.097h-1.98zm26.833-1.909c-.408-.237-.91-.353-1.505-.353-.596 0-1.114.143-1.561.43-.447.287-.806.69-1.081 1.208h-.05v-4.815h-1.456v11.566h1.456v-4.749c0-.485.088-.915.265-1.29.176-.375.425-.662.744-.86.32-.2.695-.299 1.126-.299.628.011 1.086.199 1.378.563.293.364.436.954.436 1.77v4.865h1.456v-5.113c0-.75-.099-1.368-.297-1.847-.2-.48-.502-.839-.91-1.076zm9.713 6.911a.768.768 0 01-.032-.264v-4.253c0-.882-.249-1.56-.745-2.035-.497-.475-1.29-.712-2.383-.712-.717 0-1.313.105-1.776.304-.469.204-.822.512-1.053.926-.232.414-.37.943-.414 1.594h1.357c.066-.64.242-1.092.53-1.362.286-.27.744-.408 1.373-.408.595 0 1.031.138 1.307.408.276.27.413.667.413 1.18 0 .265-.044.464-.126.59-.083.127-.26.232-.535.304-.276.077-.728.17-1.357.281-.783.1-1.401.248-1.853.447-.453.198-.784.458-.982.766-.204.315-.315.729-.32 1.236-.011.75.193 1.313.618 1.677.424.37 1.086.551 1.99.551.53 0 1.021-.115 1.473-.347.453-.232.8-.54 1.043-.927h.1v.38l.016.017c.01.265.082.458.215.58.132.12.358.181.678.181h1.01v-.943a1.14 1.14 0 01-.392-.05c-.077-.021-.132-.066-.154-.12zm-1.422-1.87c0 .409-.089.762-.265 1.06a1.871 1.871 0 01-.745.7c-.32.171-.69.26-1.108.26-.574 0-.988-.105-1.242-.315-.253-.21-.386-.53-.397-.96.011-.254.078-.474.199-.662.121-.187.325-.347.612-.485s.69-.243 1.208-.32c.144-.033.281-.06.414-.072.132-.016.264-.044.397-.071.21-.044.386-.089.535-.133.149-.044.276-.094.392-.149v1.148zm6.139-4.925c-.442.293-.783.706-1.026 1.236h-.066l-.199-1.589h-1.142v8.29h1.44v-4.517c0-.596.116-1.087.347-1.473.232-.386.524-.667.872-.843a2.456 2.456 0 011.13-.265c.221 0 .464.022.729.066v-1.324c-.21-.033-.414-.044-.613-.033a2.71 2.71 0 00-1.472.452zm8.984-.27l.017 1.356h-.083a2.865 2.865 0 00-1.081-1.125 3.068 3.068 0 00-1.583-.414c-.629 0-1.191.133-1.677.392-.49.26-.888.7-1.18 1.324-.298.623-.447 1.467-.447 2.526 0 1.048.149 1.886.447 2.515.298.629.69 1.076 1.18 1.34.491.265 1.054.398 1.677.398a3.04 3.04 0 001.147-.216 3.16 3.16 0 00.954-.595 2.61 2.61 0 00.646-.943h.082l.15 1.632h1.19V10.761h-1.439v3.376zm-.32 5.83c-.215.446-.496.772-.844.976a2.231 2.231 0 01-1.147.303c-.43 0-.81-.093-1.147-.275-.337-.183-.601-.497-.794-.95-.193-.451-.287-1.064-.287-1.836s.1-1.384.298-1.837c.198-.452.463-.766.805-.948a2.334 2.334 0 011.13-.276c.409 0 .79.1 1.142.303.353.204.635.53.85.988.215.452.32 1.047.32 1.787-.006.733-.11 1.318-.326 1.765zm9.653-4.887v-1.042H78.11v1.141h4.357l-4.407 6.123v1.042h6.09v-1.142h-4.408l4.39-6.122zm3.359-3.872H85.92v1.472h1.572v-1.472zm-.083 2.846h-1.44v8.274h1.44v-8.274zm7.309.265c-.513-.254-1.126-.38-1.826-.38-.695 0-1.307.137-1.837.407-.53.27-.96.717-1.285 1.346-.325.629-.485 1.473-.485 2.532 0 1.004.154 1.826.468 2.46.315.634.734 1.086 1.264 1.357.53.27 1.147.408 1.853.408.96 0 1.726-.226 2.305-.679.58-.452.944-1.114 1.103-1.985h-1.373c-.143.518-.37.92-.684 1.197-.314.281-.766.424-1.351.424-.43 0-.805-.099-1.125-.297-.32-.199-.574-.53-.761-.993-.166-.403-.249-.943-.27-1.605h5.664v-.651c0-.938-.15-1.699-.447-2.284-.298-.584-.7-1.004-1.213-1.257zm-2.99.96c.32-.199.706-.298 1.158-.298.42 0 .784.088 1.093.264.308.177.551.458.727.85.166.364.249.833.26 1.4h-4.23c.038-.468.115-.876.242-1.196.182-.485.43-.822.75-1.02zm8.025-4.071h-1.572v1.472h1.572v-1.472zm-1.506 12.129c0 .397-.066.667-.199.81-.132.144-.353.216-.661.216h-.48v1.109h.844c.452 0 .821-.067 1.108-.21.287-.138.497-.358.64-.662.138-.303.21-.7.21-1.18v-9.366h-1.456v9.283h-.006zm12.951-5.174c-.391-.193-.943-.37-1.66-.535-.684-.132-1.197-.265-1.533-.391-.337-.127-.557-.27-.662-.425a1.039 1.039 0 01-.16-.596c0-.408.171-.717.513-.932.342-.215.789-.32 1.34-.32.53 0 .954.116 1.274.348.32.231.48.579.48 1.042h1.307c0-.772-.253-1.368-.766-1.787-.513-.42-1.263-.629-2.262-.629-.982 0-1.776.21-2.382.629-.607.42-.911 1.02-.911 1.804 0 .408.078.75.232 1.026.155.275.425.513.805.706.381.193.921.364 1.633.507.684.143 1.197.287 1.539.42.342.137.573.291.706.457.127.165.187.38.187.645 0 .386-.165.695-.496.927-.331.232-.805.347-1.423.347-.607 0-1.07-.115-1.39-.358-.32-.237-.496-.612-.529-1.13H105.7c0 .55.116 1.014.348 1.39.231.374.584.661 1.059.849.474.193 1.086.292 1.836.292 1.059 0 1.87-.215 2.438-.651.568-.436.85-1.053.85-1.848 0-.441-.072-.8-.226-1.075-.144-.282-.414-.519-.806-.712zm5.184-6.359h-1.257c-.022.739-.066 1.257-.138 1.544-.072.292-.21.486-.403.574-.198.088-.557.143-1.075.165v1.06h1.423v5.013c0 .518.072.938.22 1.258.149.32.375.551.679.695.303.143.706.215 1.197.215h1.208v-1.11h-.745c-.276 0-.491-.043-.651-.126a.719.719 0 01-.347-.42c-.072-.198-.111-.474-.111-.826v-4.7h1.903v-1.092h-1.903v-2.25zm9.085 6.85c0 .53-.094.993-.276 1.39-.182.397-.436.695-.761.894a2.114 2.114 0 01-1.12.298c-.651 0-1.114-.194-1.401-.58-.281-.386-.419-.998-.419-1.836v-4.766h-1.456v5.13c0 1.125.22 1.952.662 2.476.441.524 1.136.784 2.084.784.596 0 1.126-.155 1.589-.464a3.198 3.198 0 001.092-1.257h.066l.155 1.605h1.241v-8.274h-1.456v4.6zm9.383-4.517l.016 1.356h-.083a2.856 2.856 0 00-1.081-1.125 3.067 3.067 0 00-1.583-.414c-.629 0-1.191.133-1.676.392-.491.26-.888.7-1.181 1.324-.298.623-.447 1.467-.447 2.526 0 1.048.149 1.886.447 2.515.298.629.69 1.076 1.181 1.34.49.265 1.053.398 1.676.398a3.06 3.06 0 001.148-.216 3.16 3.16 0 00.954-.595c.276-.254.491-.568.645-.943h.083l.149 1.638h1.191V10.76h-1.439v3.376zm-.32 5.83c-.215.446-.497.772-.844.976a2.234 2.234 0 01-1.148.303c-.43 0-.81-.093-1.147-.275-.336-.183-.601-.497-.794-.95-.193-.451-.287-1.064-.287-1.836s.099-1.384.298-1.837c.199-.452.463-.766.805-.948a2.337 2.337 0 011.131-.276c.408 0 .789.1 1.142.303.353.204.634.53.849.988.215.452.32 1.047.32 1.787-.005.733-.11 1.318-.325 1.765zm5.482-8.759h-1.572v1.472h1.572v-1.472zm-.083 2.846h-1.439v8.274h1.439v-8.274zm8.947 1.644c-.314-.623-.75-1.07-1.301-1.34-.552-.27-1.214-.403-1.986-.403-.761 0-1.423.138-1.986.414-.562.275-1.003.722-1.323 1.34-.32.618-.48 1.44-.48 2.465 0 1.015.16 1.843.48 2.483.32.64.761 1.097 1.323 1.367.563.27 1.225.403 1.986.403.772 0 1.434-.138 1.986-.414.551-.276.987-.722 1.301-1.346.315-.623.469-1.45.469-2.493 0-1.026-.154-1.853-.469-2.476zm-1.29 4.33c-.193.463-.464.794-.806.987-.342.193-.739.287-1.191.287-.452 0-.849-.094-1.191-.287-.342-.193-.613-.524-.811-.987-.199-.464-.298-1.081-.298-1.854 0-.772.099-1.384.298-1.836.198-.453.469-.773.811-.966.342-.193.739-.286 1.191-.286.452 0 .849.093 1.191.287.342.193.607.518.806.965.193.452.287 1.064.287 1.836 0 .773-.094 1.39-.287 1.854z" fill="#FFFAE9"/></svg>