<svg width="180" height="24" fill="none" xmlns="http://www.w3.org/2000/svg"><path d="M9.617 11.828c.9.217 1.73.722 2.353 1.516.622.794.968 1.876.968 3.175 0 1.732-.484 3.031-1.453 4.041-.968.939-2.421 1.444-4.358 1.444H0V2.519h6.78c1.523 0 2.768.433 3.668 1.371.899.938 1.383 2.093 1.383 3.608a6.54 6.54 0 01-.553 2.67c-.346.794-.9 1.3-1.591 1.588l-.07.072zM6.573 4.684H2.491v6.278h4.497c.623 0 1.107-.216 1.453-.65.346-.432.554-.937.554-1.587v-2.02c0-.65-.208-1.083-.692-1.444-.485-.36-.969-.577-1.73-.577zm3.598 12.845V15.22c0-.65-.277-1.227-.83-1.588-.554-.432-1.315-.577-2.145-.577H2.49v6.712h4.566c2.076 0 3.114-.722 3.114-2.238zm7.126-8.732c.9-.866 2.076-1.227 3.598-1.227 1.522 0 2.63.361 3.529 1.155.83.794 1.245 1.876 1.245 3.175v10.031h-1.937l-.208-2.67h-.207c-.485.938-1.107 1.66-1.868 2.165-.761.505-1.592.794-2.422.794-1.245 0-2.145-.36-2.906-1.083-.692-.721-1.038-1.66-1.038-2.814 0-1.155.415-2.093 1.176-2.815.762-.721 1.8-1.082 3.114-1.082h3.944V11.9c0-.794-.208-1.37-.692-1.804-.415-.433-1.038-.65-1.799-.65-.761 0-1.384.217-1.868.722-.484.505-.692 1.083-.692 1.877h-2.352c0-1.3.484-2.382 1.383-3.248zm2.145 11.474c.761 0 1.591-.36 2.283-1.154.761-.794 1.246-1.804 1.453-3.031h-3.667c-.622 0-1.107.144-1.453.433-.346.289-.553.65-.553 1.155v1.082c0 .505.207.866.553 1.155.416.216.83.36 1.384.36zM36.117 7.643c.138 0 .346 0 .553.072v2.453c-.968-.288-1.799 0-2.49.722-.762.722-1.246 1.732-1.592 2.959v8.227h-2.422V8.003l1.938-.144.346 2.887h.069c.761-2.093 2.006-3.103 3.598-3.103zm8.718 12.34v1.805c-.692.288-1.384.433-2.284.433-.9 0-1.66-.217-2.214-.722-.553-.505-.83-1.155-.83-1.949V9.88h-1.868V8.004l1.868-.144.277-3.609 2.145-.072v3.68h2.56V9.88h-2.56v9.093c0 .433.138.722.346 1.01.207.217.553.361.968.361.692 0 1.246-.144 1.592-.36zm13.215-4.33h-8.995v.577c0 1.227.346 2.165.969 2.96.692.72 1.522 1.081 2.629 1.081 1.384 0 2.49-.649 3.252-2.02l1.868.794c-.346.938-.969 1.66-1.868 2.309-.969.65-2.007.938-3.252.938-1.868 0-3.39-.65-4.497-2.02-1.107-1.372-1.66-3.176-1.66-5.34 0-2.166.553-3.97 1.66-5.269 1.107-1.299 2.56-2.02 4.29-2.02s3.113.577 4.15 1.804c1.039 1.227 1.592 2.742 1.592 4.69.07.578 0 1.155-.138 1.516zM52.515 9.59c-1.038 0-1.868.36-2.491 1.083-.623.721-.969 1.66-.969 2.814v.577h6.642v-.65c0-1.154-.277-2.092-.9-2.814-.553-.65-1.314-1.01-2.282-1.01zm17.989 12.341l-4.497-6.567h-1.73v6.567h-2.422V.498l2.353-.144v12.99h1.868L69.95 7.93l2.768-.144-4.774 6.567 5.258 7.578h-2.698zm17.643-10.175v.145l5.536 10.103H92.16l-5.12-9.382h-3.252l-1.245 9.382h-1.315l2.56-19.485h1.315l-1.176 8.804h2.975l7.126-8.804h1.523l-7.404 9.237zM100.67 22.22c-1.591 0-2.906-.505-3.874-1.588-.969-1.082-1.453-2.526-1.453-4.258 0-2.525.623-4.618 1.868-6.278 1.245-1.66 2.837-2.526 4.912-2.526 1.522 0 2.768.578 3.737 1.66.968 1.083 1.453 2.526 1.453 4.33 0 2.526-.623 4.619-1.869 6.278-1.245 1.588-2.836 2.382-4.774 2.382zm0-1.155c1.315 0 2.422-.505 3.391-1.515.968-1.01 1.522-2.31 1.729-3.897l.277-2.31c0-1.37-.346-2.525-1.107-3.391-.692-.866-1.66-1.3-2.837-1.3-1.314 0-2.49.506-3.46 1.444-.968.938-1.521 2.237-1.729 3.753l-.277 2.453c0 1.444.346 2.598 1.107 3.464.692.866 1.66 1.3 2.906 1.3zm22.21 1.155c-1.591 0-2.906-.505-3.875-1.588-.968-1.082-1.453-2.526-1.453-4.258 0-2.525.623-4.618 1.869-6.278 1.245-1.66 2.836-2.526 4.912-2.526 1.522 0 2.768.578 3.736 1.66.969 1.083 1.453 2.526 1.453 4.33 0 2.526-.622 4.619-1.868 6.278-1.176 1.588-2.767 2.382-4.774 2.382zm0-1.155c1.315 0 2.422-.505 3.39-1.515.969-1.01 1.523-2.31 1.73-3.897l.277-2.31c0-1.37-.346-2.525-1.107-3.391-.761-.866-1.661-1.3-2.837-1.3-1.315 0-2.491.506-3.459 1.444-.969.938-1.523 2.237-1.73 3.753l-.277 2.453c0 1.444.346 2.598 1.107 3.464.692.866 1.661 1.3 2.906 1.3zm25.808-13.206c.622 1.588.968 3.464.968 5.557 0 2.67-.553 4.763-1.591 6.422-1.038 1.588-2.422 2.454-4.082 2.454-1.73 0-2.906-.65-3.667-2.02-.83 1.37-1.937 2.02-3.46 2.02-1.383 0-2.49-.433-3.321-1.371-.83-.866-1.314-2.093-1.314-3.536 0-2.165.415-5.268 1.314-9.454h1.315c-.9 4.113-1.315 7.144-1.315 9.02v.434c0 1.082.277 2.02.9 2.67.622.65 1.453 1.01 2.421 1.01 1.384 0 2.353-.722 2.976-2.165-.07-.433-.139-.866-.139-1.299 0-2.381.415-5.629 1.315-9.742h1.314c-.899 4.33-1.314 7.433-1.314 9.381v.94l.069.072v.144c.138.794.415 1.443.899 1.948.485.506 1.177.722 2.007.722 1.245 0 2.283-.65 3.113-1.948.761-1.3 1.246-3.103 1.315-5.268v-1.01a12.89 12.89 0 00-.969-4.908l1.246-.072zm14.53 14.361c-1.592 0-2.837-.577-3.737-1.66-.968-1.082-1.453-2.598-1.453-4.402 0-2.525.623-4.546 1.799-6.206 1.176-1.587 2.768-2.453 4.705-2.453 1.176 0 2.145.288 2.837.938.692.65 1.038 1.443 1.038 2.526 0 .144 0 .36-.069.649h-1.177v-.577c0-.794-.276-1.371-.761-1.804-.484-.433-1.176-.65-1.937-.65-1.245 0-2.353.505-3.252 1.443-.899.939-1.453 2.238-1.661 3.753l-.345 2.526c0 1.443.345 2.598 1.107 3.464.761.866 1.66 1.299 2.906 1.299 1.522 0 2.767-.578 3.667-1.732l.761.866c-1.107 1.37-2.56 2.02-4.428 2.02zm15.221 1.227c-1.453-1.01-3.667-1.515-6.642-1.515h-2.906l.138-1.155 9.41-11.907h-7.611l.139-1.083h8.994l-.138 1.083-9.479 11.907h1.453c3.113 0 5.397.505 7.057 1.587l-.415 1.083zM153.6 21.931c-.622 0-.968-.288-.968-.866 0-.144 0-.36.069-.721l1.66-12.557h1.177l-1.799 12.99h2.352l-.208 1.154H153.6zm2.214-18.763c-.276 0-.484-.072-.553-.216-.139-.145-.139-.289-.139-.433v-.217c0-.072 0-.144.07-.288.069-.217.138-.361.276-.506.139-.144.346-.216.692-.216.277 0 .485.072.554.216.069.145.138.29.138.433 0 .073 0 .217-.069.506-.069.216-.138.36-.277.505-.138.144-.346.216-.692.216zM111.672 22.22c-.623 0-.969-.288-1.038-.866v-.36c0-.145 0-.217.069-.361l1.799-11.403h-2.56l.138-.938h1.799c.346 0 .554-.072.692-.216.138-.145.208-.361.277-.722l.553-3.392h1.177l-.692 4.33h3.113l-.138.938h-3.114l-1.868 11.836h2.906l-.346 1.154h-2.767z" fill="#E34612"/></svg>