<svg width="124" height="17" fill="none" xmlns="http://www.w3.org/2000/svg"><path d="M7.073 8.674A2.889 2.889 0 018.681 9.71c.426.542.662 1.282.662 2.17 0 1.184-.331 2.072-.993 2.762-.662.641-1.655.987-2.98.987H.5V2.31h4.634c1.04 0 1.892.296 2.507.937.614.642.945 1.43.945 2.467a4.47 4.47 0 01-.378 1.825A1.987 1.987 0 017.12 8.625l-.047.049zm-2.08-4.883h-2.79v4.291h3.073c.426 0 .757-.148.993-.444.237-.296.379-.641.379-1.085V5.172c0-.444-.142-.74-.473-.986a1.811 1.811 0 00-1.183-.395zm2.458 8.78v-1.579c0-.444-.189-.838-.567-1.085-.378-.296-.898-.395-1.466-.395H2.202V14.1h3.121c1.42 0 2.128-.494 2.128-1.53zm4.872-5.968c.615-.592 1.418-.839 2.459-.839 1.04 0 1.797.247 2.412.79.567.542.85 1.282.85 2.17v6.855h-1.323l-.142-1.825h-.142c-.331.642-.757 1.135-1.277 1.48-.52.345-1.088.543-1.655.543-.851 0-1.466-.247-1.986-.74-.473-.493-.71-1.135-.71-1.924 0-.789.284-1.43.805-1.923.52-.493 1.229-.74 2.127-.74h2.696V8.724c0-.543-.142-.938-.473-1.234-.284-.295-.71-.443-1.23-.443s-.945.148-1.276.493c-.331.345-.473.74-.473 1.282h-1.608c0-.888.331-1.627.946-2.22zm1.466 7.842c.52 0 1.087-.247 1.56-.79.52-.542.852-1.232.993-2.07h-2.506c-.425 0-.757.098-.993.295a.973.973 0 00-.378.79v.74c0 .345.142.591.378.788.284.148.568.247.946.247zm11.396-8.632c.095 0 .237 0 .378.05V7.54c-.662-.197-1.23 0-1.702.493-.52.493-.851 1.184-1.088 2.022v5.623h-1.655V6.06l1.324-.099.237 1.973h.047c.52-1.43 1.371-2.12 2.459-2.12zm5.958 8.435v1.233a3.856 3.856 0 01-1.56.296c-.615 0-1.135-.148-1.514-.493-.378-.346-.567-.79-.567-1.332v-6.61h-1.277V6.06l1.277-.098.19-2.467 1.465-.049v2.516h1.75v1.38h-1.75v6.215c0 .296.095.493.236.69.142.149.379.247.662.247.473 0 .852-.098 1.088-.246zm9.033-2.96h-6.148v.395c0 .838.236 1.48.662 2.022.473.493 1.04.74 1.797.74.946 0 1.703-.444 2.223-1.381l1.276.543c-.236.64-.662 1.134-1.276 1.578-.662.444-1.372.641-2.223.641-1.277 0-2.317-.444-3.074-1.381-.756-.937-1.135-2.17-1.135-3.65s.379-2.713 1.135-3.6c.757-.888 1.75-1.382 2.932-1.382s2.128.395 2.837 1.234c.71.838 1.088 1.874 1.088 3.206.047.394 0 .789-.094 1.035zm-3.784-4.143c-.709 0-1.276.247-1.702.74-.425.493-.662 1.134-.662 1.924v.394h4.54V9.76c0-.789-.19-1.43-.615-1.923-.378-.444-.899-.69-1.56-.69zm12.296 8.435l-3.074-4.49h-1.182v4.49h-1.656V.93l1.608-.098V9.71h1.277l2.648-3.7 1.892-.098-3.263 4.488 3.594 5.18h-1.844zm12.058-6.955v.098l3.784 6.906h-1.04l-3.5-6.412h-2.223l-.85 6.412h-.9l1.75-13.318h.899l-.804 6.018h2.033l4.871-6.018h1.04l-5.06 6.314zm8.559 7.152c-1.087 0-1.986-.345-2.648-1.085-.662-.74-.993-1.727-.993-2.91 0-1.727.426-3.157 1.277-4.292.851-1.134 1.939-1.726 3.357-1.726 1.04 0 1.892.395 2.554 1.135.662.74.993 1.726.993 2.959 0 1.726-.425 3.157-1.277 4.291-.85 1.085-1.939 1.628-3.263 1.628zm0-.79c.899 0 1.655-.345 2.317-1.035.662-.69 1.04-1.579 1.183-2.664l.189-1.578c0-.937-.237-1.726-.757-2.318-.473-.592-1.135-.888-1.939-.888-.898 0-1.702.345-2.364.986-.662.642-1.04 1.53-1.182 2.565l-.19 1.677c0 .987.237 1.776.757 2.368.473.592 1.135.888 1.986.888zm15.181.79c-1.088 0-1.987-.345-2.649-1.085-.662-.74-.993-1.727-.993-2.91 0-1.727.426-3.157 1.277-4.292.851-1.134 1.939-1.726 3.358-1.726 1.04 0 1.891.395 2.553 1.135.662.74.993 1.726.993 2.959 0 1.726-.425 3.157-1.277 4.291-.803 1.085-1.891 1.628-3.263 1.628zm0-.79c.898 0 1.655-.345 2.317-1.035.662-.69 1.04-1.579 1.182-2.664l.189-1.578c0-.937-.236-1.726-.757-2.318-.52-.592-1.135-.888-1.938-.888-.899 0-1.703.345-2.365.986-.662.642-1.04 1.53-1.182 2.565l-.19 1.677c0 .987.237 1.776.757 2.368.473.592 1.135.888 1.987.888zm17.638-9.026c.426 1.085.662 2.368.662 3.798 0 1.825-.378 3.255-1.087 4.39-.71 1.085-1.655 1.677-2.79 1.677-1.183 0-1.986-.444-2.507-1.381-.567.937-1.324 1.38-2.364 1.38-.946 0-1.702-.295-2.27-.936-.567-.592-.898-1.43-.898-2.417 0-1.48.283-3.6.898-6.461h.899c-.615 2.81-.899 4.882-.899 6.165v.296c0 .74.19 1.38.615 1.825.425.444.993.69 1.655.69.946 0 1.608-.493 2.033-1.48a5.67 5.67 0 01-.094-.887c0-1.628.284-3.847.898-6.659h.899c-.615 2.96-.899 5.08-.899 6.412v.641l.048.05v.098c.094.543.283.987.614 1.332.331.345.804.493 1.372.493.851 0 1.56-.444 2.128-1.331.52-.888.851-2.121.898-3.601v-.69a8.806 8.806 0 00-.662-3.354l.851-.05zm9.931 9.816c-1.087 0-1.938-.395-2.553-1.135-.662-.74-.993-1.775-.993-3.008 0-1.727.425-3.108 1.229-4.242.804-1.085 1.892-1.677 3.216-1.677.804 0 1.466.197 1.939.641.473.444.709.987.709 1.726 0 .099 0 .247-.047.444h-.804v-.394c0-.543-.189-.937-.52-1.233-.331-.296-.804-.444-1.324-.444-.852 0-1.608.345-2.223.986-.615.641-.993 1.53-1.135 2.565l-.236 1.726c0 .987.236 1.776.756 2.368.521.592 1.135.888 1.986.888 1.041 0 1.892-.395 2.507-1.184l.52.592c-.757.937-1.75 1.38-3.027 1.38zm10.403.838c-.993-.69-2.506-1.036-4.54-1.036h-1.986l.095-.789 6.431-8.138h-5.202l.095-.74h6.147l-.094.74-6.479 8.138h.993c2.128 0 3.689.345 4.824 1.085l-.284.74zm-16.976-1.035c-.426 0-.662-.198-.662-.592 0-.1 0-.247.047-.494l1.135-8.582h.804l-1.23 8.878h1.608l-.142.79h-1.56zm1.513-12.825c-.189 0-.331-.049-.378-.148-.095-.098-.095-.197-.095-.296v-.148c0-.049 0-.098.048-.197a.796.796 0 01.189-.345c.094-.099.236-.148.473-.148.189 0 .331.05.378.148.047.099.094.197.094.296 0 .05 0 .148-.047.345a.796.796 0 01-.189.345c-.095.099-.236.148-.473.148zm-30.17 13.022c-.426 0-.662-.197-.71-.592v-.247c0-.098 0-.148.048-.246l1.23-7.793h-1.75l.094-.642h1.23c.236 0 .378-.049.473-.147.094-.1.141-.247.189-.494l.378-2.318h.804l-.473 2.96h2.128l-.094.64h-2.129l-1.276 8.09h1.986l-.237.789h-1.891z" fill="#FFFAE9"/></svg>