<svg width="1262" height="636" fill="none" xmlns="http://www.w3.org/2000/svg"><path d="M20.61 47V.8h-4.55v1.47c-.07 5.32-1.96 7.35-8.26 7.42l-4.27.07v3.64h12.46V47h4.62zm56.995 0v-3.92h-36.68v-.49c1.19-14.98 36.96-13.23 36.96-29.82 0-7.28-5.6-12.53-20.02-12.53-13.86 0-22.4 5.18-22.4 17.64h4.83c0-9.94 6.02-13.65 17.78-13.65 11.27 0 14.98 3.78 14.98 8.68 0 13.51-37.66 11.55-37.66 31.64V47h42.21zm34.623.56c13.3 0 21.42-6.51 21.42-15.19 0-7.84-6.37-13.65-19.6-13.65-10.43 0-17.43 4.13-20.58 9.66h-.35c-1.68-17.22 7.42-24.36 19.46-24.36 9.24 0 14.63 3.43 17.15 10.08h4.62c-2.45-8.75-9.59-13.86-21.77-13.86s-24.15 6.37-24.15 24.15c0 16.59 9.45 23.17 23.8 23.17zm-.07-3.92c-10.36 0-17.36-4.76-17.36-10.99 0-5.95 7.56-10.15 18.34-10.15 10.01 0 15.75 3.85 15.75 9.94 0 6.44-6.09 11.2-16.73 11.2zM196.747.8h-26.11V47h4.9V30.27h21.21c13.79 0 20.02-4.55 20.02-14.7 0-10.22-6.23-14.77-20.02-14.77zm-21.21 25.48V4.86h20.93c10.43 0 15.26 2.8 15.26 10.71 0 8.05-4.62 10.71-15.26 10.71h-20.93zm79.813 21.28c17.85 0 28.91-8.82 28.91-23.66C284.26 9.13 273.2.24 255.35.24c-17.92 0-29.05 8.82-29.05 23.66 0 14.77 11.13 23.66 29.05 23.66zm0-4.13c-14.35 0-23.87-6.65-23.87-19.53 0-13.02 9.52-19.53 23.87-19.53 14.28 0 23.8 6.51 23.8 19.53 0 12.88-9.52 19.53-23.8 19.53zM302.31.8h-4.9V47h42.49v-4.2h-37.59V.8zm74.149 46.76c16.17 0 23.45-6.37 23.45-14.42s-3.99-11.06-22.26-11.69c-16.38-.56-20.51-2.52-20.51-7.91 0-5.74 5.74-9.38 17.57-9.38 12.81 0 18.9 3.64 19.6 9.03h4.83c-.77-8.05-8.68-12.95-24.15-12.95-15.61 0-22.89 5.74-22.89 13.58 0 8.47 5.95 11.2 23.38 11.69 16.8.49 19.39 2.73 19.39 7.98 0 5.32-5.11 10.15-18.41 10.15-12.11 0-19.11-3.5-20.37-11.2h-5.04c1.26 10.64 9.8 15.12 25.41 15.12zM454.605.8l-35.98 25.48V.8h-4.9V47h4.9V31.18l9.03-6.37L455.305 47h6.37v-.07l-30.38-24.64L461.675.87V.8h-7.07zm23.18 46.2V.8h-4.97V47h4.97zm41.354.56c14.84 0 24.29-5.88 27.51-15.68h-5.39c-3.43 7.49-10.78 11.55-22.12 11.55-12.46 0-22.61-6.44-22.61-19.53s10.15-19.53 22.61-19.53c11.34 0 18.62 3.57 21.98 11.55h5.39C543.289 6.4 534.329.24 519.139.24c-14.07 0-27.79 6.86-27.79 23.66 0 16.87 13.72 23.66 27.79 23.66zm85.241-25.97h-39.55V.8h-4.9V47h4.9V25.86h39.55V47h4.9V.8h-4.9v20.79zM653.387 47V15.5l-.14-9.03h.28l4.76 7.63 21.07 32.9h2.94l21.14-32.97 4.69-7.56h.28l-.14 8.96V47h4.83V.8h-6.58l-21.63 33.95-3.85 6.16h-.28l-3.71-5.88L655.207.8h-6.58V47h4.76zm128.567 0L756.124.8h-6.02l-25.9 46.2h5.32l6.09-10.99h34.79l6.09 10.99h5.46zm-44.17-14.84l15.19-27.44h.21l15.12 27.44h-30.52zm88.713-6.65c6.37-.49 12.25-4.2 12.25-11.9 0-7.98-5.04-12.81-17.36-12.81h-28.35V47h4.9V27.54h18.48c21.42 0 13.72 11.97 17.57 19.46h5.04v-.35c-4.48-8.54 2.66-18.9-12.53-20.86v-.28zm-28.56-20.72h22.68c9.52 0 13.16 2.8 13.16 9.1 0 6.37-4.62 9.59-13.16 9.59h-22.68V4.79zM896.349.8h-43.89V47h43.89v-3.92h-38.99V25.3h35.28v-3.92h-35.28V4.72h38.99V.8zm53.746 0l-35.98 25.48V.8h-4.9V47h4.9V31.18l9.03-6.37L950.795 47h6.37v-.07l-30.38-24.64L957.165.87V.8h-7.07zm87.875 30.59v-3.78h-49.767v3.78h49.767zM10.39 145V98.8H5.42V145h4.97zm57.314-46.2l-35.98 25.48V98.8h-4.9V145h4.9v-15.82l9.03-6.37L68.404 145h6.37v-.07l-30.38-24.64 30.38-21.42v-.07h-7.07zm40.962 46.76c17.85 0 28.91-8.82 28.91-23.66 0-14.77-11.06-23.66-28.91-23.66-17.92 0-29.05 8.82-29.05 23.66 0 14.77 11.13 23.66 29.05 23.66zm0-4.13c-14.35 0-23.87-6.65-23.87-19.53 0-13.02 9.52-19.53 23.87-19.53 14.28 0 23.8 6.51 23.8 19.53 0 12.88-9.52 19.53-23.8 19.53zm46.891 3.57v-31.78l-.07-9.1h.07l5.74 6.3 32.34 34.58h6.51V98.8h-4.83v32.76l.07 8.33h-.21l-4.9-5.53-33.18-35.56h-6.37V145h4.83zm85.877 0v-17.85l25.48-28.35h-6.09l-21.7 24.43h-.35l-21.63-24.43h-6.09l25.48 28.42V145h4.9zm83.328.56c16.17 0 23.45-6.37 23.45-14.42s-3.99-11.06-22.26-11.69c-16.38-.56-20.51-2.52-20.51-7.91 0-5.74 5.74-9.38 17.57-9.38 12.81 0 18.9 3.64 19.6 9.03h4.83c-.77-8.05-8.68-12.95-24.15-12.95-15.61 0-22.89 5.74-22.89 13.58 0 8.47 5.95 11.2 23.38 11.69 16.8.49 19.39 2.73 19.39 7.98 0 5.32-5.11 10.15-18.41 10.15-12.11 0-19.11-3.5-20.37-11.2h-5.04c1.26 10.64 9.8 15.12 25.41 15.12zm57.915-.56l13.23-33.25 2.73-7h.14l2.66 6.93 13.3 33.32h6.02l19.46-46.2h-5.32l-14.35 35-2.59 6.51h-.14l-2.52-6.58-14-34.93h-5.11l-13.93 34.72-2.59 6.79h-.14l-2.66-6.58-14.28-34.93h-5.46l19.46 46.2h6.09zm92.569.56c17.85 0 28.91-8.82 28.91-23.66 0-14.77-11.06-23.66-28.91-23.66-17.92 0-29.05 8.82-29.05 23.66 0 14.77 11.13 23.66 29.05 23.66zm0-4.13c-14.35 0-23.87-6.65-23.87-19.53 0-13.02 9.52-19.53 23.87-19.53 14.28 0 23.8 6.51 23.8 19.53 0 12.88-9.52 19.53-23.8 19.53zm47.451 3.57V98.8h-4.97V145h4.97zm41.354.56c14.84 0 24.29-5.88 27.51-15.68h-5.39c-3.43 7.49-10.78 11.55-22.12 11.55-12.46 0-22.61-6.44-22.61-19.53s10.15-19.53 22.61-19.53c11.34 0 18.62 3.57 21.98 11.55h5.39c-3.22-9.52-12.18-15.68-27.37-15.68-14.07 0-27.79 6.86-27.79 23.66 0 16.87 13.72 23.66 27.79 23.66zm85.241-25.97h-39.55V98.8h-4.9V145h4.9v-21.14h39.55V145h4.9V98.8h-4.9v20.79zm69.167 25.97c14.84 0 24.29-5.88 27.51-15.68h-5.39c-3.43 7.49-10.78 11.55-22.12 11.55-12.46 0-22.61-6.44-22.61-19.53s10.15-19.53 22.61-19.53c11.34 0 18.62 3.57 21.98 11.55h5.39c-3.22-9.52-12.18-15.68-27.37-15.68-14.07 0-27.79 6.86-27.79 23.66 0 16.87 13.72 23.66 27.79 23.66zm83.491-43.33V98.8h-44.73v4.2h37.87l-37.87 38.5v3.5h44.8v-4.2h-38.08l38.01-38.57zM870.086 145l-25.83-46.2h-6.02l-25.9 46.2h5.32l6.09-10.99h34.79l6.09 10.99h5.46zm-44.17-14.84l15.19-27.44h.21l15.12 27.44h-30.52zm77.752 15.4c16.17 0 23.45-6.37 23.45-14.42s-3.99-11.06-22.26-11.69c-16.38-.56-20.51-2.52-20.51-7.91 0-5.74 5.74-9.38 17.57-9.38 12.81 0 18.9 3.64 19.6 9.03h4.83c-.77-8.05-8.68-12.95-24.15-12.95-15.61 0-22.89 5.74-22.89 13.58 0 8.47 5.95 11.2 23.38 11.69 16.8.49 19.39 2.73 19.39 7.98 0 5.32-5.11 10.15-18.41 10.15-12.11 0-19.11-3.5-20.37-11.2h-5.04c1.26 10.64 9.8 15.12 25.41 15.12zm65.756-49.21l10.92-10.36h-6.44l-9.45 10.36h4.97zm-2.31 49.21c17.85 0 28.91-8.82 28.91-23.66 0-14.77-11.06-23.66-28.91-23.66-17.92 0-29.05 8.82-29.05 23.66 0 14.77 11.13 23.66 29.05 23.66zm0-4.13c-14.35 0-23.87-6.65-23.87-19.53 0-13.02 9.52-19.53 23.87-19.53 14.28 0 23.8 6.51 23.8 19.53 0 12.88-9.52 19.53-23.8 19.53zm61.066 3.57l13.23-33.25 2.73-7h.14l2.66 6.93 13.3 33.32h6.02l19.46-46.2h-5.32l-14.35 35-2.59 6.51h-.14l-2.52-6.58-14-34.93h-5.11l-13.93 34.72-2.59 6.79h-.14l-2.66-6.58-14.28-34.93h-5.46l19.46 46.2h6.09zm64.41 8.89l3.5-9.52v-5.67h-7.28v6.3h3.36l-1.89 8.89h2.31zM49.73 196.8H.66v4.2h22.05v42h4.97v-42h22.05v-4.2zm36.497 46.76c17.85 0 28.91-8.82 28.91-23.66 0-14.77-11.06-23.66-28.91-23.66-17.92 0-29.05 8.82-29.05 23.66 0 14.77 11.13 23.66 29.05 23.66zm0-4.13c-14.35 0-23.87-6.65-23.87-19.53 0-13.02 9.52-19.53 23.87-19.53 14.28 0 23.8 6.51 23.8 19.53 0 12.88-9.52 19.53-23.8 19.53zm91.568 4.13c17.85 0 28.91-8.82 28.91-23.66 0-14.77-11.06-23.66-28.91-23.66-17.92 0-29.05 8.82-29.05 23.66 0 14.77 11.13 23.66 29.05 23.66zm0-4.13c-14.35 0-23.87-6.65-23.87-19.53 0-13.02 9.52-19.53 23.87-19.53 14.28 0 23.8 6.51 23.8 19.53 0 12.88-9.52 19.53-23.8 19.53zm68.17-42.63h-26.11V243h4.9v-16.73h21.21c13.79 0 20.02-4.55 20.02-14.7 0-10.22-6.23-14.77-20.02-14.77zm-21.21 25.48v-21.42h20.93c10.43 0 15.26 2.8 15.26 10.71 0 8.05-4.62 10.71-15.26 10.71h-20.93zm79.814 21.28c17.85 0 28.91-8.82 28.91-23.66 0-14.77-11.06-23.66-28.91-23.66-17.92 0-29.05 8.82-29.05 23.66 0 14.77 11.13 23.66 29.05 23.66zm0-4.13c-14.35 0-23.87-6.65-23.87-19.53 0-13.02 9.52-19.53 23.87-19.53 14.28 0 23.8 6.51 23.8 19.53 0 12.88-9.52 19.53-23.8 19.53zm61.069 3.57l13.23-33.25 2.73-7h.14l2.66 6.93 13.3 33.32h6.02l19.46-46.2h-5.32l-14.35 35-2.59 6.51h-.14l-2.52-6.58-14-34.93h-5.11l-13.93 34.72-2.59 6.79h-.14l-2.66-6.58-14.28-34.93h-5.46l19.46 46.2h6.09zm74.035 0v-46.2h-4.97V243h4.97zm60.324-46.2h-43.89V243h43.89v-3.92h-38.99V221.3h35.28v-3.92h-35.28v-16.66h38.99v-3.92zm37.576-2.45l10.92-10.36h-6.44l-9.45 10.36h4.97zm-1.05 49.21c16.17 0 23.45-6.37 23.45-14.42s-3.99-11.06-22.26-11.69c-16.38-.56-20.51-2.52-20.51-7.91 0-5.74 5.74-9.38 17.57-9.38 12.81 0 18.9 3.64 19.6 9.03h4.83c-.77-8.05-8.68-12.95-24.15-12.95-15.61 0-22.89 5.74-22.89 13.58 0 8.47 5.95 11.2 23.38 11.69 16.8.49 19.39 2.73 19.39 7.98 0 5.32-5.11 10.15-18.41 10.15-12.11 0-19.11-3.5-20.37-11.2h-5.04c1.26 10.64 9.8 15.12 25.41 15.12zm64.426-49.21l10.92-10.36h-6.44l-9.45 10.36h4.97zm-2.24 49.21c14.84 0 24.29-5.88 27.51-15.68h-5.39c-3.43 7.49-10.78 11.55-22.12 11.55-12.46 0-22.61-6.44-22.61-19.53s10.15-19.53 22.61-19.53c11.34 0 18.62 3.57 21.98 11.55h5.39c-3.22-9.52-12.18-15.68-27.37-15.68-14.07 0-27.79 6.86-27.79 23.66 0 16.87 13.72 23.66 27.79 23.66zm90.299 0c17.85 0 28.91-8.82 28.91-23.66 0-14.77-11.06-23.66-28.91-23.66-17.92 0-29.05 8.82-29.05 23.66 0 14.77 11.13 23.66 29.05 23.66zm0-4.13c-14.35 0-23.87-6.65-23.87-19.53 0-13.02 9.52-19.53 23.87-19.53 14.28 0 23.8 6.51 23.8 19.53 0 12.88-9.52 19.53-23.8 19.53zm91.498-42.63h-26.11V243h4.9v-16.73h21.21c13.79 0 20.02-4.55 20.02-14.7 0-10.22-6.23-14.77-20.02-14.77zm-21.21 25.48v-21.42h20.93c10.43 0 15.26 2.8 15.26 10.71 0 8.05-4.62 10.71-15.26 10.71h-20.93zm79.814 21.28c17.85 0 28.91-8.82 28.91-23.66 0-14.77-11.06-23.66-28.91-23.66-17.92 0-29.05 8.82-29.05 23.66 0 14.77 11.13 23.66 29.05 23.66zm0-4.13c-14.35 0-23.87-6.65-23.87-19.53 0-13.02 9.52-19.53 23.87-19.53 14.28 0 23.8 6.51 23.8 19.53 0 12.88-9.52 19.53-23.8 19.53zm46.96-42.63h-4.9V243h42.49v-4.2h-37.59v-42zm74.149 46.76c16.17 0 23.45-6.37 23.45-14.42s-3.99-11.06-22.26-11.69c-16.38-.56-20.51-2.52-20.51-7.91 0-5.74 5.74-9.38 17.57-9.38 12.81 0 18.9 3.64 19.6 9.03h4.83c-.77-8.05-8.68-12.95-24.15-12.95-15.61 0-22.89 5.74-22.89 13.58 0 8.47 5.95 11.2 23.38 11.69 16.8.49 19.39 2.73 19.39 7.98 0 5.32-5.11 10.15-18.41 10.15-12.11 0-19.11-3.5-20.37-11.2h-5.04c1.26 10.64 9.8 15.12 25.41 15.12zm62.181 0c14.84 0 24.29-5.88 27.51-15.68h-5.39c-3.43 7.49-10.78 11.55-22.12 11.55-12.46 0-22.606-6.44-22.606-19.53s10.146-19.53 22.606-19.53c11.34 0 18.62 3.57 21.98 11.55h5.39c-3.22-9.52-12.18-15.68-27.37-15.68-14.07 0-27.786 6.86-27.786 23.66 0 16.87 13.716 23.66 27.786 23.66zm84.69-46.76h-43.89V243h43.89v-3.92h-38.99V221.3h35.28v-3.92h-35.28v-16.66h38.99v-3.92zm-1075.98 98H5V341h4.9v-16.73h21.21c13.79 0 20.02-4.55 20.02-14.7 0-10.22-6.23-14.77-20.02-14.77zM9.9 320.28v-21.42h20.93c10.43 0 15.26 2.8 15.26 10.71 0 8.05-4.62 10.71-15.26 10.71H9.9zm79.813 21.28c17.85 0 28.91-8.82 28.91-23.66 0-14.77-11.06-23.66-28.91-23.66-17.92 0-29.05 8.82-29.05 23.66 0 14.77 11.13 23.66 29.05 23.66zm0-4.13c-14.35 0-23.87-6.65-23.87-19.53 0-13.02 9.52-19.53 23.87-19.53 14.28 0 23.8 6.51 23.8 19.53 0 12.88-9.52 19.53-23.8 19.53zm82.94-42.63l-35.98 25.48V294.8h-4.9V341h4.9v-15.82l9.03-6.37 27.65 22.19h6.37v-.07l-30.38-24.64 30.38-21.42v-.07h-7.07zm72.623 46.2l-25.83-46.2h-6.02l-25.9 46.2h5.32l6.09-10.99h34.79l6.09 10.99h5.46zm-44.17-14.84l15.19-27.44h.21l15.12 27.44h-30.52zm99.184-27.93v-3.43h-44.73v4.2h37.87l-37.87 38.5v3.5h44.8v-4.2h-38.08l38.01-38.57zM368.426 341l-25.83-46.2h-6.02l-25.9 46.2h5.32l6.09-10.99h34.79l6.09 10.99h5.46zm-44.17-14.84l15.19-27.44h.21l15.12 27.44h-30.52zM384.34 341v-31.78l-.07-9.1h.07l5.74 6.3L422.42 341h6.51v-46.2h-4.83v32.76l.07 8.33h-.21l-4.9-5.53-33.18-35.56h-6.37V341h4.83zm113.457 0l-25.83-46.2h-6.02l-25.9 46.2h5.32l6.09-10.99h34.79l6.09 10.99h5.46zm-44.17-14.84l15.19-27.44h.21l15.12 27.44h-30.52zm104.692-31.36h-26.11V341h4.9v-16.73h21.21c13.79 0 20.02-4.55 20.02-14.7 0-10.22-6.23-14.77-20.02-14.77zm-21.21 25.48v-21.42h20.93c10.43 0 15.26 2.8 15.26 10.71 0 8.05-4.62 10.71-15.26 10.71h-20.93zm87.093-.77c6.37-.49 12.25-4.2 12.25-11.9 0-7.98-5.04-12.81-17.36-12.81h-28.35V341h4.9v-19.46h18.48c21.42 0 13.72 11.97 17.57 19.46h5.04v-.35c-4.48-8.54 2.66-18.9-12.53-20.86v-.28zm-28.56-20.72h22.68c9.52 0 13.16 2.8 13.16 9.1 0 6.37-4.62 9.59-13.16 9.59h-22.68v-18.69zm97.222-.56v-3.43h-44.73v4.2h37.87l-37.87 38.5v3.5h44.8v-4.2h-38.08l38.01-38.57zm57.946-3.43h-43.89V341h43.89v-3.92h-38.99V319.3h35.28v-3.92h-35.28v-16.66h38.99v-3.92zm55.566 3.43v-3.43h-44.73v4.2h37.87l-37.87 38.5v3.5h44.8v-4.2h-38.08l38.01-38.57zm63.494-3.43h-26.11V341h4.9v-16.73h21.21c13.79 0 20.02-4.55 20.02-14.7 0-10.22-6.23-14.77-20.02-14.77zm-21.21 25.48v-21.42h20.93c10.43 0 15.26 2.8 15.26 10.71 0 8.05-4.62 10.71-15.26 10.71h-20.93zm87.093-.77c6.37-.49 12.25-4.2 12.25-11.9 0-7.98-5.04-12.81-17.36-12.81h-28.35V341h4.9v-19.46h18.48c21.42 0 13.72 11.97 17.57 19.46h5.04v-.35c-4.48-8.54 2.66-18.9-12.53-20.86v-.28zm-28.56-20.72h22.68c9.52 0 13.16 2.8 13.16 9.1 0 6.37-4.62 9.59-13.16 9.59h-22.68v-18.69zM986.916 341v-17.85l25.484-28.35h-6.09l-21.704 24.43h-.35l-21.63-24.43h-6.09l25.48 28.42V341h4.9zm79.044-42.77v-3.43h-44.73v4.2h37.87l-37.87 38.5v3.5h44.8v-4.2h-38.08l38.01-38.57zm18.81 42.77v-31.5l-.14-9.03h.28l4.76 7.63 21.07 32.9h2.94l21.14-32.97 4.69-7.56h.28l-.14 8.96V341h4.83v-46.2h-6.58l-21.63 33.95-3.85 6.16h-.28l-3.71-5.88-21.84-34.23h-6.58V341h4.76zm128.57 0l-25.83-46.2h-6.02l-25.9 46.2h5.32l6.09-10.99h34.79l6.09 10.99h5.46zm-44.17-14.84l15.19-27.44h.21l15.12 27.44h-30.52zm92.8-31.36h-49.07v4.2h22.05v42h4.97v-42h22.05v-4.2zM9.76 439v-31.5l-.14-9.03h.28l4.76 7.63L35.73 439h2.94l21.14-32.97 4.69-7.56h.28l-.14 8.96V439h4.83v-46.2h-6.58l-21.63 33.95-3.85 6.16h-.28l-3.71-5.88-21.84-34.23H5V439h4.76zm128.567 0l-25.83-46.2h-6.02l-25.9 46.2h5.32l6.09-10.99h34.79l6.09 10.99h5.46zm-44.17-14.84l15.19-27.44h.21l15.12 27.44h-30.52zm88.713-6.65c6.37-.49 12.25-4.2 12.25-11.9 0-7.98-5.04-12.81-17.36-12.81h-28.35V439h4.9v-19.46h18.48c21.42 0 13.72 11.97 17.57 19.46h5.04v-.35c-4.48-8.54 2.66-18.9-12.53-20.86v-.28zm-28.56-20.72h22.68c9.52 0 13.16 2.8 13.16 9.1 0 6.37-4.62 9.59-13.16 9.59h-22.68v-18.69zm98.412-3.99h-43.89V439h43.89v-3.92h-38.99V417.3h35.28v-3.92h-35.28v-16.66h38.99v-3.92zm53.746 0l-35.98 25.48V392.8h-4.9V439h4.9v-15.82l9.03-6.37 27.65 22.19h6.37v-.07l-30.38-24.64 30.38-21.42v-.07h-7.07zm20.66 55.09l3.5-9.52v-5.67h-7.28v6.3h3.36l-1.89 8.89h2.31zm56.614-8.89v-31.78l-.07-9.1h.07l5.74 6.3 32.34 34.58h6.51v-46.2h-4.83v32.76l.07 8.33h-.21l-4.9-5.53-33.18-35.56h-6.37V439h4.83zm113.458 0l-25.83-46.2h-6.02l-25.9 46.2h5.32l6.09-10.99h34.79l6.09 10.99h5.46zm-44.17-14.84l15.19-27.44h.21l15.12 27.44h-30.52zm102.241 15.4c16.17 0 23.45-6.37 23.45-14.42s-3.99-11.06-22.26-11.69c-16.38-.56-20.51-2.52-20.51-7.91 0-5.74 5.74-9.38 17.57-9.38 12.81 0 18.9 3.64 19.6 9.03h4.83c-.77-8.05-8.68-12.95-24.15-12.95-15.61 0-22.89 5.74-22.89 13.58 0 8.47 5.95 11.2 23.38 11.69 16.8.49 19.39 2.73 19.39 7.98 0 5.32-5.11 10.15-18.41 10.15-12.11 0-19.11-3.5-20.37-11.2h-5.04c1.26 10.64 9.8 15.12 25.41 15.12zm81.996-46.76h-49.07v4.2h22.05v42h4.97v-42h22.05v-4.2zm38.526 46.2v-17.85l25.48-28.35h-6.09l-21.7 24.43h-.35l-21.63-24.43h-6.09l25.48 28.42V439h4.9zm77.22-46.2l-35.98 25.48V392.8h-4.9V439h4.9v-15.82l9.03-6.37 27.65 22.19h6.37v-.07l-30.38-24.64 30.38-21.42v-.07h-7.07zm41.87 46.76c16.1 0 24.29-5.81 24.29-21.14V392.8h-4.97v25.27c0 12.04-6.09 17.22-19.32 17.22-13.16 0-19.32-5.18-19.32-17.22V392.8h-4.97v25.62c0 15.33 8.26 21.14 24.29 21.14zm46.428-26.25v-6.44h-7.28v6.44h7.28zm-3.5 34.58l3.5-9.52v-5.67h-7.28v6.3h3.36l-1.89 8.89h2.31zm86.186-34.3h-39.55V392.8h-4.9V439h4.9v-21.14h39.55V439h4.9v-46.2h-4.9v20.79zM950.306 439v-46.2h-4.97V439h4.97zm40.094.56c16.17 0 23.45-6.37 23.45-14.42s-3.99-11.06-22.26-11.69c-16.38-.56-20.51-2.52-20.51-7.91 0-5.74 5.74-9.38 17.57-9.38 12.81 0 18.9 3.64 19.6 9.03h4.83c-.77-8.05-8.68-12.95-24.15-12.95-15.61 0-22.89 5.74-22.89 13.58 0 8.47 5.95 11.2 23.38 11.69 16.8.49 19.39 2.73 19.39 7.98 0 5.32-5.11 10.15-18.41 10.15-12.11 0-19.11-3.5-20.37-11.2h-5.04c1.26 10.64 9.8 15.12 25.41 15.12zm82-46.76h-49.07v4.2h22.05v42h4.97v-42h22.05v-4.2zm36.49 46.76c17.85 0 28.91-8.82 28.91-23.66 0-14.77-11.06-23.66-28.91-23.66-17.92 0-29.05 8.82-29.05 23.66 0 14.77 11.13 23.66 29.05 23.66zm0-4.13c-14.35 0-23.87-6.65-23.87-19.53 0-13.02 9.52-19.53 23.87-19.53 14.28 0 23.8 6.51 23.8 19.53 0 12.88-9.52 19.53-23.8 19.53zm75.52-17.92c6.37-.49 12.25-4.2 12.25-11.9 0-7.98-5.04-12.81-17.36-12.81h-28.35V439h4.9v-19.46h18.48c21.42 0 13.72 11.97 17.57 19.46h5.04v-.35c-4.48-8.54 2.66-18.9-12.53-20.86v-.28zm-28.56-20.72h22.68c9.52 0 13.16 2.8 13.16 9.1 0 6.37-4.62 9.59-13.16 9.59h-22.68v-18.69zm59.92 42.21v-46.2h-4.97V439h4.97zm21.82 0v-46.2h-4.97V439h4.97zm19.3 8.89l3.5-9.52v-5.67h-7.28v6.3h3.36l-1.89 8.89h2.31zM45.88 490.8L9.9 516.28V490.8H5V537h4.9v-15.82l9.03-6.37L46.58 537h6.37v-.07l-30.38-24.64 30.38-21.42v-.07h-7.07zm41.87 46.76c16.1 0 24.29-5.81 24.29-21.14V490.8h-4.97v25.27c0 12.04-6.09 17.22-19.32 17.22-13.16 0-19.32-5.18-19.32-17.22V490.8h-4.97v25.62c0 15.33 8.26 21.14 24.29 21.14zm44.959-46.76h-4.9V537h42.49v-4.2h-37.59v-42zm80.863 0h-49.07v4.2h22.05v42h4.97v-42h22.05v-4.2zm35.764 46.76c16.1 0 24.29-5.81 24.29-21.14V490.8h-4.97v25.27c0 12.04-6.09 17.22-19.32 17.22-13.16 0-19.32-5.18-19.32-17.22V490.8h-4.97v25.62c0 15.33 8.26 21.14 24.29 21.14zm73.519-22.05c6.37-.49 12.25-4.2 12.25-11.9 0-7.98-5.04-12.81-17.36-12.81h-28.35V537h4.9v-19.46h18.48c21.42 0 13.72 11.97 17.57 19.46h5.04v-.35c-4.48-8.54 2.66-18.9-12.53-20.86v-.28zm-28.56-20.72h22.68c9.52 0 13.16 2.8 13.16 9.1 0 6.37-4.62 9.59-13.16 9.59h-22.68v-18.69zM374.018 537v-17.85l25.48-28.35h-6.09l-21.7 24.43h-.35l-21.63-24.43h-6.09l25.48 28.42V537h4.9zm30.665 8.89l3.5-9.52v-5.67h-7.28v6.3h3.36l-1.89 8.89h2.31zm66.51-8.33c13.02 0 20.58-3.92 23.87-11.83h.49l.28 11.27h3.71v-22.96h-28.91v3.57h24.08c-.77 9.52-8.4 15.96-23.03 15.96-14.28 0-22.75-6.3-22.75-19.81 0-11.83 7.14-19.46 22.75-19.46 13.65 0 20.44 3.99 23.1 11.97h4.97c-2.66-10.5-11.41-16.03-27.93-16.03-18.76 0-28.07 9.38-28.07 23.59 0 15.4 9.94 23.73 27.44 23.73zm69.44 0c17.85 0 28.91-8.82 28.91-23.66 0-14.77-11.06-23.66-28.91-23.66-17.92 0-29.05 8.82-29.05 23.66 0 14.77 11.13 23.66 29.05 23.66zm0-4.13c-14.35 0-23.87-6.65-23.87-19.53 0-13.02 9.52-19.53 23.87-19.53 14.28 0 23.8 6.51 23.8 19.53 0 12.88-9.52 19.53-23.8 19.53zm65.72 4.13c16.17 0 23.45-6.37 23.45-14.42s-3.99-11.06-22.26-11.69c-16.38-.56-20.51-2.52-20.51-7.91 0-5.74 5.74-9.38 17.57-9.38 12.81 0 18.9 3.64 19.6 9.03h4.83c-.77-8.05-8.68-12.95-24.15-12.95-15.61 0-22.89 5.74-22.89 13.58 0 8.47 5.95 11.2 23.38 11.69 16.8.49 19.39 2.73 19.39 7.98 0 5.32-5.11 10.15-18.41 10.15-12.11 0-19.11-3.5-20.37-11.2h-5.04c1.26 10.64 9.8 15.12 25.41 15.12zm63.376-46.76h-26.11V537h4.9v-16.73h21.21c13.79 0 20.02-4.55 20.02-14.7 0-10.22-6.23-14.77-20.02-14.77zm-21.21 25.48v-21.42h20.93c10.43 0 15.26 2.8 15.26 10.71 0 8.05-4.62 10.71-15.26 10.71h-20.93zm79.813 21.28c17.85 0 28.91-8.82 28.91-23.66 0-14.77-11.06-23.66-28.91-23.66-17.92 0-29.05 8.82-29.05 23.66 0 14.77 11.13 23.66 29.05 23.66zm0-4.13c-14.35 0-23.87-6.65-23.87-19.53 0-13.02 9.52-19.53 23.87-19.53 14.28 0 23.8 6.51 23.8 19.53 0 12.88-9.52 19.53-23.8 19.53zm65.301 3.57c18.62 0 27.37-7.28 27.37-23.1 0-15.89-8.75-23.1-27.23-23.1h-23.38V537h23.24zm-18.34-42h17.78c15.89 0 22.82 5.53 22.82 18.9 0 13.79-6.93 18.9-22.82 18.9h-17.78V495zm108.602 42l-25.83-46.2h-6.02l-25.9 46.2h5.32l6.09-10.99h34.79l6.09 10.99h5.46zm-44.17-14.84l15.19-27.44h.21l15.12 27.44h-30.52zm88.714-6.65c6.37-.49 12.25-4.2 12.25-11.9 0-7.98-5.04-12.81-17.36-12.81h-28.35V537h4.9v-19.46h18.48c21.42 0 13.72 11.97 17.57 19.46h5.04v-.35c-4.48-8.54 2.66-18.9-12.53-20.86v-.28zm-28.56-20.72h22.68c9.52 0 13.16 2.8 13.16 9.1 0 6.37-4.62 9.59-13.16 9.59h-22.68v-18.69zm95.401-3.99l-35.98 25.48V490.8h-4.9V537h4.9v-15.82l9.03-6.37L995.98 537h6.37v-.07l-30.38-24.64 30.38-21.42v-.07h-7.07zm23.18 46.2v-46.2h-4.97V537h4.97zm19.3 8.89l3.5-9.52v-5.67h-7.28v6.3h3.36l-1.89 8.89h2.31zM28.66 635.56c16.17 0 23.45-6.37 23.45-14.42s-3.99-11.06-22.26-11.69c-16.38-.56-20.51-2.52-20.51-7.91 0-5.74 5.74-9.38 17.57-9.38 12.81 0 18.9 3.64 19.6 9.03h4.83c-.77-8.05-8.68-12.95-24.15-12.95-15.61 0-22.89 5.74-22.89 13.58 0 8.47 5.95 11.2 23.38 11.69 16.8.49 19.39 2.73 19.39 7.98 0 5.32-5.11 10.15-18.41 10.15-12.11 0-19.11-3.5-20.37-11.2H3.25c1.26 10.64 9.8 15.12 25.41 15.12zm63.446 0c17.85 0 28.91-8.82 28.91-23.66 0-14.77-11.06-23.66-28.91-23.66-17.92 0-29.05 8.82-29.05 23.66 0 14.77 11.13 23.66 29.05 23.66zm0-4.13c-14.35 0-23.87-6.65-23.87-19.53 0-13.02 9.52-19.53 23.87-19.53 14.28 0 23.8 6.51 23.8 19.53 0 12.88-9.52 19.53-23.8 19.53zm67.664 4.13c14.84 0 24.29-5.88 27.51-15.68h-5.39c-3.43 7.49-10.78 11.55-22.12 11.55-12.46 0-22.61-6.44-22.61-19.53s10.15-19.53 22.61-19.53c11.34 0 18.62 3.57 21.98 11.55h5.39c-3.22-9.52-12.18-15.68-27.37-15.68-14.07 0-27.79 6.86-27.79 23.66 0 16.87 13.72 23.66 27.79 23.66zm59.831 0c14 0 21.63-6.02 21.63-19.18V588.8h-4.97v27.44c0 10.85-6.02 15.19-16.66 15.19-10.15 0-15.47-3.92-16.03-13.16h-4.97c.91 12.39 7.56 17.29 21 17.29zm63.622 0c17.85 0 28.91-8.82 28.91-23.66 0-14.77-11.06-23.66-28.91-23.66-17.92 0-29.05 8.82-29.05 23.66 0 14.77 11.13 23.66 29.05 23.66zm0-4.13c-14.35 0-23.87-6.65-23.87-19.53 0-13.02 9.52-19.53 23.87-19.53 14.28 0 23.8 6.51 23.8 19.53 0 12.88-9.52 19.53-23.8 19.53zm46.96-42.63h-4.9V635h42.49v-4.2h-37.59v-42zm74.55 46.76c17.85 0 28.91-8.82 28.91-23.66 0-14.77-11.06-23.66-28.91-23.66-17.92 0-29.05 8.82-29.05 23.66 0 14.77 11.13 23.66 29.05 23.66zm0-4.13c-14.35 0-23.87-6.65-23.87-19.53 0-13.02 9.52-19.53 23.87-19.53 14.28 0 23.8 6.51 23.8 19.53 0 12.88-9.52 19.53-23.8 19.53zm67.314 4.13c13.02 0 20.58-3.92 23.87-11.83h.49l.28 11.27h3.71v-22.96h-28.91v3.57h24.08c-.77 9.52-8.4 15.96-23.03 15.96-14.28 0-22.75-6.3-22.75-19.81 0-11.83 7.14-19.46 22.75-19.46 13.65 0 20.44 3.99 23.1 11.97h4.97c-2.66-10.5-11.41-16.03-27.93-16.03-18.76 0-28.07 9.38-28.07 23.59 0 15.4 9.94 23.73 27.44 23.73zm48.65-.56v-46.2h-4.97V635h4.97zm45.152 0v-46.2h-4.97V635h4.97zm44.522 0v-31.5l-.14-9.03h.28l4.76 7.63 21.07 32.9h2.94l21.14-32.97 4.69-7.56h.28l-.14 8.96V635h4.83v-46.2h-6.58l-21.63 33.95-3.85 6.16h-.28l-3.71-5.88-21.84-34.23h-6.58V635h4.76zm128.567 0l-25.83-46.2h-6.02l-25.9 46.2h5.32l6.09-10.99h34.79l6.09 10.99h5.46zm-44.17-14.84l15.19-27.44h.21l15.12 27.44h-30.52zm88.713-6.65c6.37-.49 12.25-4.2 12.25-11.9 0-7.98-5.04-12.81-17.36-12.81h-28.35V635h4.9v-19.46h18.48c21.42 0 13.72 11.97 17.57 19.46h5.04v-.35c-4.48-8.54 2.66-18.9-12.53-20.86v-.28zm-28.56-20.72h22.68c9.52 0 13.16 2.8 13.16 9.1 0 6.37-4.62 9.59-13.16 9.59h-22.68v-18.69zm95.402-3.99l-35.98 25.48V588.8h-4.9V635h4.9v-15.82l9.03-6.37 27.65 22.19h6.37v-.07l-30.38-24.64 30.38-21.42v-.07h-7.07zm61.68 0h-43.89V635h43.89v-3.92h-38.99V613.3h35.28v-3.92h-35.28v-16.66h38.99v-3.92zm58.348 0h-49.07v4.2h22.05v42h4.97v-42h22.05v-4.2zm17.074 46.2v-46.2h-4.97V635h4.97zm21.265 0v-31.78l-.07-9.1h.07l5.74 6.3 32.34 34.58h6.51v-46.2h-4.83v32.76l.07 8.33h-.21l-4.9-5.53-33.18-35.56h-6.37V635h4.83zm85.18.56c13.02 0 20.58-3.92 23.87-11.83h.49l.28 11.27h3.71v-22.96h-28.91v3.57h24.08c-.77 9.52-8.4 15.96-23.03 15.96-14.28 0-22.75-6.3-22.75-19.81 0-11.83 7.14-19.46 22.75-19.46 13.65 0 20.44 3.99 23.1 11.97h4.97c-2.66-10.5-11.41-16.03-27.93-16.03-18.76 0-28.07 9.38-28.07 23.59 0 15.4 9.94 23.73 27.44 23.73zm67.34 0c16.1 0 24.29-5.81 24.29-21.14V588.8h-4.97v25.27c0 12.04-6.09 17.22-19.32 17.22-13.16 0-19.32-5.18-19.32-17.22V588.8h-4.97v25.62c0 15.33 8.26 21.14 24.29 21.14zm44.37-.56v-6.44h-7.28V635h7.28z" fill="#E34612"/></svg>