<svg width="1262" height="636" viewBox="0 0 1262 636" fill="none" xmlns="http://www.w3.org/2000/svg">
<path d="M20.61 47V0.799998H16.06V2.27C15.99 7.59 14.1 9.62 7.8 9.69L3.53 9.76V13.4H15.99V47H20.61ZM77.6048 47V43.08H40.9248V42.59C42.1148 27.61 77.8848 29.36 77.8848 12.77C77.8848 5.49 72.2848 0.239997 57.8648 0.239997C44.0048 0.239997 35.4648 5.42 35.4648 17.88H40.2948C40.2948 7.94 46.3148 4.23 58.0748 4.23C69.3448 4.23 73.0548 8.01 73.0548 12.91C73.0548 26.42 35.3948 24.46 35.3948 44.55V47H77.6048ZM112.228 47.56C125.528 47.56 133.648 41.05 133.648 32.37C133.648 24.53 127.278 18.72 114.048 18.72C103.618 18.72 96.6181 22.85 93.4681 28.38H93.1181C91.4381 11.16 100.538 4.02 112.578 4.02C121.818 4.02 127.208 7.45 129.728 14.1H134.348C131.898 5.35 124.758 0.239997 112.578 0.239997C100.398 0.239997 88.4281 6.61 88.4281 24.39C88.4281 40.98 97.8781 47.56 112.228 47.56ZM112.158 43.64C101.798 43.64 94.7981 38.88 94.7981 32.65C94.7981 26.7 102.358 22.5 113.138 22.5C123.148 22.5 128.888 26.35 128.888 32.44C128.888 38.88 122.798 43.64 112.158 43.64ZM196.747 0.799998H170.637V47H175.537V30.27H196.747C210.537 30.27 216.767 25.72 216.767 15.57C216.767 5.35 210.537 0.799998 196.747 0.799998ZM175.537 26.28V4.86H196.467C206.897 4.86 211.727 7.66 211.727 15.57C211.727 23.62 207.107 26.28 196.467 26.28H175.537ZM255.35 47.56C273.2 47.56 284.26 38.74 284.26 23.9C284.26 9.13 273.2 0.239997 255.35 0.239997C237.43 0.239997 226.3 9.06 226.3 23.9C226.3 38.67 237.43 47.56 255.35 47.56ZM255.35 43.43C241 43.43 231.48 36.78 231.48 23.9C231.48 10.88 241 4.37 255.35 4.37C269.63 4.37 279.15 10.88 279.15 23.9C279.15 36.78 269.63 43.43 255.35 43.43ZM302.31 0.799998H297.41V47H339.9V42.8H302.31V0.799998ZM376.459 47.56C392.629 47.56 399.909 41.19 399.909 33.14C399.909 25.09 395.919 22.08 377.649 21.45C361.269 20.89 357.139 18.93 357.139 13.54C357.139 7.8 362.879 4.16 374.709 4.16C387.519 4.16 393.609 7.8 394.309 13.19H399.139C398.369 5.14 390.459 0.239997 374.989 0.239997C359.379 0.239997 352.099 5.98 352.099 13.82C352.099 22.29 358.049 25.02 375.479 25.51C392.279 26 394.869 28.24 394.869 33.49C394.869 38.81 389.759 43.64 376.459 43.64C364.349 43.64 357.349 40.14 356.089 32.44H351.049C352.309 43.08 360.849 47.56 376.459 47.56ZM454.605 0.799998L418.625 26.28V0.799998H413.725V47H418.625V31.18L427.655 24.81L455.305 47H461.675V46.93L431.295 22.29L461.675 0.869997V0.799998H454.605ZM477.785 47V0.799998H472.815V47H477.785ZM519.139 47.56C533.979 47.56 543.429 41.68 546.649 31.88H541.259C537.829 39.37 530.479 43.43 519.139 43.43C506.679 43.43 496.529 36.99 496.529 23.9C496.529 10.81 506.679 4.37 519.139 4.37C530.479 4.37 537.759 7.94 541.119 15.92H546.509C543.289 6.4 534.329 0.239997 519.139 0.239997C505.069 0.239997 491.349 7.1 491.349 23.9C491.349 40.77 505.069 47.56 519.139 47.56ZM604.38 21.59H564.83V0.799998H559.93V47H564.83V25.86H604.38V47H609.28V0.799998H604.38V21.59ZM653.387 47V15.5L653.247 6.47H653.527L658.287 14.1L679.357 47H682.297L703.437 14.03L708.127 6.47H708.407L708.267 15.43V47H713.097V0.799998H706.517L684.887 34.75L681.037 40.91H680.757L677.047 35.03L655.207 0.799998H648.627V47H653.387ZM781.954 47L756.124 0.799998H750.104L724.204 47H729.524L735.614 36.01H770.404L776.494 47H781.954ZM737.784 32.16L752.974 4.72H753.184L768.304 32.16H737.784ZM826.497 25.51C832.867 25.02 838.747 21.31 838.747 13.61C838.747 5.63 833.707 0.799998 821.387 0.799998H793.037V47H797.937V27.54H816.417C837.837 27.54 830.137 39.51 833.987 47H839.027V46.65C834.547 38.11 841.687 27.75 826.497 25.79V25.51ZM797.937 4.79H820.617C830.137 4.79 833.777 7.59 833.777 13.89C833.777 20.26 829.157 23.48 820.617 23.48H797.937V4.79ZM896.349 0.799998H852.459V47H896.349V43.08H857.359V25.3H892.639V21.38H857.359V4.72H896.349V0.799998ZM950.095 0.799998L914.115 26.28V0.799998H909.215V47H914.115V31.18L923.145 24.81L950.795 47H957.165V46.93L926.785 22.29L957.165 0.869997V0.799998H950.095ZM1037.97 31.39V27.61H988.203V31.39H1037.97ZM10.39 145V98.8H5.42V145H10.39ZM67.7042 98.8L31.7242 124.28V98.8H26.8242V145H31.7242V129.18L40.7542 122.81L68.4042 145H74.7742V144.93L44.3942 120.29L74.7742 98.87V98.8H67.7042ZM108.666 145.56C126.516 145.56 137.576 136.74 137.576 121.9C137.576 107.13 126.516 98.24 108.666 98.24C90.7463 98.24 79.6163 107.06 79.6163 121.9C79.6163 136.67 90.7463 145.56 108.666 145.56ZM108.666 141.43C94.3163 141.43 84.7963 134.78 84.7963 121.9C84.7963 108.88 94.3163 102.37 108.666 102.37C122.946 102.37 132.466 108.88 132.466 121.9C132.466 134.78 122.946 141.43 108.666 141.43ZM155.557 145V113.22L155.487 104.12H155.557L161.297 110.42L193.637 145H200.147V98.8H195.317V131.56L195.387 139.89H195.177L190.277 134.36L157.097 98.8H150.727V145H155.557ZM241.434 145V127.15L266.914 98.8H260.824L239.124 123.23H238.774L217.144 98.8H211.054L236.534 127.22V145H241.434ZM324.762 145.56C340.932 145.56 348.212 139.19 348.212 131.14C348.212 123.09 344.222 120.08 325.952 119.45C309.572 118.89 305.442 116.93 305.442 111.54C305.442 105.8 311.182 102.16 323.012 102.16C335.822 102.16 341.912 105.8 342.612 111.19H347.442C346.672 103.14 338.762 98.24 323.292 98.24C307.682 98.24 300.402 103.98 300.402 111.82C300.402 120.29 306.352 123.02 323.782 123.51C340.582 124 343.172 126.24 343.172 131.49C343.172 136.81 338.062 141.64 324.762 141.64C312.652 141.64 305.652 138.14 304.392 130.44H299.352C300.612 141.08 309.152 145.56 324.762 145.56ZM382.677 145L395.907 111.75L398.637 104.75H398.777L401.437 111.68L414.737 145H420.757L440.217 98.8H434.897L420.547 133.8L417.957 140.31H417.817L415.297 133.73L401.297 98.8H396.187L382.257 133.52L379.667 140.31H379.527L376.867 133.73L362.587 98.8H357.127L376.587 145H382.677ZM475.246 145.56C493.096 145.56 504.156 136.74 504.156 121.9C504.156 107.13 493.096 98.24 475.246 98.24C457.326 98.24 446.196 107.06 446.196 121.9C446.196 136.67 457.326 145.56 475.246 145.56ZM475.246 141.43C460.896 141.43 451.376 134.78 451.376 121.9C451.376 108.88 460.896 102.37 475.246 102.37C489.526 102.37 499.046 108.88 499.046 121.9C499.046 134.78 489.526 141.43 475.246 141.43ZM522.697 145V98.8H517.727V145H522.697ZM564.051 145.56C578.891 145.56 588.341 139.68 591.561 129.88H586.171C582.741 137.37 575.391 141.43 564.051 141.43C551.591 141.43 541.441 134.99 541.441 121.9C541.441 108.81 551.591 102.37 564.051 102.37C575.391 102.37 582.671 105.94 586.031 113.92H591.421C588.201 104.4 579.241 98.24 564.051 98.24C549.981 98.24 536.261 105.1 536.261 121.9C536.261 138.77 549.981 145.56 564.051 145.56ZM649.292 119.59H609.742V98.8H604.842V145H609.742V123.86H649.292V145H654.192V98.8H649.292V119.59ZM718.459 145.56C733.299 145.56 742.749 139.68 745.969 129.88H740.579C737.149 137.37 729.799 141.43 718.459 141.43C705.999 141.43 695.849 134.99 695.849 121.9C695.849 108.81 705.999 102.37 718.459 102.37C729.799 102.37 737.079 105.94 740.439 113.92H745.829C742.609 104.4 733.649 98.24 718.459 98.24C704.389 98.24 690.669 105.1 690.669 121.9C690.669 138.77 704.389 145.56 718.459 145.56ZM801.95 102.23V98.8H757.22V103H795.09L757.22 141.5V145H802.02V140.8H763.94L801.95 102.23ZM870.086 145L844.256 98.8H838.236L812.336 145H817.656L823.746 134.01H858.536L864.626 145H870.086ZM825.916 130.16L841.106 102.72H841.316L856.436 130.16H825.916ZM903.668 145.56C919.838 145.56 927.118 139.19 927.118 131.14C927.118 123.09 923.128 120.08 904.858 119.45C888.478 118.89 884.348 116.93 884.348 111.54C884.348 105.8 890.088 102.16 901.918 102.16C914.728 102.16 920.818 105.8 921.518 111.19H926.348C925.578 103.14 917.668 98.24 902.198 98.24C886.588 98.24 879.308 103.98 879.308 111.82C879.308 120.29 885.258 123.02 902.688 123.51C919.488 124 922.078 126.24 922.078 131.49C922.078 136.81 916.968 141.64 903.668 141.64C891.558 141.64 884.558 138.14 883.298 130.44H878.258C879.518 141.08 888.058 145.56 903.668 145.56ZM969.424 96.35L980.344 85.99H973.904L964.454 96.35H969.424ZM967.114 145.56C984.964 145.56 996.024 136.74 996.024 121.9C996.024 107.13 984.964 98.24 967.114 98.24C949.194 98.24 938.064 107.06 938.064 121.9C938.064 136.67 949.194 145.56 967.114 145.56ZM967.114 141.43C952.764 141.43 943.244 134.78 943.244 121.9C943.244 108.88 952.764 102.37 967.114 102.37C981.394 102.37 990.914 108.88 990.914 121.9C990.914 134.78 981.394 141.43 967.114 141.43ZM1028.18 145L1041.41 111.75L1044.14 104.75H1044.28L1046.94 111.68L1060.24 145H1066.26L1085.72 98.8H1080.4L1066.05 133.8L1063.46 140.31H1063.32L1060.8 133.73L1046.8 98.8H1041.69L1027.76 133.52L1025.17 140.31H1025.03L1022.37 133.73L1008.09 98.8H1002.63L1022.09 145H1028.18ZM1092.59 153.89L1096.09 144.37V138.7H1088.81V145H1092.17L1090.28 153.89H1092.59ZM49.73 196.8H0.66V201H22.71V243H27.68V201H49.73V196.8ZM86.2269 243.56C104.077 243.56 115.137 234.74 115.137 219.9C115.137 205.13 104.077 196.24 86.2269 196.24C68.3069 196.24 57.1769 205.06 57.1769 219.9C57.1769 234.67 68.3069 243.56 86.2269 243.56ZM86.2269 239.43C71.8769 239.43 62.3569 232.78 62.3569 219.9C62.3569 206.88 71.8769 200.37 86.2269 200.37C100.507 200.37 110.027 206.88 110.027 219.9C110.027 232.78 100.507 239.43 86.2269 239.43ZM177.795 243.56C195.645 243.56 206.705 234.74 206.705 219.9C206.705 205.13 195.645 196.24 177.795 196.24C159.875 196.24 148.745 205.06 148.745 219.9C148.745 234.67 159.875 243.56 177.795 243.56ZM177.795 239.43C163.445 239.43 153.925 232.78 153.925 219.9C153.925 206.88 163.445 200.37 177.795 200.37C192.075 200.37 201.595 206.88 201.595 219.9C201.595 232.78 192.075 239.43 177.795 239.43ZM245.965 196.8H219.855V243H224.755V226.27H245.965C259.755 226.27 265.985 221.72 265.985 211.57C265.985 201.35 259.755 196.8 245.965 196.8ZM224.755 222.28V200.86H245.685C256.115 200.86 260.945 203.66 260.945 211.57C260.945 219.62 256.325 222.28 245.685 222.28H224.755ZM304.569 243.56C322.419 243.56 333.479 234.74 333.479 219.9C333.479 205.13 322.419 196.24 304.569 196.24C286.649 196.24 275.519 205.06 275.519 219.9C275.519 234.67 286.649 243.56 304.569 243.56ZM304.569 239.43C290.219 239.43 280.699 232.78 280.699 219.9C280.699 206.88 290.219 200.37 304.569 200.37C318.849 200.37 328.369 206.88 328.369 219.9C328.369 232.78 318.849 239.43 304.569 239.43ZM365.638 243L378.868 209.75L381.598 202.75H381.738L384.398 209.68L397.698 243H403.718L423.178 196.8H417.858L403.508 231.8L400.918 238.31H400.778L398.258 231.73L384.258 196.8H379.148L365.218 231.52L362.628 238.31H362.488L359.828 231.73L345.548 196.8H340.088L359.548 243H365.638ZM439.673 243V196.8H434.703V243H439.673ZM499.997 196.8H456.107V243H499.997V239.08H461.007V221.3H496.287V217.38H461.007V200.72H499.997V196.8ZM537.573 194.35L548.493 183.99H542.053L532.603 194.35H537.573ZM536.523 243.56C552.693 243.56 559.973 237.19 559.973 229.14C559.973 221.09 555.983 218.08 537.713 217.45C521.333 216.89 517.203 214.93 517.203 209.54C517.203 203.8 522.943 200.16 534.773 200.16C547.583 200.16 553.673 203.8 554.373 209.19H559.203C558.433 201.14 550.523 196.24 535.053 196.24C519.443 196.24 512.163 201.98 512.163 209.82C512.163 218.29 518.113 221.02 535.543 221.51C552.343 222 554.933 224.24 554.933 229.49C554.933 234.81 549.823 239.64 536.523 239.64C524.413 239.64 517.413 236.14 516.153 228.44H511.113C512.373 239.08 520.913 243.56 536.523 243.56ZM600.949 194.35L611.869 183.99H605.429L595.979 194.35H600.949ZM598.709 243.56C613.549 243.56 622.999 237.68 626.219 227.88H620.829C617.399 235.37 610.049 239.43 598.709 239.43C586.249 239.43 576.099 232.99 576.099 219.9C576.099 206.81 586.249 200.37 598.709 200.37C610.049 200.37 617.329 203.94 620.689 211.92H626.079C622.859 202.4 613.899 196.24 598.709 196.24C584.639 196.24 570.919 203.1 570.919 219.9C570.919 236.77 584.639 243.56 598.709 243.56ZM689.008 243.56C706.858 243.56 717.918 234.74 717.918 219.9C717.918 205.13 706.858 196.24 689.008 196.24C671.088 196.24 659.958 205.06 659.958 219.9C659.958 234.67 671.088 243.56 689.008 243.56ZM689.008 239.43C674.658 239.43 665.138 232.78 665.138 219.9C665.138 206.88 674.658 200.37 689.008 200.37C703.288 200.37 712.808 206.88 712.808 219.9C712.808 232.78 703.288 239.43 689.008 239.43ZM780.506 196.8H754.396V243H759.296V226.27H780.506C794.296 226.27 800.526 221.72 800.526 211.57C800.526 201.35 794.296 196.8 780.506 196.8ZM759.296 222.28V200.86H780.226C790.656 200.86 795.486 203.66 795.486 211.57C795.486 219.62 790.866 222.28 780.226 222.28H759.296ZM839.11 243.56C856.96 243.56 868.02 234.74 868.02 219.9C868.02 205.13 856.96 196.24 839.11 196.24C821.19 196.24 810.06 205.06 810.06 219.9C810.06 234.67 821.19 243.56 839.11 243.56ZM839.11 239.43C824.76 239.43 815.24 232.78 815.24 219.9C815.24 206.88 824.76 200.37 839.11 200.37C853.39 200.37 862.91 206.88 862.91 219.9C862.91 232.78 853.39 239.43 839.11 239.43ZM886.07 196.8H881.17V243H923.66V238.8H886.07V196.8ZM960.219 243.56C976.389 243.56 983.669 237.19 983.669 229.14C983.669 221.09 979.679 218.08 961.409 217.45C945.029 216.89 940.899 214.93 940.899 209.54C940.899 203.8 946.639 200.16 958.469 200.16C971.279 200.16 977.369 203.8 978.069 209.19H982.899C982.129 201.14 974.219 196.24 958.749 196.24C943.139 196.24 935.859 201.98 935.859 209.82C935.859 218.29 941.809 221.02 959.239 221.51C976.039 222 978.629 224.24 978.629 229.49C978.629 234.81 973.519 239.64 960.219 239.64C948.109 239.64 941.109 236.14 939.849 228.44H934.809C936.069 239.08 944.609 243.56 960.219 243.56ZM1022.4 243.56C1037.24 243.56 1046.69 237.68 1049.91 227.88H1044.52C1041.09 235.37 1033.74 239.43 1022.4 239.43C1009.94 239.43 999.794 232.99 999.794 219.9C999.794 206.81 1009.94 200.37 1022.4 200.37C1033.74 200.37 1041.02 203.94 1044.38 211.92H1049.77C1046.55 202.4 1037.59 196.24 1022.4 196.24C1008.33 196.24 994.614 203.1 994.614 219.9C994.614 236.77 1008.33 243.56 1022.4 243.56ZM1107.09 196.8H1063.2V243H1107.09V239.08H1068.1V221.3H1103.38V217.38H1068.1V200.72H1107.09V196.8ZM31.11 294.8H5V341H9.9V324.27H31.11C44.9 324.27 51.13 319.72 51.13 309.57C51.13 299.35 44.9 294.8 31.11 294.8ZM9.9 320.28V298.86H30.83C41.26 298.86 46.09 301.66 46.09 309.57C46.09 317.62 41.47 320.28 30.83 320.28H9.9ZM89.7132 341.56C107.563 341.56 118.623 332.74 118.623 317.9C118.623 303.13 107.563 294.24 89.7132 294.24C71.7932 294.24 60.6632 303.06 60.6632 317.9C60.6632 332.67 71.7932 341.56 89.7132 341.56ZM89.7132 337.43C75.3632 337.43 65.8432 330.78 65.8432 317.9C65.8432 304.88 75.3632 298.37 89.7132 298.37C103.993 298.37 113.513 304.88 113.513 317.9C113.513 330.78 103.993 337.43 89.7132 337.43ZM172.653 294.8L136.673 320.28V294.8H131.773V341H136.673V325.18L145.703 318.81L173.353 341H179.723V340.93L149.343 316.29L179.723 294.87V294.8H172.653ZM245.276 341L219.446 294.8H213.426L187.526 341H192.846L198.936 330.01H233.726L239.816 341H245.276ZM201.106 326.16L216.296 298.72H216.506L231.626 326.16H201.106ZM300.29 298.23V294.8H255.56V299H293.43L255.56 337.5V341H300.36V336.8H262.28L300.29 298.23ZM368.426 341L342.596 294.8H336.576L310.676 341H315.996L322.086 330.01H356.876L362.966 341H368.426ZM324.256 326.16L339.446 298.72H339.656L354.776 326.16H324.256ZM384.34 341V309.22L384.27 300.12H384.34L390.08 306.42L422.42 341H428.93V294.8H424.1V327.56L424.17 335.89H423.96L419.06 330.36L385.88 294.8H379.51V341H384.34ZM497.797 341L471.967 294.8H465.947L440.047 341H445.367L451.457 330.01H486.247L492.337 341H497.797ZM453.627 326.16L468.817 298.72H469.027L484.147 326.16H453.627ZM558.319 294.8H532.209V341H537.109V324.27H558.319C572.109 324.27 578.339 319.72 578.339 309.57C578.339 299.35 572.109 294.8 558.319 294.8ZM537.109 320.28V298.86H558.039C568.469 298.86 573.299 301.66 573.299 309.57C573.299 317.62 568.679 320.28 558.039 320.28H537.109ZM624.202 319.51C630.572 319.02 636.452 315.31 636.452 307.61C636.452 299.63 631.412 294.8 619.092 294.8H590.742V341H595.642V321.54H614.122C635.542 321.54 627.842 333.51 631.692 341H636.732V340.65C632.252 332.11 639.392 321.75 624.202 319.79V319.51ZM595.642 298.79H618.322C627.842 298.79 631.482 301.59 631.482 307.89C631.482 314.26 626.862 317.48 618.322 317.48H595.642V298.79ZM692.864 298.23V294.8H648.134V299H686.004L648.134 337.5V341H692.934V336.8H654.854L692.864 298.23ZM750.81 294.8H706.92V341H750.81V337.08H711.82V319.3H747.1V315.38H711.82V298.72H750.81V294.8ZM806.376 298.23V294.8H761.646V299H799.516L761.646 337.5V341H806.446V336.8H768.366L806.376 298.23ZM869.87 294.8H843.76V341H848.66V324.27H869.87C883.66 324.27 889.89 319.72 889.89 309.57C889.89 299.35 883.66 294.8 869.87 294.8ZM848.66 320.28V298.86H869.59C880.02 298.86 884.85 301.66 884.85 309.57C884.85 317.62 880.23 320.28 869.59 320.28H848.66ZM935.753 319.51C942.123 319.02 948.003 315.31 948.003 307.61C948.003 299.63 942.963 294.8 930.643 294.8H902.293V341H907.193V321.54H925.673C947.093 321.54 939.393 333.51 943.243 341H948.283V340.65C943.803 332.11 950.943 321.75 935.753 319.79V319.51ZM907.193 298.79H929.873C939.393 298.79 943.033 301.59 943.033 307.89C943.033 314.26 938.413 317.48 929.873 317.48H907.193V298.79ZM986.916 341V323.15L1012.4 294.8H1006.31L984.606 319.23H984.256L962.626 294.8H956.536L982.016 323.22V341H986.916ZM1065.96 298.23V294.8H1021.23V299H1059.1L1021.23 337.5V341H1066.03V336.8H1027.95L1065.96 298.23ZM1084.77 341V309.5L1084.63 300.47H1084.91L1089.67 308.1L1110.74 341H1113.68L1134.82 308.03L1139.51 300.47H1139.79L1139.65 309.43V341H1144.48V294.8H1137.9L1116.27 328.75L1112.42 334.91H1112.14L1108.43 329.03L1086.59 294.8H1080.01V341H1084.77ZM1213.34 341L1187.51 294.8H1181.49L1155.59 341H1160.91L1167 330.01H1201.79L1207.88 341H1213.34ZM1169.17 326.16L1184.36 298.72H1184.57L1199.69 326.16H1169.17ZM1261.97 294.8H1212.9V299H1234.95V341H1239.92V299H1261.97V294.8ZM9.76 439V407.5L9.62 398.47H9.9L14.66 406.1L35.73 439H38.67L59.81 406.03L64.5 398.47H64.78L64.64 407.43V439H69.47V392.8H62.89L41.26 426.75L37.41 432.91H37.13L33.42 427.03L11.58 392.8H5V439H9.76ZM138.327 439L112.497 392.8H106.477L80.5766 439H85.8966L91.9866 428.01H126.777L132.867 439H138.327ZM94.1566 424.16L109.347 396.72H109.557L124.677 424.16H94.1566ZM182.87 417.51C189.24 417.02 195.12 413.31 195.12 405.61C195.12 397.63 190.08 392.8 177.76 392.8H149.41V439H154.31V419.54H172.79C194.21 419.54 186.51 431.51 190.36 439H195.4V438.65C190.92 430.11 198.06 419.75 182.87 417.79V417.51ZM154.31 396.79H176.99C186.51 396.79 190.15 399.59 190.15 405.89C190.15 412.26 185.53 415.48 176.99 415.48H154.31V396.79ZM252.722 392.8H208.832V439H252.722V435.08H213.732V417.3H249.012V413.38H213.732V396.72H252.722V392.8ZM306.468 392.8L270.488 418.28V392.8H265.588V439H270.488V423.18L279.518 416.81L307.168 439H313.538V438.93L283.158 414.29L313.538 392.87V392.8H306.468ZM327.128 447.89L330.628 438.37V432.7H323.348V439H326.708L324.818 447.89H327.128ZM383.742 439V407.22L383.672 398.12H383.742L389.482 404.42L421.822 439H428.332V392.8H423.502V425.56L423.572 433.89H423.362L418.462 428.36L385.282 392.8H378.912V439H383.742ZM497.2 439L471.37 392.8H465.35L439.45 439H444.77L450.86 428.01H485.65L491.74 439H497.2ZM453.03 424.16L468.22 396.72H468.43L483.55 424.16H453.03ZM555.271 439.56C571.441 439.56 578.721 433.19 578.721 425.14C578.721 417.09 574.731 414.08 556.461 413.45C540.081 412.89 535.951 410.93 535.951 405.54C535.951 399.8 541.691 396.16 553.521 396.16C566.331 396.16 572.421 399.8 573.121 405.19H577.951C577.181 397.14 569.271 392.24 553.801 392.24C538.191 392.24 530.911 397.98 530.911 405.82C530.911 414.29 536.861 417.02 554.291 417.51C571.091 418 573.681 420.24 573.681 425.49C573.681 430.81 568.571 435.64 555.271 435.64C543.161 435.64 536.161 432.14 534.901 424.44H529.861C531.121 435.08 539.661 439.56 555.271 439.56ZM637.267 392.8H588.197V397H610.247V439H615.217V397H637.267V392.8ZM675.793 439V421.15L701.273 392.8H695.183L673.483 417.23H673.133L651.503 392.8H645.413L670.893 421.22V439H675.793ZM753.013 392.8L717.033 418.28V392.8H712.133V439H717.033V423.18L726.063 416.81L753.713 439H760.083V438.93L729.703 414.29L760.083 392.87V392.8H753.013ZM794.883 439.56C810.983 439.56 819.173 433.75 819.173 418.42V392.8H814.203V418.07C814.203 430.11 808.113 435.29 794.883 435.29C781.723 435.29 775.563 430.11 775.563 418.07V392.8H770.593V418.42C770.593 433.75 778.853 439.56 794.883 439.56ZM841.311 413.31V406.87H834.031V413.31H841.311ZM837.811 447.89L841.311 438.37V432.7H834.031V439H837.391L835.501 447.89H837.811ZM923.997 413.59H884.447V392.8H879.547V439H884.447V417.86H923.997V439H928.897V392.8H923.997V413.59ZM950.306 439V392.8H945.336V439H950.306ZM990.4 439.56C1006.57 439.56 1013.85 433.19 1013.85 425.14C1013.85 417.09 1009.86 414.08 991.59 413.45C975.21 412.89 971.08 410.93 971.08 405.54C971.08 399.8 976.82 396.16 988.65 396.16C1001.46 396.16 1007.55 399.8 1008.25 405.19H1013.08C1012.31 397.14 1004.4 392.24 988.93 392.24C973.32 392.24 966.04 397.98 966.04 405.82C966.04 414.29 971.99 417.02 989.42 417.51C1006.22 418 1008.81 420.24 1008.81 425.49C1008.81 430.81 1003.7 435.64 990.4 435.64C978.29 435.64 971.29 432.14 970.03 424.44H964.99C966.25 435.08 974.79 439.56 990.4 439.56ZM1072.4 392.8H1023.33V397H1045.38V439H1050.35V397H1072.4V392.8ZM1108.89 439.56C1126.74 439.56 1137.8 430.74 1137.8 415.9C1137.8 401.13 1126.74 392.24 1108.89 392.24C1090.97 392.24 1079.84 401.06 1079.84 415.9C1079.84 430.67 1090.97 439.56 1108.89 439.56ZM1108.89 435.43C1094.54 435.43 1085.02 428.78 1085.02 415.9C1085.02 402.88 1094.54 396.37 1108.89 396.37C1123.17 396.37 1132.69 402.88 1132.69 415.9C1132.69 428.78 1123.17 435.43 1108.89 435.43ZM1184.41 417.51C1190.78 417.02 1196.66 413.31 1196.66 405.61C1196.66 397.63 1191.62 392.8 1179.3 392.8H1150.95V439H1155.85V419.54H1174.33C1195.75 419.54 1188.05 431.51 1191.9 439H1196.94V438.65C1192.46 430.11 1199.6 419.75 1184.41 417.79V417.51ZM1155.85 396.79H1178.53C1188.05 396.79 1191.69 399.59 1191.69 405.89C1191.69 412.26 1187.07 415.48 1178.53 415.48H1155.85V396.79ZM1215.77 439V392.8H1210.8V439H1215.77ZM1237.59 439V392.8H1232.62V439H1237.59ZM1256.89 447.89L1260.39 438.37V432.7H1253.11V439H1256.47L1254.58 447.89H1256.89ZM45.88 490.8L9.9 516.28V490.8H5V537H9.9V521.18L18.93 514.81L46.58 537H52.95V536.93L22.57 512.29L52.95 490.87V490.8H45.88ZM87.7499 537.56C103.85 537.56 112.04 531.75 112.04 516.42V490.8H107.07V516.07C107.07 528.11 100.98 533.29 87.7499 533.29C74.5899 533.29 68.4299 528.11 68.4299 516.07V490.8H63.4599V516.42C63.4599 531.75 71.7199 537.56 87.7499 537.56ZM132.709 490.8H127.809V537H170.299V532.8H132.709V490.8ZM213.572 490.8H164.502V495H186.552V537H191.522V495H213.572V490.8ZM249.336 537.56C265.436 537.56 273.626 531.75 273.626 516.42V490.8H268.656V516.07C268.656 528.11 262.566 533.29 249.336 533.29C236.176 533.29 230.016 528.11 230.016 516.07V490.8H225.046V516.42C225.046 531.75 233.306 537.56 249.336 537.56ZM322.855 515.51C329.225 515.02 335.105 511.31 335.105 503.61C335.105 495.63 330.065 490.8 317.745 490.8H289.395V537H294.295V517.54H312.775C334.195 517.54 326.495 529.51 330.345 537H335.385V536.65C330.905 528.11 338.045 517.75 322.855 515.79V515.51ZM294.295 494.79H316.975C326.495 494.79 330.135 497.59 330.135 503.89C330.135 510.26 325.515 513.48 316.975 513.48H294.295V494.79ZM374.018 537V519.15L399.498 490.8H393.408L371.708 515.23H371.358L349.728 490.8H343.638L369.118 519.22V537H374.018ZM404.683 545.89L408.183 536.37V530.7H400.903V537H404.263L402.373 545.89H404.683ZM471.193 537.56C484.213 537.56 491.773 533.64 495.063 525.73H495.553L495.833 537H499.543V514.04H470.633V517.61H494.713C493.943 527.13 486.313 533.57 471.683 533.57C457.403 533.57 448.933 527.27 448.933 513.76C448.933 501.93 456.073 494.3 471.683 494.3C485.333 494.3 492.123 498.29 494.783 506.27H499.753C497.093 495.77 488.343 490.24 471.823 490.24C453.063 490.24 443.753 499.62 443.753 513.83C443.753 529.23 453.693 537.56 471.193 537.56ZM540.633 537.56C558.483 537.56 569.543 528.74 569.543 513.9C569.543 499.13 558.483 490.24 540.633 490.24C522.713 490.24 511.583 499.06 511.583 513.9C511.583 528.67 522.713 537.56 540.633 537.56ZM540.633 533.43C526.283 533.43 516.763 526.78 516.763 513.9C516.763 500.88 526.283 494.37 540.633 494.37C554.913 494.37 564.433 500.88 564.433 513.9C564.433 526.78 554.913 533.43 540.633 533.43ZM606.353 537.56C622.523 537.56 629.803 531.19 629.803 523.14C629.803 515.09 625.813 512.08 607.543 511.45C591.163 510.89 587.033 508.93 587.033 503.54C587.033 497.8 592.773 494.16 604.603 494.16C617.413 494.16 623.503 497.8 624.203 503.19H629.033C628.263 495.14 620.353 490.24 604.883 490.24C589.273 490.24 581.993 495.98 581.993 503.82C581.993 512.29 587.943 515.02 605.373 515.51C622.173 516 624.763 518.24 624.763 523.49C624.763 528.81 619.653 533.64 606.353 533.64C594.243 533.64 587.243 530.14 585.983 522.44H580.943C582.203 533.08 590.743 537.56 606.353 537.56ZM669.729 490.8H643.619V537H648.519V520.27H669.729C683.519 520.27 689.749 515.72 689.749 505.57C689.749 495.35 683.519 490.8 669.729 490.8ZM648.519 516.28V494.86H669.449C679.879 494.86 684.709 497.66 684.709 505.57C684.709 513.62 680.089 516.28 669.449 516.28H648.519ZM728.332 537.56C746.182 537.56 757.242 528.74 757.242 513.9C757.242 499.13 746.182 490.24 728.332 490.24C710.412 490.24 699.282 499.06 699.282 513.9C699.282 528.67 710.412 537.56 728.332 537.56ZM728.332 533.43C713.982 533.43 704.462 526.78 704.462 513.9C704.462 500.88 713.982 494.37 728.332 494.37C742.612 494.37 752.132 500.88 752.132 513.9C752.132 526.78 742.612 533.43 728.332 533.43ZM793.633 537C812.253 537 821.003 529.72 821.003 513.9C821.003 498.01 812.253 490.8 793.773 490.8H770.393V537H793.633ZM775.293 495H793.073C808.963 495 815.893 500.53 815.893 513.9C815.893 527.69 808.963 532.8 793.073 532.8H775.293V495ZM883.895 537L858.065 490.8H852.045L826.145 537H831.465L837.555 526.01H872.345L878.435 537H883.895ZM839.725 522.16L854.915 494.72H855.125L870.245 522.16H839.725ZM928.439 515.51C934.809 515.02 940.689 511.31 940.689 503.61C940.689 495.63 935.649 490.8 923.329 490.8H894.979V537H899.879V517.54H918.359C939.779 517.54 932.079 529.51 935.929 537H940.969V536.65C936.489 528.11 943.629 517.75 928.439 515.79V515.51ZM899.879 494.79H922.559C932.079 494.79 935.719 497.59 935.719 503.89C935.719 510.26 931.099 513.48 922.559 513.48H899.879V494.79ZM995.28 490.8L959.3 516.28V490.8H954.4V537H959.3V521.18L968.33 514.81L995.98 537H1002.35V536.93L971.97 512.29L1002.35 490.87V490.8H995.28ZM1018.46 537V490.8H1013.49V537H1018.46ZM1037.76 545.89L1041.26 536.37V530.7H1033.98V537H1037.34L1035.45 545.89H1037.76ZM28.66 635.56C44.83 635.56 52.11 629.19 52.11 621.14C52.11 613.09 48.12 610.08 29.85 609.45C13.47 608.89 9.34 606.93 9.34 601.54C9.34 595.8 15.08 592.16 26.91 592.16C39.72 592.16 45.81 595.8 46.51 601.19H51.34C50.57 593.14 42.66 588.24 27.19 588.24C11.58 588.24 4.3 593.98 4.3 601.82C4.3 610.29 10.25 613.02 27.68 613.51C44.48 614 47.07 616.24 47.07 621.49C47.07 626.81 41.96 631.64 28.66 631.64C16.55 631.64 9.55 628.14 8.29 620.44H3.25C4.51 631.08 13.05 635.56 28.66 635.56ZM92.1058 635.56C109.956 635.56 121.016 626.74 121.016 611.9C121.016 597.13 109.956 588.24 92.1058 588.24C74.1858 588.24 63.0558 597.06 63.0558 611.9C63.0558 626.67 74.1858 635.56 92.1058 635.56ZM92.1058 631.43C77.7558 631.43 68.2358 624.78 68.2358 611.9C68.2358 598.88 77.7558 592.37 92.1058 592.37C106.386 592.37 115.906 598.88 115.906 611.9C115.906 624.78 106.386 631.43 92.1058 631.43ZM159.77 635.56C174.61 635.56 184.06 629.68 187.28 619.88H181.89C178.46 627.37 171.11 631.43 159.77 631.43C147.31 631.43 137.16 624.99 137.16 611.9C137.16 598.81 147.31 592.37 159.77 592.37C171.11 592.37 178.39 595.94 181.75 603.92H187.14C183.92 594.4 174.96 588.24 159.77 588.24C145.7 588.24 131.98 595.1 131.98 611.9C131.98 628.77 145.7 635.56 159.77 635.56ZM219.601 635.56C233.601 635.56 241.231 629.54 241.231 616.38V588.8H236.261V616.24C236.261 627.09 230.241 631.43 219.601 631.43C209.451 631.43 204.131 627.51 203.571 618.27H198.601C199.511 630.66 206.161 635.56 219.601 635.56ZM283.223 635.56C301.073 635.56 312.133 626.74 312.133 611.9C312.133 597.13 301.073 588.24 283.223 588.24C265.303 588.24 254.173 597.06 254.173 611.9C254.173 626.67 265.303 635.56 283.223 635.56ZM283.223 631.43C268.873 631.43 259.353 624.78 259.353 611.9C259.353 598.88 268.873 592.37 283.223 592.37C297.503 592.37 307.023 598.88 307.023 611.9C307.023 624.78 297.503 631.43 283.223 631.43ZM330.183 588.8H325.283V635H367.773V630.8H330.183V588.8ZM404.733 635.56C422.583 635.56 433.643 626.74 433.643 611.9C433.643 597.13 422.583 588.24 404.733 588.24C386.813 588.24 375.683 597.06 375.683 611.9C375.683 626.67 386.813 635.56 404.733 635.56ZM404.733 631.43C390.383 631.43 380.863 624.78 380.863 611.9C380.863 598.88 390.383 592.37 404.733 592.37C419.013 592.37 428.533 598.88 428.533 611.9C428.533 624.78 419.013 631.43 404.733 631.43ZM472.047 635.56C485.067 635.56 492.627 631.64 495.917 623.73H496.407L496.687 635H500.397V612.04H471.487V615.61H495.567C494.797 625.13 487.167 631.57 472.537 631.57C458.257 631.57 449.787 625.27 449.787 611.76C449.787 599.93 456.927 592.3 472.537 592.3C486.187 592.3 492.977 596.29 495.637 604.27H500.607C497.947 593.77 489.197 588.24 472.677 588.24C453.917 588.24 444.607 597.62 444.607 611.83C444.607 627.23 454.547 635.56 472.047 635.56ZM520.697 635V588.8H515.727V635H520.697ZM565.849 635V588.8H560.879V635H565.849ZM610.371 635V603.5L610.231 594.47H610.511L615.271 602.1L636.341 635H639.281L660.421 602.03L665.111 594.47H665.391L665.251 603.43V635H670.081V588.8H663.501L641.871 622.75L638.021 628.91H637.741L634.031 623.03L612.191 588.8H605.611V635H610.371ZM738.938 635L713.108 588.8H707.088L681.188 635H686.508L692.598 624.01H727.388L733.478 635H738.938ZM694.768 620.16L709.958 592.72H710.168L725.288 620.16H694.768ZM783.481 613.51C789.851 613.02 795.731 609.31 795.731 601.61C795.731 593.63 790.691 588.8 778.371 588.8H750.021V635H754.921V615.54H773.401C794.821 615.54 787.121 627.51 790.971 635H796.011V634.65C791.531 626.11 798.671 615.75 783.481 613.79V613.51ZM754.921 592.79H777.601C787.121 592.79 790.761 595.59 790.761 601.89C790.761 608.26 786.141 611.48 777.601 611.48H754.921V592.79ZM850.323 588.8L814.343 614.28V588.8H809.443V635H814.343V619.18L823.373 612.81L851.023 635H857.393V634.93L827.013 610.29L857.393 588.87V588.8H850.323ZM912.003 588.8H868.113V635H912.003V631.08H873.013V613.3H908.293V609.38H873.013V592.72H912.003V588.8ZM970.351 588.8H921.281V593H943.331V635H948.301V593H970.351V588.8ZM987.425 635V588.8H982.455V635H987.425ZM1008.69 635V603.22L1008.62 594.12H1008.69L1014.43 600.42L1046.77 635H1053.28V588.8H1048.45V621.56L1048.52 629.89H1048.31L1043.41 624.36L1010.23 588.8H1003.86V635H1008.69ZM1093.87 635.56C1106.89 635.56 1114.45 631.64 1117.74 623.73H1118.23L1118.51 635H1122.22V612.04H1093.31V615.61H1117.39C1116.62 625.13 1108.99 631.57 1094.36 631.57C1080.08 631.57 1071.61 625.27 1071.61 611.76C1071.61 599.93 1078.75 592.3 1094.36 592.3C1108.01 592.3 1114.8 596.29 1117.46 604.27H1122.43C1119.77 593.77 1111.02 588.24 1094.5 588.24C1075.74 588.24 1066.43 597.62 1066.43 611.83C1066.43 627.23 1076.37 635.56 1093.87 635.56ZM1161.21 635.56C1177.31 635.56 1185.5 629.75 1185.5 614.42V588.8H1180.53V614.07C1180.53 626.11 1174.44 631.29 1161.21 631.29C1148.05 631.29 1141.89 626.11 1141.89 614.07V588.8H1136.92V614.42C1136.92 629.75 1145.18 635.56 1161.21 635.56ZM1205.58 635V628.56H1198.3V635H1205.58Z" fill="#E34612"/>
</svg>
