<svg width="166" height="34" viewBox="0 0 166 34" fill="none" xmlns="http://www.w3.org/2000/svg">
<path d="M5.648 1.32H0.368V33H30.656V28.728H5.648V1.32ZM54.0434 33.432C67.1474 33.432 74.5394 27.288 74.5394 17.16C74.5394 7.08 67.1474 0.887999 54.0434 0.887999C40.9874 0.887999 33.4994 7.032 33.4994 17.16C33.4994 27.24 40.9874 33.432 54.0434 33.432ZM54.0434 29.304C44.7794 29.304 38.9714 25.128 38.9714 17.16C38.9714 9.048 44.8274 5.016 54.0434 5.016C63.2114 5.016 69.0674 9.048 69.0674 17.16C69.0674 25.128 63.2114 29.304 54.0434 29.304ZM98.3846 33.432C107.073 33.432 112.209 30.936 114.609 25.8H114.945L115.281 33H119.169V16.824H98.8646V19.992H113.841C113.409 25.752 108.513 29.592 99.2486 29.592C89.9366 29.592 84.7526 25.512 84.7526 17.064C84.7526 9.576 89.2166 4.824 99.2966 4.824C108.225 4.824 112.257 7.512 113.745 12.12H119.121C117.633 4.968 111.729 0.887999 99.5366 0.887999C86.0486 0.887999 79.2806 7.176 79.2806 17.16C79.2806 27.72 86.3366 33.432 98.3846 33.432ZM145.09 33.432C158.194 33.432 165.586 27.288 165.586 17.16C165.586 7.08 158.194 0.887999 145.09 0.887999C132.034 0.887999 124.546 7.032 124.546 17.16C124.546 27.24 132.034 33.432 145.09 33.432ZM145.09 29.304C135.826 29.304 130.018 25.128 130.018 17.16C130.018 9.048 135.874 5.016 145.09 5.016C154.258 5.016 160.114 9.048 160.114 17.16C160.114 25.128 154.258 29.304 145.09 29.304Z" fill="#FFFAE9"/>
</svg>
